<svg viewBox="0 0 500 500" xmlns="http://www.w3.org/2000/svg">
  <defs>
    <linearGradient gradientUnits="userSpaceOnUse" x1="284.687" y1="363.438" x2="284.687" y2="477.945" id="gradient-0">
      <stop offset="0" style="stop-color: rgb(255, 255, 255);"></stop>
      <stop offset="0.158" style="stop-color: rgb(59, 253, 93);"></stop>
      <stop offset="0.51" style="stop-color: rgb(26, 170, 51);"></stop>
      <stop offset="0.51" style="stop-color: rgb(14, 140, 30);"></stop>
      <stop offset="1" style="stop-color: rgb(0, 195, 9);"></stop>
    </linearGradient>
    <linearGradient gradientUnits="userSpaceOnUse" x1="348.632" y1="364.932" x2="348.632" y2="479.438" id="gradient-1">
      <stop offset="0" style="stop-color: rgb(255, 255, 255);"></stop>
      <stop offset="0.139" style="stop-color: rgb(49, 251, 85);"></stop>
      <stop offset="0.504" style="stop-color: rgb(25, 169, 50);"></stop>
      <stop offset="0.504" style="stop-color: rgb(14, 141, 30);"></stop>
      <stop offset="1" style="stop-color: rgb(0, 212, 10);"></stop>
    </linearGradient>
    <linearGradient gradientUnits="userSpaceOnUse" x1="414.531" y1="363.438" x2="414.531" y2="479.438" id="gradient-2">
      <stop offset="0" style="stop-color: rgb(255, 255, 255);"></stop>
      <stop offset="0.157" style="stop-color: rgb(72, 227, 100);"></stop>
      <stop offset="0.51" style="stop-color: rgb(25, 167, 48);"></stop>
      <stop offset="0.51" style="stop-color: rgb(0, 109, 6);"></stop>
      <stop offset="1" style="stop-color: rgb(8, 196, 17);"></stop>
    </linearGradient>
  </defs>
  <path d="M 464.89 220.684 C 511.952 229.21 474.725 302.956 440.12 284.973 C 440.12 284.973 469.188 337.02 412.265 381.947 C 355.342 426.874 292.937 363.453 292.937 363.453 C 292.937 363.453 276.014 403.871 227.144 396.763 C 178.274 389.655 175.673 349.661 175.673 349.661 C 175.673 349.661 143.919 383.845 82.722 359.257 C 37.815 341.214 58.684 291.429 58.684 291.429 C -17.381 297.358 -2.916 212.532 42.164 216.956 C 42.164 216.956 1.412 167.351 29.461 123.979 C 57.51 80.607 101.469 103.985 101.469 103.985 C 101.469 103.985 103.668 69.442 150.924 56.03 C 198.179 42.617 244.921 85.099 244.921 85.099 C 244.921 85.099 277.857 48.778 326.565 65.285 C 375.273 81.794 364.066 127.613 364.066 127.613 C 364.066 127.613 418.439 99.788 462.132 127.752 C 509.824 158.275 464.89 220.684 464.89 220.684 Z" style="fill: rgb(250, 140, 140); stroke-width: 15px; stroke: rgb(63, 46, 46); transform-box: fill-box; transform-origin: 50% 50%;" transform="matrix(0.990917, -0.134474, 0.134474, 0.990917, 0, -0.000005)"></path>
  <path d="M 455.229 220.378 C 455.229 239.841 417.855 273.611 417.855 273.611 C 417.855 273.611 420.292 310.506 384.179 336.818 C 348.067 363.131 288.268 340.75 288.268 340.75 C 288.268 340.75 273.562 371.033 230.535 364.951 C 187.506 358.871 185.023 328.951 185.023 328.951 C 185.023 328.951 157.979 339.308 118.457 323.838 C 78.934 308.366 89.108 290.193 79.654 273.33 C 70.2 256.464 64.973 237.922 64.973 218.457 C 64.973 198.994 29.517 184.997 56.155 144.721 C 82.791 104.447 119.689 118.777 119.689 118.777 C 119.689 118.777 121.626 89.225 163.231 77.751 C 204.838 66.279 245.991 102.62 245.991 102.62 C 245.991 102.62 274.99 71.55 317.875 85.669 C 360.76 99.792 342.123 155.081 342.123 155.081 C 342.123 155.081 391.098 120.801 424.666 150.893 C 438.962 163.709 455.229 200.915 455.229 220.378 Z" style="stroke-width: 8px; fill: rgb(255, 163, 163); transform-box: fill-box; transform-origin: 50% 50%;" transform="matrix(0.990917, -0.134474, 0.134474, 0.990917, 0, -0.000003)"></path>
  <path d="M 415.703 224.242 C 415.703 239.66 386.095 266.412 386.095 266.412 C 386.095 266.412 388.026 295.64 359.417 316.485 C 330.81 337.328 283.438 319.598 283.438 319.598 C 283.438 319.598 271.79 343.59 237.704 338.769 C 203.617 333.954 201.651 310.252 201.651 310.252 C 201.651 310.252 180.227 318.458 148.919 306.202 C 117.608 293.945 125.669 279.549 118.181 266.189 C 110.691 252.829 106.55 238.141 106.55 222.721 C 106.55 207.301 78.462 196.214 99.564 164.308 C 120.664 132.404 149.895 143.757 149.895 143.757 C 149.895 143.757 151.429 120.346 184.389 111.256 C 217.347 102.167 249.95 130.956 249.95 130.956 C 249.95 130.956 272.922 106.342 306.893 117.529 C 340.866 128.716 326.102 172.516 326.102 172.516 C 326.102 172.516 364.899 145.359 391.491 169.197 C 402.816 179.35 415.703 208.824 415.703 224.242 Z" style="stroke-width: 8px; fill: rgb(251, 182, 182); transform-origin: 253.705px 224.446px;" transform="matrix(0.990917, -0.134474, 0.134474, 0.990917, -0.000002, 0.000001)"></path>
  <path style="stroke-width: 10px; fill: rgb(194, 0, 0);" d="M 52.834 170.074 C 78.622 129.359 147.332 85.797 185.162 107.413 C 205.78 119.195 216.896 152.379 173.259 178.284 C 197.819 167.772 210.572 175.087 210.841 186.024 C 212.631 177.727 241.676 178.623 240.313 184.941 C 240.542 181.52 258.025 170.314 268.211 182.234 C 270.092 177.366 311.005 172.464 301.342 197.473 C 311.121 181.528 337.305 167 349.555 178.73 L 381.496 127.947 C 382.406 115.21 427.625 99.376 425.316 130.835 L 399.494 178.313 C 410.053 164.629 432.95 170.81 426.171 190.034 C 435.613 171.343 450.219 161.317 460.889 171.683 C 466.631 177.263 467.37 181.987 467.563 189.992 C 467.769 198.597 456.73 216.066 456.73 216.066 C 456.73 216.066 420.249 289.211 390.709 311.247 C 368.827 327.571 349.985 335.931 323.754 330.213 C 299.741 324.98 295.13 307.265 295.13 307.265 C 299.723 313.096 284.227 325.478 275.192 325.63 C 266.024 325.785 84.187 325.697 84.187 325.697 C 84.187 325.697 73.347 326.827 69.487 323.739 C 63.617 319.041 63.265 306.67 61.675 302.577 C 57.16 290.958 45.096 282.807 48.789 269.61 C 50.642 262.993 58.501 264.967 58.501 264.967 C 31.513 256.77 37.126 194.874 52.834 170.074 Z"></path>
  <path d="M 131.679 151.454 C 132.89 148.803 134.586 146.715 136.84 144.867 C 138.856 143.213 141.412 141.975 144.009 141.74 C 146.324 141.529 149.224 141.415 150.8 143.124 C 152.493 144.96 152.97 146.824 152.9 148.858 C 152.842 150.467 151.927 152.006 150.924 153.264 C 149.795 154.68 146.561 155.566 146.561 155.566 C 146.561 155.566 148.755 154.042 149.982 152.571 C 151.003 151.348 151.094 150.214 151.107 149.526 C 151.147 147.526 150.898 146.421 149.516 144.976 C 148.214 143.615 145.834 143.635 143.971 143.905 C 141.617 144.247 139.405 145.464 137.576 146.984 C 135.786 148.472 134.587 150.113 133.671 152.251 C 133.287 153.148 132.913 154.831 132.913 155.59 C 132.913 156.221 132.748 156.99 132.748 157.877 C 132.748 160.535 133.356 162.743 134.241 164.512 C 135.126 166.28 136.276 167.705 137.693 168.781 C 139.109 169.86 140.734 170.618 142.563 171.059 C 144.389 171.5 146.247 171.723 148.139 171.723 C 151.324 171.723 154.567 170.871 157.874 169.161 C 161.18 167.453 164.19 165.115 166.902 162.14 C 169.615 159.164 171.828 155.72 173.54 151.793 C 175.253 147.871 176.108 143.761 176.108 139.457 C 176.108 134.143 174.749 130.571 172.036 128.733 C 169.323 126.897 165.664 125.982 161.061 125.982 C 155.75 125.982 149.908 127.343 143.535 130.062 C 137.162 132.78 130.699 136.548 124.15 141.354 C 117.6 146.162 111.284 151.855 105.209 158.437 C 99.133 165.021 93.702 172.165 88.923 179.885 C 84.142 187.607 80.337 195.701 77.504 204.18 C 74.67 212.661 74.559 230.615 89.19 242.183 C 89.613 242.517 97.884 247.413 106.927 247.013 C 117.869 246.53 128.42 240.855 128.42 240.855 C 128.42 240.855 132.95 239.417 141.731 232.402 C 147.949 227.435 171.529 201.204 171.449 201.079 C 171.616 201.385 149.66 240.535 129.81 251.13 C 109.957 261.726 103.192 261.604 94.853 261.881 C 88.715 262.093 76.283 260.742 72.093 258.464 C 67.902 256.187 64.513 253.341 61.912 249.925 C 59.315 246.508 57.455 242.806 56.337 238.82 C 55.219 234.835 54.656 231.132 54.656 227.716 C 54.656 219.744 56.249 211.617 59.435 203.326 C 62.623 195.037 66.84 187.038 72.093 179.316 C 77.346 171.596 83.39 164.355 90.237 157.583 C 97.086 150.813 104.135 144.928 111.391 139.932 C 118.65 134.936 125.909 130.978 133.166 128.069 C 140.424 125.161 154.426 121.499 160.447 121.499 C 167.88 121.499 178.66 125.35 182.32 128.639 C 185.982 131.926 187.808 136.74 187.808 143.064 C 187.808 147.491 186.835 151.605 184.887 155.4 C 182.939 159.198 180.341 162.457 177.099 165.175 C 173.854 167.894 170.163 170.05 166.033 171.628 C 161.905 173.209 152.329 174.001 147.96 174.001 C 143.357 174.001 139.407 172.829 136.1 170.491 C 132.792 168.152 130.749 164.141 130.515 158.449 C 130.515 157.689 130.53 156.783 130.645 155.96 C 130.858 154.433 131.087 152.747 131.679 151.454 Z M 212.527 193.644 L 231.005 193.632 C 226.636 200.215 222.45 206.6 218.436 212.803 C 214.421 219.005 210.855 224.727 207.725 229.98 C 204.596 235.233 202.094 239.85 200.203 243.836 C 198.313 247.821 197.955 248.219 197.955 250.495 C 197.955 253.784 201.607 254.781 201.607 254.781 C 201.607 254.781 203.719 254.721 204.65 254.287 C 209.624 251.974 212.647 248.12 217.131 243.563 C 221.612 239.008 225.394 237.047 220.671 242.236 C 215.948 247.42 211.231 251.758 206.509 255.236 C 201.786 258.713 197.359 260.456 193.232 260.456 C 189.811 260.456 187.301 259.539 185.707 257.703 C 184.115 255.867 183.317 253.684 183.317 251.155 C 183.317 249.386 183.583 247.643 184.115 245.934 C 184.645 244.228 183.85 246.351 181.548 248.69 C 179.246 251.028 178.749 251.458 176.093 253.486 C 173.439 255.511 168.852 257.6 165.895 258.629 C 162.937 259.658 158.477 260.456 155.879 260.456 C 151.51 260.456 148.443 258.997 146.672 256.09 C 144.903 253.181 144.018 249.887 144.018 246.22 C 144.018 241.033 145.554 235.306 148.621 229.042 C 151.686 222.779 155.582 216.896 160.305 211.389 C 165.028 205.885 170.162 201.298 175.706 197.629 C 181.25 193.963 186.505 192.126 191.46 192.126 C 193.819 192.126 195.886 192.47 197.658 193.169 C 199.427 193.866 200.901 194.815 202.083 196.018 C 203.265 197.215 204.175 198.579 204.828 200.096 C 205.478 201.615 205.978 203.196 206.331 204.843 L 206.685 204.843 L 212.527 193.644 Z M 161.747 240.065 C 161.747 242.974 162.309 245.225 163.427 246.803 C 164.546 248.382 166.406 248.807 168.118 249.176 C 170.12 249.607 172.208 249.085 172.208 249.085 C 172.208 249.085 174.675 248.546 176.59 247.169 C 180.031 244.696 182.464 241.44 185.354 237.963 C 188.243 234.486 190.81 230.784 193.055 226.86 C 195.299 222.934 197.127 218.948 198.542 214.902 C 199.958 210.855 200.667 206.99 200.667 203.323 C 200.667 200.416 199.901 198.199 198.365 196.681 C 196.829 195.161 194.945 194.404 192.701 194.404 C 189.16 194.404 189.289 194.794 184.92 198.083 C 180.551 201.371 176.423 205.58 172.526 210.704 C 168.634 215.829 167.442 218.856 164.787 225.057 C 162.129 231.259 161.747 234.371 161.747 240.065 Z M 261.563 193.644 L 250.556 213.334 C 250.556 213.334 254.072 209.398 257.845 205.6 C 261.62 201.806 265.547 198.613 269.618 196.018 C 273.69 193.421 277.729 192.126 281.745 192.126 C 285.284 192.126 288.029 193.169 289.975 195.256 C 291.925 197.346 292.896 200.036 292.896 203.323 C 292.896 205.351 292.22 207.751 290.862 210.537 C 289.501 213.321 287.819 216.291 285.816 219.457 C 283.811 222.622 281.624 225.85 279.266 229.138 C 276.908 232.424 274.719 235.557 272.717 238.533 C 270.712 241.509 269.029 244.228 267.671 246.695 C 266.312 249.162 265.634 251.215 265.634 252.863 C 265.634 256.409 267.285 258.178 270.593 258.178 C 274.367 258.178 278.382 256.815 282.629 254.096 C 286.879 251.377 289.556 242.847 289.556 242.847 C 289.556 242.847 289.059 251.63 286.347 253.717 C 283.635 255.804 280.948 257.453 278.292 258.652 C 275.638 259.853 269.709 260.456 267.11 260.456 C 263.691 260.456 258.242 259.512 255.997 257.485 C 253.753 255.456 252.634 252.679 252.634 249.133 C 252.634 245.337 254.05 241.194 256.882 236.701 C 259.714 232.207 262.844 227.685 266.265 223.13 C 269.684 218.575 272.815 214.208 275.648 210.032 C 278.48 205.858 279.896 202.19 279.896 199.025 C 279.896 197.504 279.421 196.367 278.48 195.608 C 277.538 194.849 277.668 194.937 276.13 194.937 C 273.179 194.937 274.43 195.576 270.769 197.914 C 267.108 200.253 263.366 203.358 259.528 207.215 C 255.69 211.073 251.858 215.375 248.021 220.122 C 244.184 224.867 242.283 229.716 239.081 234.292 C 235.762 239.032 234.441 243.515 231.841 247.88 C 229.241 252.245 227.296 255.887 225.999 258.794 L 207.702 258.807 C 210.768 253.242 214.043 247.576 217.527 241.821 C 221.011 236.065 224.462 230.371 227.883 224.738 C 231.302 219.104 234.578 213.668 237.708 208.415 C 240.839 203.162 243.638 198.389 246.117 194.084 L 261.563 193.644 Z M 409.748 127.78 C 405.148 135.624 400.133 143.913 394.702 152.646 C 389.273 161.377 383.847 170.045 378.415 178.649 C 372.985 187.25 367.764 195.576 362.75 203.608 C 357.735 211.639 353.277 219.015 349.385 225.72 C 345.489 232.424 342.392 238.213 340.091 243.088 C 337.788 247.961 336.638 251.535 336.638 253.812 C 336.638 255.2 336.96 256.313 337.611 257.133 C 338.262 257.954 339.237 258.369 340.533 258.369 C 343.485 258.369 346.848 257.099 350.623 254.57 C 354.396 252.043 358.943 248.056 364.255 242.613 C 368.856 237.807 369.211 240.145 366.732 242.801 C 362.01 247.989 357.35 252.26 352.748 255.615 C 348.144 258.97 342.01 262.146 338.114 262.146 C 334.341 262.146 330.07 262.732 325.827 260.394 C 320.5 257.455 322.006 249.761 322.006 249.761 C 322.006 249.761 321.712 250.586 319.112 252.863 C 316.514 255.141 313.769 257.004 310.881 258.461 C 307.992 259.92 301.361 260.646 298.294 260.646 C 294.046 260.646 290.771 259.255 288.47 256.468 C 286.169 253.682 285.02 250.394 285.02 246.599 C 285.02 241.284 286.732 235.46 290.152 229.137 C 293.572 222.813 297.852 216.928 302.987 211.485 C 308.12 206.042 313.639 201.487 319.538 197.818 C 325.437 194.152 334.571 192.315 339.647 192.315 C 343.423 192.315 346.431 193.583 348.675 196.11 C 350.919 198.638 350.222 200.669 350.222 200.669 L 395.205 127.454 L 409.748 127.78 Z M 338.747 219.244 C 346.556 208.151 347.568 204.37 345.489 198.008 C 344.925 196.28 344.388 194.961 340.966 194.961 C 338.608 194.961 335.979 195.849 333.089 197.618 C 330.201 199.386 327.28 201.733 324.327 204.641 C 321.374 207.548 318.516 210.869 315.741 214.604 C 312.965 218.341 310.517 222.137 308.393 225.993 C 306.269 229.852 304.556 233.619 303.26 237.288 C 301.964 240.953 301.313 244.249 301.313 247.157 C 301.313 249.814 301.787 252.031 302.729 253.801 C 303.672 255.569 305.385 256.458 307.864 256.458 C 309.988 256.458 311.324 255.625 314.102 253.858 C 316.878 252.088 320.122 247.837 322.788 244.321 C 327.25 238.44 335.057 224.488 338.747 219.244 Z M 409.573 193.832 C 405.325 200.416 401.075 206.74 396.826 212.814 C 392.577 218.888 388.772 224.453 385.408 229.516 C 382.045 234.581 379.3 239.041 377.176 242.898 C 375.052 246.754 373.99 249.826 373.99 252.104 C 373.99 255.771 375.641 257.607 378.947 257.607 C 382.368 257.607 386.351 255.838 390.897 252.292 C 395.442 248.748 400.247 244.036 405.325 238.153 C 410.401 232.269 415.56 225.497 420.813 217.843 C 426.068 210.191 431.113 202.184 435.949 193.832 L 456.178 193.832 C 449.219 204.084 442.725 214.617 436.705 225.436 C 430.688 236.255 407.232 273.394 402.451 280.289 C 397.672 287.182 392.418 293.386 386.697 298.891 C 380.975 304.394 370.401 310.197 361.159 313.454 C 352.956 316.342 344.016 317.587 335.399 317.587 C 331.503 317.587 327.818 317.051 324.334 315.973 C 320.851 314.894 317.817 313.41 315.216 311.512 C 312.619 309.614 310.558 307.336 309.022 304.678 C 307.486 302.021 306.721 299.175 306.721 296.137 C 306.721 289.555 308.757 284.751 312.829 281.713 C 316.899 278.675 321.825 277.158 327.61 277.158 L 327.61 277.726 C 323.362 278.737 320.23 280.799 318.227 283.896 C 316.223 286.994 315.216 290.885 315.216 295.569 C 315.216 298.734 315.805 301.547 316.988 304.015 C 318.17 306.482 319.7 308.537 321.59 310.183 C 323.481 311.831 325.631 313.093 328.052 313.981 C 330.473 314.868 332.977 315.309 335.577 315.309 C 341.121 315.309 346.493 313.919 351.685 311.133 C 356.875 308.347 361.864 304.678 366.644 300.123 C 371.424 295.569 375.995 290.41 380.362 284.655 C 384.732 278.899 388.861 272.948 392.755 266.814 C 396.648 260.678 400.279 254.666 403.643 248.782 C 407.005 242.898 410.103 237.616 412.936 232.933 L 412.582 232.554 C 410.691 234.959 408.39 237.772 405.677 241 C 402.966 244.225 399.982 247.298 396.738 250.206 C 393.495 253.113 390.042 255.58 386.382 257.607 C 382.722 259.635 378.037 261.253 373.909 261.464 C 370.105 261.659 366.088 261.324 363.159 259.01 C 361.047 257.341 359.015 254.867 359.015 252.081 C 359.015 249.552 359.635 246.862 360.873 244.014 C 362.114 241.166 364.093 237.595 366.804 233.29 C 369.517 228.986 372.968 223.739 377.16 217.537 C 381.352 211.334 386.398 203.619 392.296 194.38 L 409.573 193.832 Z" style="fill: rgb(255, 255, 255);"></path>
  <path d="M 67.035 272.775 L 77.485 272.775 L 81.254 296.229 L 86.748 272.775 L 97.174 272.775 L 102.692 296.229 L 106.461 272.775 L 116.864 272.775 L 109.012 314.755 L 98.22 314.755 L 91.974 288.326 L 85.751 314.755 L 74.959 314.755 L 67.035 272.775 Z M 124.455 293.794 C 124.455 286.94 126.075 281.604 129.316 277.787 C 132.556 273.97 137.069 272.06 142.855 272.06 C 148.786 272.06 153.356 273.935 156.563 277.688 C 159.771 281.438 161.377 286.692 161.377 293.45 C 161.377 298.356 160.676 302.38 159.274 305.52 C 157.873 308.661 155.847 311.103 153.197 312.852 C 150.547 314.598 147.246 315.47 143.292 315.47 C 139.273 315.47 135.947 314.717 133.313 313.208 C 130.681 311.7 128.546 309.314 126.909 306.049 C 125.272 302.786 124.455 298.7 124.455 293.794 Z M 135.466 293.85 C 135.466 298.09 136.134 301.134 137.47 302.986 C 138.808 304.837 140.626 305.763 142.927 305.763 C 145.293 305.763 147.124 304.856 148.422 303.043 C 149.716 301.23 150.364 297.975 150.364 293.278 C 150.364 289.328 149.689 286.439 148.336 284.616 C 146.984 282.794 145.148 281.882 142.831 281.882 C 140.61 281.882 138.828 282.807 137.483 284.66 C 136.139 286.512 135.466 289.575 135.466 293.85 Z M 172.819 314.755 L 172.819 272.775 L 191.171 272.775 C 194.573 272.775 197.175 273.12 198.973 273.807 C 200.772 274.492 202.222 275.768 203.324 277.629 C 204.425 279.491 204.977 281.758 204.977 284.431 C 204.977 286.76 204.555 288.768 203.713 290.459 C 202.87 292.148 201.711 293.517 200.236 294.567 C 199.298 295.236 198.009 295.789 196.372 296.229 C 197.685 296.743 198.641 297.258 199.241 297.774 C 199.645 298.117 200.234 298.853 201.002 299.979 C 201.773 301.105 202.287 301.974 202.546 302.586 L 207.869 314.755 L 195.423 314.755 L 189.541 301.927 C 188.796 300.266 188.133 299.188 187.549 298.691 C 186.755 298.041 185.855 297.716 184.85 297.716 L 183.879 297.716 L 183.879 314.755 L 172.819 314.755 Z M 183.879 289.785 L 188.521 289.785 C 189.024 289.785 189.995 289.593 191.437 289.212 C 192.168 289.042 192.762 288.603 193.225 287.895 C 193.685 287.189 193.917 286.378 193.917 285.461 C 193.917 284.105 193.552 283.065 192.825 282.339 C 192.094 281.615 190.725 281.253 188.716 281.253 L 183.879 281.253 L 183.879 289.785 Z M 217.18 272.775 L 228.189 272.775 L 228.189 304.418 L 245.374 304.418 L 245.374 314.755 L 217.18 314.755 L 217.18 272.775 Z M 256.316 272.775 L 272.674 272.775 C 275.9 272.775 278.504 273.292 280.489 274.323 C 282.474 275.352 284.115 276.833 285.411 278.761 C 286.709 280.688 287.647 282.934 288.231 285.491 C 288.813 288.048 289.106 290.76 289.106 293.622 C 289.106 298.108 288.671 301.586 287.805 304.06 C 286.939 306.534 285.735 308.602 284.195 310.273 C 282.657 311.944 281.003 313.056 279.238 313.609 C 276.822 314.372 274.635 314.755 272.674 314.755 L 256.316 314.755 L 256.316 272.775 Z M 267.328 282.282 L 267.328 305.219 L 270.025 305.219 C 272.325 305.219 273.963 304.92 274.936 304.318 C 275.907 303.717 276.668 302.666 277.219 301.168 C 277.771 299.669 278.046 297.239 278.046 293.88 C 278.046 289.433 277.43 286.388 276.199 284.745 C 274.969 283.103 272.926 282.282 270.073 282.282 L 267.328 282.282 Z" style="fill: rgb(255, 236, 236);"></path>
  <g transform="matrix(1, 0, 0, 1, 15.8931, -14.41914)">
    <path d="M 246.928 367.001 L 286.098 363.438 L 322.445 420.691 L 286.098 477.945 L 246.928 474.382 L 280.439 420.691 L 246.928 367.001 Z" style="stroke: rgb(0, 0, 0); fill: url(#gradient-0); stroke-width: 11px;"></path>
    <path d="M 310.873 368.494 L 350.043 364.932 L 386.39 422.185 L 350.043 479.438 L 310.873 475.875 L 344.384 422.185 L 310.873 368.494 Z" style="stroke: rgb(0, 0, 0); fill: url(#gradient-1); stroke-width: 11px;"></path>
    <path d="M 376.772 367.047 L 415.942 363.438 L 452.289 421.438 L 415.942 479.438 L 376.772 475.829 L 410.283 421.438 L 376.772 367.047 Z" style="stroke: rgb(0, 0, 0); fill: url(#gradient-2); stroke-width: 11px;"></path>
  </g>
</svg>