<svg version="1.1" xmlns="http://www.w3.org/2000/svg" style="display: block;" viewBox="0 0 2048 2048" width="1024" height="1024">
<defs>
	<linearGradient id="Gradient1" gradientUnits="userSpaceOnUse" x1="804.83" y1="1768.93" x2="767.506" y2="1746.47">
		<stop class="stop0" offset="0" stop-opacity="1" stop-color="rgb(197,92,96)"/>
		<stop class="stop1" offset="1" stop-opacity="1" stop-color="rgb(221,126,120)"/>
	</linearGradient>
	<linearGradient id="Gradient2" gradientUnits="userSpaceOnUse" x1="1030.94" y1="1358.64" x2="996.82" y2="1394.97">
		<stop class="stop0" offset="0" stop-opacity="1" stop-color="rgb(195,176,183)"/>
		<stop class="stop1" offset="1" stop-opacity="1" stop-color="rgb(218,210,203)"/>
	</linearGradient>
</defs>
<path transform="translate(0,0)" fill="rgb(254,253,251)" d="M 0 0 L 2048 0 L 2048 2048 L 0 2048 L 0 0 z"/>
<path transform="translate(0,0)" fill="rgb(111,38,51)" d="M 736.242 78.4102 C 780.536 75.6419 824.284 81.564 865.209 99.2304 C 880.308 105.749 932.756 132.785 936.353 147.59 C 936.784 149.363 936.353 151.642 934.84 152.828 C 930.087 156.555 919.306 158.098 913.406 159.944 C 903.038 163.188 893.206 168.319 883.66 173.455 C 835.798 199.204 800.013 233.213 769.352 277.848 C 800.105 274.013 833.993 276.973 864.784 279.025 C 1002.82 288.224 1157.73 330.984 1270.62 413.205 C 1287.72 425.662 1306.32 438.724 1320.29 454.681 A 334.964 334.964 0 0 1 1501.11 290.242 A 314.414 314.414 0 0 1 1742.98 296.183 C 1829.37 335.6 1890.29 409.088 1922.91 497.187 C 1928.04 511.063 1930.8 525.108 1933.72 539.57 C 1946.23 601.668 1945.29 667.481 1918.05 725.821 C 1914.92 732.515 1910.94 741.63 1903.59 744.314 C 1893.43 736.37 1885.55 724.54 1875.83 715.712 C 1819.54 664.59 1732.36 662.181 1660.52 661.643 C 1616.88 661.316 1573.59 663.011 1530.02 665.104 L 1524.94 671.034 C 1592.44 721.88 1672.97 815.935 1712.21 892.298 C 1718.46 904.449 1726.87 920.239 1729.24 933.617 C 1729.61 935.71 1729.9 936.185 1728.61 937.962 C 1719.95 938.131 1709.05 927.23 1701.07 923.569 C 1682.07 914.853 1663.76 913.295 1643.19 915.325 C 1638.74 903.812 1635.37 891.956 1630.53 880.592 A 531.346 531.346 0 0 0 1527.39 725.861 C 1558.86 783.5 1595.64 841.268 1600.55 908.582 C 1599.49 909.341 1598.45 910.121 1597.39 910.895 C 1584.01 920.726 1567.07 952.165 1552.62 967.286 C 1550.84 947.822 1552.61 928.169 1550.53 908.59 C 1545.14 857.922 1528.73 811.334 1507.9 765.237 C 1502.3 752.863 1497.13 739.917 1490.2 728.229 C 1491.45 739.99 1492.55 751.898 1492.85 763.723 C 1495.53 870.617 1452.34 1009.69 1377.93 1088.22 C 1383.78 1120.63 1377.36 1152.78 1361.57 1181.54 C 1339.94 1220.93 1301.68 1250.17 1258.56 1262.34 C 1223.29 1272.3 1178.48 1274.03 1143.6 1261.51 C 1130.69 1256.88 1118.87 1249.91 1106.96 1243.22 L 1099.4 1248.82 C 1121.12 1263.79 1141.79 1275.35 1166.41 1285.02 C 1130.82 1286.02 1094.67 1276.13 1060.24 1268.36 C 1078.64 1281.71 1098.54 1291.95 1119.24 1301.22 C 1100.51 1299.13 1083.51 1293.1 1066.77 1284.58 C 1058.93 1280.58 1051.1 1275.81 1042.66 1273.24 C 1046.39 1276.39 1050.34 1279.27 1054.23 1282.21 C 1069.71 1292.03 1085.8 1298.59 1102.89 1304.95 C 1073.11 1306.49 1044.25 1300.52 1018.01 1286.16 C 1004.54 1290.46 989.474 1294.08 976.91 1300.5 C 992.054 1306.46 1006.15 1313.51 1019.07 1323.51 A 393.082 393.082 0 0 1 1049.29 1349.85 C 1062.14 1362.33 1126.53 1429.62 1126.96 1443.08 C 1127.25 1452.07 1096.68 1477.78 1089.11 1485.31 C 1128.28 1507.96 1281.34 1625.54 1299.8 1662.17 C 1294.93 1672.6 1286.52 1681.31 1278.65 1689.56 C 1248.99 1720.7 1215.87 1743.86 1176.44 1761.05 C 1187.5 1788.72 1251.64 1911.8 1246.69 1931.9 C 1243.97 1935.89 1239.86 1938.01 1235.52 1939.91 C 1202.29 1954.37 1131.15 1959.64 1096.97 1945.29 C 1093.71 1943.92 1089.94 1941.8 1088.93 1938.13 C 1088.35 1936.01 1088.84 1934.04 1089.77 1932.11 C 1096.55 1918.16 1117.34 1908.28 1131.3 1904 C 1098.12 1884.11 1052.92 1840.57 1023.96 1813.77 C 1007.22 1817.2 990.421 1818.96 973.411 1820.3 C 940.538 1850.66 909.202 1881.57 874.112 1909.59 C 858.48 1922.07 841.782 1932.26 825.837 1944.11 C 818.538 1949.53 816.222 1956.44 806.559 1958.96 C 778.071 1966.39 734.884 1949.63 710.566 1935.64 C 696.784 1927.71 665.272 1906.78 661.643 1890.39 C 660.438 1884.95 662.004 1881.38 666.806 1878.52 C 674.249 1874.1 685.021 1872.36 693.423 1870.29 C 735.008 1860.06 742.445 1848.76 765.446 1815.14 C 755.244 1813.23 730.277 1810.85 724.557 1801.69 C 721.632 1797.01 723.851 1790.96 725.467 1786.13 C 733.247 1762.86 745.431 1740.25 755.026 1717.63 C 777.826 1663.88 796.942 1610.36 807.165 1552.83 L 802.286 1546.13 C 804.688 1524.28 808.93 1502.55 811.358 1480.61 C 807.346 1484.24 802.151 1488.24 796.34 1487.46 C 793.362 1487.06 791.036 1484.96 789.584 1482.45 C 784.212 1473.17 787.071 1461.92 789.325 1452.19 C 783.768 1446.18 780.033 1440.52 778.797 1432.27 C 777.109 1421.01 781.205 1408.88 788.188 1400.08 C 795.546 1390.8 805.393 1385.03 817.182 1383.74 C 822.168 1356.2 826.311 1341.84 845.363 1320.72 C 815.923 1323.49 786.799 1324.99 757.234 1323.44 C 619.305 1316.19 446.94 1262.5 352.416 1156.95 C 296.453 1094.46 269.228 1003.61 320.334 929.399 C 341.12 899.214 368.053 879.641 379.947 842.98 C 382.582 834.858 385.602 825.906 386.424 817.374 C 387.932 801.728 385.02 784.618 384.076 768.891 C 382.998 750.916 383.412 733.359 384.348 715.39 C 352.415 710.379 323.74 703.292 295.717 686.152 C 260.986 664.91 228.543 633.786 218.804 593.004 C 209.828 555.414 224.341 513.304 243.94 481.374 C 280.128 422.416 348.13 375.752 410.528 348.122 C 429.951 339.522 449.896 332.909 470.087 326.391 C 482.756 322.3 495.408 317.886 508.363 314.785 C 505.998 305.009 504.07 294.997 503.316 284.959 C 500.007 240.883 520.056 198.984 548.232 166.203 C 595.139 111.63 665.71 83.551 736.242 78.4102 z"/>
<path transform="translate(0,0)" fill="rgb(100,39,49)" d="M 814.69 1430.04 C 814.69 1430.52 814.706 1431 814.689 1431.47 C 814.579 1434.65 812.491 1438.28 811.176 1441.18 L 812.405 1441.85 L 813.953 1440.77 C 815.79 1439.5 815.007 1439.87 816.439 1439.34 L 814.613 1444.82 C 813.565 1448.25 812.951 1451.5 812.526 1455.07 C 809.022 1455.14 805.957 1454.99 802.508 1454.34 L 809.455 1453.97 C 809.079 1451.73 804.348 1449.15 802.414 1447.76 C 803.049 1447.24 804.489 1447.24 805.306 1447.12 C 809.277 1442.46 811.935 1435.53 814.69 1430.04 z"/>
<path transform="translate(0,0)" fill="rgb(245,213,135)" d="M 826.728 1415.97 C 827.845 1409.91 828.389 1404.06 831.845 1398.81 L 833.363 1398.6 C 835.653 1405.64 835.526 1412.57 833.158 1419.53 L 826.728 1415.97 z"/>
<path transform="translate(0,0)" fill="rgb(222,178,129)" d="M 826.728 1415.97 L 833.158 1419.53 C 828.51 1429.27 823.897 1438.65 814.613 1444.82 L 816.439 1439.34 C 821.587 1432.99 824.986 1423.85 826.728 1415.97 z"/>
<path transform="translate(0,0)" fill="rgb(199,194,196)" d="M 473.908 675.236 C 480.159 671.808 484.453 669.936 491.57 672.006 C 494.522 672.864 496.51 673.89 498.805 675.903 L 499.777 678.362 C 498.621 680.678 497.917 681.035 495.491 681.909 C 493.996 682.448 492.429 682.846 490.898 683.268 C 485.086 680.808 479.489 678.184 473.908 675.236 z"/>
<path transform="translate(0,0)" fill="rgb(245,213,135)" d="M 1142.44 1908.12 C 1154.3 1906.95 1163.3 1910.64 1173.64 1915.76 C 1168.31 1915.97 1162.96 1915.94 1157.63 1916 A 2138.22 2138.22 0 0 1 1128.69 1915 C 1133.12 1912.35 1137.75 1910.27 1142.44 1908.12 z"/>
<path transform="translate(0,0)" fill="rgb(245,213,135)" d="M 634.972 562.267 C 639.018 562.385 643.181 563.374 646.641 565.523 C 650.592 567.977 656.08 573.647 657.129 578.18 C 651.798 577.115 646.574 571.723 641.012 569.71 C 640.63 569.572 640.243 569.445 639.858 569.312 C 627.23 567.907 620.051 570.873 608.94 576.351 C 616.931 568.846 624.08 564.555 634.972 562.267 z"/>
<path transform="translate(0,0)" fill="rgb(100,39,49)" d="M 842.081 1362.4 L 843.527 1365.49 C 846.568 1366.38 848.81 1366.98 850.779 1369.55 C 849.381 1375.12 843.353 1382.07 840.623 1387.64 L 836.672 1388.74 C 835.408 1387.87 833.997 1387.42 833.563 1385.85 C 832.038 1380.35 839.619 1367.7 842.081 1362.4 z"/>
<path transform="translate(0,0)" fill="rgb(134,77,79)" d="M 812.526 1455.07 L 815.439 1456.57 C 816.101 1459.52 815.509 1461.51 813.952 1464.11 C 810.7 1469.54 805.49 1474.62 800.091 1477.89 C 798.897 1477.22 798.237 1477.28 797.911 1475.81 C 796.695 1470.3 799.955 1461.19 803.145 1456.61 C 806.234 1455.92 809.547 1455.98 812.526 1455.07 z"/>
<path transform="translate(0,0)" fill="rgb(199,194,196)" d="M 647.862 588.763 C 650.78 594.007 652.311 599.413 650.612 605.356 C 648.422 613.015 642.123 618.939 635.267 622.59 C 628.749 626.061 620.39 628.522 613.123 626.011 C 609.337 624.703 606.822 622.026 605.278 618.358 C 605.115 617.972 604.991 617.571 604.847 617.177 C 608.394 619.041 613.158 622.183 617.202 622.382 C 621.546 622.595 626.072 619.648 629.321 617.08 C 638.327 609.964 646.561 600.398 647.862 588.763 z"/>
<path transform="translate(0,0)" fill="rgb(245,213,135)" d="M 610.02 276.677 C 621.897 277.68 634.307 282.638 643.205 290.668 L 626.774 292.097 C 616.377 293.635 606.028 295.703 595.683 297.57 C 599.642 289.593 603.733 283.037 610.02 276.677 z"/>
<path transform="translate(0,0)" fill="rgb(225,133,120)" d="M 899.093 1315.51 L 901.14 1315.19 L 901.335 1315.9 C 887.129 1324.28 874.578 1334.08 861.176 1343.56 A 1880.73 1880.73 0 0 0 855.784 1318.22 A 1735.25 1735.25 0 0 1 899.093 1315.51 z"/>
<path transform="translate(0,0)" fill="rgb(245,213,135)" d="M 714.491 1880.39 C 718.425 1880.65 722.499 1880.81 726.245 1882.14 C 737.765 1886.24 749.473 1896.46 754.694 1907.59 L 753.779 1909.26 C 739.66 1905.3 727.29 1905.05 718.14 1891.97 L 717.058 1890.4 C 715.036 1887.52 713.034 1885.28 712.529 1881.68 L 714.491 1880.39 z"/>
<path transform="translate(0,0)" fill="rgb(254,253,251)" d="M 590.824 277.268 L 591.601 278.466 A 2233.11 2233.11 0 0 1 583.529 301.378 A 1205.13 1205.13 0 0 1 550.229 309.703 L 549.378 308.858 C 549.834 306.787 550.36 305.495 551.503 303.671 C 560.338 289.575 574.922 280.907 590.824 277.268 z"/>
<path transform="translate(0,0)" fill="url(#Gradient1)" d="M 772.773 1734.04 C 777.559 1743.15 786.907 1752.96 796.997 1755.81 C 803.986 1757.78 812.981 1754.7 819.223 1757.47 C 819.795 1759.99 819.358 1761.98 819.008 1764.48 C 818.805 1765.94 818.768 1765.34 819.09 1766.59 C 801.625 1767.66 779.314 1763.62 762.295 1759.85 C 765.719 1751.24 768.974 1742.5 772.773 1734.04 z"/>
<path transform="translate(0,0)" fill="rgb(134,77,79)" d="M 437.793 559.838 C 437.817 561.813 438.042 561.296 437.321 562.882 C 427.771 583.911 416.101 603.338 408.59 625.39 C 403.142 641.386 400.063 658.315 397.9 675.036 C 396.391 686.7 395.642 699.243 392.063 710.455 C 391.483 709.39 391.152 708.46 390.988 707.251 C 390.117 700.822 390.556 693.989 390.627 687.517 C 391.146 640.025 410.141 597.654 437.793 559.838 z"/>
<path transform="translate(0,0)" fill="rgb(217,112,109)" d="M 762.295 1759.85 C 779.314 1763.62 801.625 1767.66 819.09 1766.59 L 820.263 1772.37 L 819.785 1773.37 L 819.455 1784.13 C 798.774 1783.11 775.411 1780.07 755.478 1774.43 C 756.872 1772.14 757.952 1769.45 759.122 1767.02 L 762.295 1759.85 z"/>
<path transform="translate(0,0)" fill="rgb(254,253,251)" d="M 762.295 1759.85 C 779.314 1763.62 801.625 1767.66 819.09 1766.59 L 820.263 1772.37 L 819.785 1773.37 C 808.316 1775.77 771.012 1769.95 759.122 1767.02 L 762.295 1759.85 z"/>
<path transform="translate(0,0)" fill="rgb(217,112,109)" d="M 755.478 1774.43 C 775.411 1780.07 798.774 1783.11 819.455 1784.13 L 819.135 1791.14 L 819.305 1800.69 C 807.539 1802.65 779.731 1796.9 767.102 1794.37 C 762.361 1793.42 753.777 1792.32 750.993 1788.11 C 750.679 1785.08 751.277 1783.71 752.44 1781 L 755.478 1774.43 z"/>
<path transform="translate(0,0)" fill="rgb(254,253,251)" d="M 755.478 1774.43 C 775.411 1780.07 798.774 1783.11 819.455 1784.13 L 819.135 1791.14 A 524.096 524.096 0 0 1 752.44 1781 L 755.478 1774.43 z"/>
<path transform="translate(0,0)" fill="rgb(245,213,135)" d="M 805.306 1447.12 C 801.68 1446.37 798.844 1445.57 796.066 1443 C 791.456 1438.73 789.263 1433.06 789.227 1426.82 C 789.172 1417.05 793.977 1410.18 800.599 1403.54 C 805.335 1398.79 812.243 1392.79 819.305 1392.74 C 821.609 1393.9 822.208 1394.25 823.218 1396.82 C 826.169 1404.33 817.498 1422.85 814.69 1430.04 C 811.935 1435.53 809.277 1442.46 805.306 1447.12 z"/>
<path transform="translate(0,0)" fill="rgb(225,133,120)" d="M 845.408 1401.51 C 847.202 1401.73 849.264 1401.86 850.984 1402.4 C 853.589 1403.23 855.175 1405.15 856.187 1407.61 C 860.742 1418.71 856.303 1437.05 852.004 1447.89 C 848.362 1457.07 843.99 1464.44 834.695 1468.53 C 832.891 1468.82 830.498 1469.1 828.933 1468.03 C 824.808 1465.21 824.108 1458.56 823.008 1454.01 C 835.833 1436.93 842.635 1422.82 845.408 1401.51 z"/>
<path transform="translate(0,0)" fill="rgb(245,213,135)" d="M 607.536 255.396 C 610.949 255.017 614.563 255.102 617.994 255.295 C 641.793 256.632 660.506 269.446 675.909 286.733 L 662.204 289.662 C 655.033 282.382 647.673 276.267 638.502 271.631 C 618.876 261.712 598.54 260.7 577.738 267.423 C 548.231 278.473 543.936 293.438 528.03 317.959 C 528.459 306.723 535.917 293.702 542.838 285.11 C 558.694 265.424 583.294 257.93 607.536 255.396 z"/>
<path transform="translate(0,0)" fill="rgb(254,253,251)" d="M 604.847 617.177 C 604.725 616.662 604.607 616.146 604.48 615.633 C 603.083 610.022 602.013 604.957 603.593 599.232 C 605.879 590.955 611.59 584.165 619.178 580.195 C 624.591 577.364 630.815 576.119 636.712 578.151 C 642.337 580.091 645.245 583.61 647.862 588.763 C 646.561 600.398 638.327 609.964 629.321 617.08 C 626.072 619.648 621.546 622.595 617.202 622.382 C 613.158 622.183 608.394 619.041 604.847 617.177 z"/>
<path transform="translate(0,0)" fill="rgb(217,112,109)" d="M 1261.41 1651.2 C 1263.68 1653.19 1265.93 1655.38 1268.31 1657.21 C 1270.33 1659.23 1271.88 1660.28 1272.67 1663.05 C 1262.39 1681.98 1224.44 1710.41 1205.92 1723.05 L 1200.55 1714.16 L 1195.65 1709.01 C 1215 1696.22 1250.93 1671.37 1261.41 1651.2 z"/>
<path transform="translate(0,0)" fill="rgb(254,253,251)" d="M 1261.41 1651.2 C 1263.68 1653.19 1265.93 1655.38 1268.31 1657.21 C 1249.99 1679.31 1224.63 1698.92 1200.55 1714.16 L 1195.65 1709.01 C 1215 1696.22 1250.93 1671.37 1261.41 1651.2 z"/>
<path transform="translate(0,0)" fill="rgb(217,112,109)" d="M 432.174 847.445 C 435.345 848.476 438.463 849.866 441.567 851.092 C 439.23 868.006 437.226 886.887 447.164 901.959 C 453.665 911.818 462.307 915.44 473.315 917.898 C 470.582 922.935 467.386 927.222 463.868 931.719 C 463.43 932.155 462.998 932.597 462.554 933.026 C 458.956 936.509 454.541 939.255 449.337 938.878 C 446.022 938.637 443.368 936.652 441.416 934.083 C 423.946 911.091 427.983 873.796 432.174 847.445 z"/>
<path transform="translate(0,0)" fill="rgb(217,112,109)" d="M 1223.72 1917.17 L 1224.81 1916.98 C 1227.78 1918.96 1229.43 1923.84 1230.98 1927 C 1191.73 1939.63 1151.86 1940.36 1111.28 1935.56 C 1108.41 1934.78 1106.34 1934.93 1104.64 1932.37 C 1105.95 1928.1 1111.83 1924.4 1115.22 1921.56 C 1126.39 1923.49 1175 1929.64 1183.24 1923.77 C 1184.66 1922.76 1185.74 1921.64 1187.51 1921.23 C 1191.19 1920.37 1196.34 1920.72 1200.2 1920.55 C 1208.41 1920.17 1215.75 1919.25 1223.72 1917.17 z"/>
<path transform="translate(0,0)" fill="rgb(217,112,109)" d="M 697.484 1878.97 L 700.357 1879.03 C 702.773 1881.38 705.743 1893.32 708.116 1897.38 C 710.688 1901.79 714.138 1905.91 718.202 1909.02 C 725.125 1914.32 758.211 1931.24 766.521 1933.93 C 776.019 1936.99 785.934 1938.09 795.477 1940.86 C 798.93 1941.86 801.56 1942.68 803.378 1946.02 C 799.866 1948.39 790.166 1946.88 785.73 1946.59 C 779.366 1945.99 773.233 1944.96 767.031 1943.4 C 737.432 1935.92 690.728 1914.47 674.414 1887.22 C 682.026 1884.13 689.646 1881.43 697.484 1878.97 z"/>
<path transform="translate(0,0)" fill="rgb(217,112,109)" d="M 1246.28 1636.81 L 1252.37 1642.7 C 1255.43 1645.44 1258.71 1648.1 1261.41 1651.2 C 1250.93 1671.37 1215 1696.22 1195.65 1709.01 C 1193.03 1705.86 1190.85 1702.57 1188.63 1699.14 L 1182.98 1691.22 C 1205.39 1681.6 1232.47 1656.71 1246.28 1636.81 z"/>
<path transform="translate(0,0)" fill="rgb(254,253,251)" d="M 1246.28 1636.81 L 1252.37 1642.7 C 1234.53 1664.21 1212.26 1684.09 1188.63 1699.14 L 1182.98 1691.22 C 1205.39 1681.6 1232.47 1656.71 1246.28 1636.81 z"/>
<path transform="translate(0,0)" fill="url(#Gradient2)" d="M 881.036 1340.47 C 876.726 1343.6 872.266 1348.08 867.38 1350.08 C 878.716 1334.05 911.141 1318.41 930.316 1315.05 C 956.223 1310.51 980.983 1316.94 1002.22 1332.03 C 1033.43 1354.19 1086.12 1411.06 1104.23 1443.38 L 1104.66 1444.14 C 1101.41 1447.33 1097.82 1450.45 1094.91 1453.94 C 1090.4 1438.34 1071.16 1417.51 1061.13 1404.56 C 1045.93 1384.28 1030.57 1365.45 1011.1 1349.03 C 996.271 1335.96 978.29 1325.14 958.639 1321.6 C 930.167 1316.47 904.423 1324.26 881.036 1340.47 z"/>
<path transform="translate(0,0)" fill="rgb(217,112,109)" d="M 827.356 1549.82 C 835.174 1549.81 842.691 1550.3 850.44 1551.32 C 847.704 1564.7 845.365 1578.13 841.957 1591.36 C 832.867 1626.64 821.456 1661.41 814.522 1697.21 C 805.522 1700.06 797.345 1702.6 789.574 1708.15 C 785.202 1712.04 781.602 1716.26 777.883 1720.75 C 799.804 1668.3 822.894 1606.85 827.356 1549.82 z"/>
<path transform="translate(0,0)" fill="rgb(254,253,251)" d="M 500.809 703.922 C 501.865 704.188 503.446 704.478 504.42 705.054 C 508.885 707.692 511.245 713.838 511.991 718.713 C 515.561 742.046 502.768 775.356 489.233 793.939 C 483.102 802.356 476.72 809.053 466.061 810.675 C 465.386 810.391 464.709 810.107 464.047 809.793 C 459.355 807.566 456.961 803.692 455.472 798.794 C 449.719 779.865 462.471 752.473 470.887 735.995 C 477.78 722.496 485.568 708.855 500.809 703.922 z"/>
<path transform="translate(0,0)" fill="rgb(254,253,251)" d="M 900.882 1366.11 L 901.418 1366.75 C 900.971 1372.98 893.913 1385.48 891.534 1392.13 C 883.914 1413.43 879.085 1435.77 873.938 1457.78 A 3722.34 3722.34 0 0 1 853.762 1543.12 C 847.167 1542.18 831.522 1543.44 826.745 1539.85 C 827.67 1520.09 830.526 1500.08 831.89 1480.28 C 836.489 1478.8 842.136 1477.37 846.204 1474.77 C 857.721 1467.41 863.886 1447.27 866.259 1434.51 C 868.837 1420.66 868.771 1408.05 860.554 1396.06 C 873.521 1385.17 886.316 1374.86 900.882 1366.11 z"/>
<path transform="translate(0,0)" fill="rgb(254,253,251)" d="M 1376.24 474.231 C 1383.46 473.778 1389.77 474.002 1396.56 476.778 A 31.1375 31.1375 0 0 1 1414.1 495.043 C 1417.51 504.296 1416.82 514.981 1412.55 523.836 C 1407.02 535.326 1397.69 540.924 1386.15 544.976 C 1377.49 546.475 1369.36 545.306 1361.75 540.674 A 34.8533 34.8533 0 0 1 1345.99 518.358 C 1343.74 508.19 1346.25 496.974 1352.2 488.477 C 1358.3 479.757 1366.17 476.231 1376.24 474.231 z"/>
<path transform="translate(0,0)" fill="rgb(254,253,251)" d="M 1018.1 1414.4 C 1027.05 1419.36 1065.54 1484.41 1074.48 1497.75 C 1061.53 1505.97 1045.53 1511.25 1031.33 1517.11 C 1017.84 1522.55 1003.45 1528.21 989.131 1530.82 C 1003.99 1495.61 1017.5 1452.67 1018.1 1414.4 z"/>
<path transform="translate(0,0)" fill="rgb(217,112,109)" d="M 1497.5 696.965 C 1503.48 702.511 1510.56 719.261 1515.07 726.932 C 1547.57 782.228 1579.18 835.626 1590.29 899.798 C 1584.84 907.775 1578.97 915.439 1573.58 923.48 C 1570.31 928.097 1567.25 932.894 1564.1 937.598 C 1563.55 872.193 1547.21 816.414 1517.47 758.652 C 1511.03 746.136 1493.81 716.991 1491.49 704.539 C 1492.09 701.017 1494.95 699.199 1497.5 696.965 z"/>
<path transform="translate(0,0)" fill="rgb(210,185,186)" d="M 884.583 1343.4 C 908.141 1328.31 932.304 1320.71 960.29 1326.89 C 980.83 1331.43 996.732 1342.59 1012.36 1356.14 C 1028.76 1371.85 1043.49 1388.83 1057.45 1406.73 C 1066.85 1419.88 1081.98 1444.66 1092.75 1455.25 L 1080.57 1466.67 C 1045.71 1423.36 1024.93 1364.01 966.18 1347.08 C 930.673 1336.86 897.43 1350.28 869.281 1372.07 C 859.949 1379.29 851.417 1388.6 841.029 1394.23 C 840.658 1394.43 840.28 1394.62 839.905 1394.81 C 850.669 1374.52 866.98 1357.82 884.583 1343.4 z"/>
<path transform="translate(0,0)" fill="rgb(134,77,79)" d="M 517.873 762.377 C 518.044 767.583 516.658 773.18 515.565 778.252 C 510.62 801.199 488.763 891.438 478.136 905.503 C 476.449 907.735 472.633 909.742 470.232 911.296 C 467.979 910.312 465.731 909.3 463.646 907.989 C 452.953 901.263 449.039 890.974 446.172 879.278 C 445.142 868.556 445.967 857.354 446.255 846.596 L 434.796 838.566 C 437.419 824.286 440.933 810.383 444.951 796.443 C 448.421 803.007 451.787 809.685 457.806 814.334 C 461.524 817.206 465.849 818.597 470.528 817.738 C 486.709 814.77 498.132 792.722 503.707 778.813 C 505.283 774.88 506.001 769.979 508.344 766.494 C 509.923 766.341 511.111 766.589 512.628 766.981 C 515.119 767.626 514.7 767.454 516.876 766.57 L 517.873 762.377 z"/>
<path transform="translate(0,0)" fill="rgb(254,253,251)" d="M 1182.51 1824.93 C 1189.68 1833.04 1214.66 1894.47 1222.05 1910.54 C 1210.88 1912.57 1200.79 1914.32 1189.48 1912.66 C 1176.05 1901.55 1166.8 1896.83 1149.05 1896.89 C 1138.88 1892.89 1102.31 1859.23 1091.41 1850.06 C 1123.98 1850.37 1155.02 1842.35 1182.51 1824.93 z"/>
<path transform="translate(0,0)" fill="rgb(254,253,251)" d="M 760.866 1844.62 C 766.988 1848.25 771.292 1855.07 777.56 1858.93 C 805.608 1876.23 839.742 1880.32 871.923 1882.2 C 856.827 1895.57 840.284 1907.83 824.56 1920.5 A 439.788 439.788 0 0 1 802.396 1936.54 C 797.487 1936.22 792.823 1935.47 788.017 1934.45 C 782.679 1933.31 771.558 1931.6 768.477 1926.88 C 769.157 1925.91 769.827 1925.06 770.288 1923.95 C 772.7 1918.14 768.643 1908.95 766.104 1903.63 C 759.23 1889.23 746.089 1878.3 731.313 1872.75 C 742.14 1864.14 751.524 1854.77 760.866 1844.62 z"/>
<path transform="translate(0,0)" fill="rgb(254,253,251)" d="M 1155.06 1769.94 L 1157.08 1770.54 C 1165.26 1786.08 1172.3 1802.55 1180.2 1818.32 C 1154.11 1836.21 1115.5 1844.69 1084.24 1841.95 C 1081.64 1839.98 1079.18 1837.72 1076.68 1835.62 C 1065.48 1825.69 1055.12 1814.57 1044.24 1804.25 C 1085.24 1795.16 1116.26 1785.89 1155.06 1769.94 z"/>
<path transform="translate(0,0)" fill="rgb(254,253,251)" d="M 784.816 1817.87 C 800.15 1818.76 815.523 1821.3 830.891 1822.39 C 867.207 1824.96 902.488 1824.5 938.771 1821.72 A 552.544 552.544 0 0 1 903.991 1854.69 C 896.148 1861.82 887.897 1869.16 878.972 1874.91 C 839.124 1876.39 796.961 1865.44 766.675 1839 C 773.089 1832.31 778.883 1824.98 784.816 1817.87 z"/>
<path transform="translate(0,0)" fill="rgb(217,112,109)" d="M 1177.66 1696.8 L 1182.41 1702.8 C 1184.82 1705.81 1187.48 1708.78 1189.28 1712.21 L 1193.74 1717.8 L 1201.92 1726.54 A 558.092 558.092 0 0 1 1032.68 1791.26 L 1029.61 1779.93 L 1027.36 1772.41 C 1026.91 1768.91 1025.54 1765.43 1024.5 1762.07 L 1022.17 1754.91 C 1033.12 1750.97 1046.1 1749.98 1057.48 1746.87 C 1095.84 1736.37 1144.98 1719.36 1177.66 1696.8 z"/>
<path transform="translate(0,0)" fill="rgb(254,253,251)" d="M 1027.36 1772.41 C 1084.59 1761.08 1139 1742.06 1189.28 1712.21 L 1193.74 1717.8 C 1144.49 1749.33 1086.62 1768 1029.61 1779.93 L 1027.36 1772.41 z"/>
<path transform="translate(0,0)" fill="rgb(217,112,109)" d="M 1177.66 1696.8 L 1182.41 1702.8 C 1184.82 1705.81 1187.48 1708.78 1189.28 1712.21 C 1139 1742.06 1084.59 1761.08 1027.36 1772.41 C 1026.91 1768.91 1025.54 1765.43 1024.5 1762.07 L 1022.17 1754.91 C 1033.12 1750.97 1046.1 1749.98 1057.48 1746.87 C 1095.84 1736.37 1144.98 1719.36 1177.66 1696.8 z"/>
<path transform="translate(0,0)" fill="rgb(254,253,251)" d="M 1177.66 1696.8 L 1182.41 1702.8 C 1139.04 1733.64 1076.05 1750.82 1024.5 1762.07 L 1022.17 1754.91 C 1033.12 1750.97 1046.1 1749.98 1057.48 1746.87 C 1095.84 1736.37 1144.98 1719.36 1177.66 1696.8 z"/>
<path transform="translate(0,0)" fill="rgb(222,178,129)" d="M 888.042 141.371 C 890.572 141.236 892.636 141.498 894.598 143.129 L 894.074 144.444 C 849.983 160.71 799.66 200.489 770.445 237.442 C 759.753 250.966 751.364 265.448 743.764 280.856 C 727.846 283.135 711.309 283.148 695.24 284.75 C 693.447 284.944 691.496 285.392 689.745 284.78 C 688.504 284.346 688.42 282.626 688.032 281.482 C 689.597 270.545 700.284 256.133 706.874 247.274 C 731.942 213.576 766.968 183.392 805.281 165.789 C 815.408 161.136 826.278 157.854 836.839 154.304 C 853.64 148.656 870.461 143.914 888.042 141.371 z"/>
<path transform="translate(0,0)" fill="rgb(217,112,109)" d="M 1013.5 1756.18 L 1015.75 1763.11 L 1019.35 1773.87 L 1021.41 1781.68 L 1025.55 1792.19 C 968.057 1802.18 915.844 1805.77 857.45 1804.24 C 849.686 1804.03 833.255 1805.02 826.682 1801.06 C 824.092 1800.42 821.925 1800.52 819.305 1800.69 L 819.135 1791.14 L 819.455 1784.13 L 819.785 1773.37 L 820.263 1772.37 L 821.677 1772.48 C 823.389 1772.59 825.083 1772.63 826.797 1772.65 L 827.584 1773.31 L 828.348 1767.11 C 850.962 1766.17 873.928 1768.44 896.657 1767.88 C 935.929 1766.92 974.712 1761.94 1013.5 1756.18 z"/>
<path transform="translate(0,0)" fill="rgb(100,39,49)" d="M 820.263 1772.37 L 821.677 1772.48 C 823.389 1772.59 825.083 1772.63 826.797 1772.65 L 827.584 1773.31 L 827.734 1784.28 C 826.626 1789.93 827.321 1795.39 826.682 1801.06 C 824.092 1800.42 821.925 1800.52 819.305 1800.69 L 819.135 1791.14 L 819.455 1784.13 L 819.785 1773.37 L 820.263 1772.37 z"/>
<path transform="translate(0,0)" fill="rgb(254,253,251)" d="M 1019.35 1773.87 L 1021.41 1781.68 C 1001.87 1783.72 982.52 1787.44 962.97 1789.61 C 925.757 1793.74 889.374 1794.57 852.003 1793.06 C 846.293 1792.83 833.027 1793.9 828.45 1791.17 C 827.518 1788.61 828.025 1787.64 828.595 1785.03 C 839.315 1786.94 851.317 1786.83 862.206 1787.16 C 915.347 1788.79 967.039 1782.94 1019.35 1773.87 z"/>
<path transform="translate(0,0)" fill="rgb(217,112,109)" d="M 1013.5 1756.18 L 1015.75 1763.11 L 1019.35 1773.87 C 967.039 1782.94 915.347 1788.79 862.206 1787.16 C 851.317 1786.83 839.315 1786.94 828.595 1785.03 L 827.734 1784.28 L 827.584 1773.31 L 828.348 1767.11 C 850.962 1766.17 873.928 1768.44 896.657 1767.88 C 935.929 1766.92 974.712 1761.94 1013.5 1756.18 z"/>
<path transform="translate(0,0)" fill="rgb(254,253,251)" d="M 1013.5 1756.18 L 1015.75 1763.11 C 1009.17 1766.13 1000.58 1766.81 993.428 1767.95 C 950.843 1774.78 908.37 1775.3 865.373 1775.14 C 853.959 1775.09 838.477 1776.63 827.584 1773.31 L 828.348 1767.11 C 850.962 1766.17 873.928 1768.44 896.657 1767.88 C 935.929 1766.92 974.712 1761.94 1013.5 1756.18 z"/>
<path transform="translate(0,0)" fill="rgb(217,112,109)" d="M 1517.82 677.73 C 1532.66 689.574 1546.38 703.138 1560.13 716.206 C 1612.24 765.729 1658.73 818.914 1694.09 881.859 C 1700.21 892.761 1706.87 903.905 1711.37 915.585 L 1710.82 916.385 L 1706.69 914.501 C 1687.7 904.494 1672.07 903.634 1651.03 903.962 C 1617.23 815.732 1572.75 755.099 1506.66 688.418 L 1517.82 677.73 z"/>
<path transform="translate(0,0)" fill="rgb(254,253,251)" d="M 473.908 675.236 C 479.489 678.184 485.086 680.808 490.898 683.268 C 486.559 686.997 482.401 690.729 478.711 695.117 C 471.542 703.642 465.257 713.412 460.327 723.395 C 438.965 766.647 413.294 860.479 417.454 908.435 C 418.607 921.723 421.692 939.293 432.764 948.016 C 439.673 953.459 446.81 954.034 455.264 953.207 C 449.978 958.606 444.683 964.331 438.774 969.041 C 430.7 975.477 420.798 980.518 410.175 979.096 C 403.27 978.171 397.927 974.225 393.876 968.704 C 381.853 952.315 379.732 932.512 382.467 912.998 C 385.642 890.339 393.414 868.254 399.009 846.095 C 412.901 791.084 426.347 711.199 473.908 675.236 z"/>
<path transform="translate(0,0)" fill="rgb(254,253,251)" d="M 930.599 1357.34 C 937.986 1356.4 945.784 1356.46 953.111 1357.84 C 981.646 1363.22 995.022 1381.22 1010.33 1403.92 C 1011.09 1430.72 1003.53 1455.14 995.814 1480.47 C 991.741 1475 987.165 1470.29 982.251 1465.58 C 978.619 1462.1 974.592 1458.89 970.57 1455.88 C 946.639 1437.94 919.007 1431.46 889.691 1435.79 C 896.437 1411.82 903.997 1383.07 919.263 1363.2 C 923.063 1358.26 924.583 1358.2 930.599 1357.34 z"/>
<path transform="translate(0,0)" fill="rgb(245,213,135)" d="M 1405.69 438.401 C 1424.77 434.821 1448.78 440.34 1466.21 448.07 C 1497.15 461.792 1523.51 487.688 1535.54 519.517 C 1547.52 551.197 1547.67 589.229 1533.6 620.285 A 127.656 127.656 0 0 1 1460.64 687.518 C 1428.85 699.096 1395.49 698.439 1364.73 683.709 C 1343.02 673.308 1336.91 663.168 1329.13 641.171 C 1348.6 663.418 1374.3 678.384 1404.05 680.756 C 1435.46 683.259 1463.4 671.719 1486.94 651.47 C 1493.14 645.369 1498.8 638.898 1503.73 631.715 C 1521.67 605.571 1527.21 574.376 1521.21 543.3 C 1515.6 514.251 1498 489.251 1473.59 472.767 C 1449.71 456.643 1419.48 449.663 1391.13 455.211 C 1362.54 460.806 1338.95 477.581 1322.96 501.895 C 1302.78 532.571 1301.09 564.761 1308.29 599.823 C 1302.3 587.772 1294.32 576.854 1287.81 565.073 C 1289.95 534.105 1298.07 508.1 1317.71 483.775 C 1341 454.931 1369.31 442.299 1405.69 438.401 z"/>
<path transform="translate(0,0)" fill="rgb(222,178,129)" d="M 727.824 102.425 C 729.907 102.123 731.857 102.242 733.951 102.313 C 733.062 104.786 718.786 112.243 715.806 114.328 A 171.125 171.125 0 0 0 698.467 128.203 C 661.249 162.492 638.018 196.599 623.649 245.318 A 239.616 239.616 0 0 0 610.082 245.138 C 579.225 245.637 552.06 259.253 530.757 281.211 L 528.939 283.13 C 527.598 281.522 527.933 282.383 527.73 280.246 C 524.481 246.102 543.803 210.767 564.617 185.226 C 604.359 136.458 666.047 108.574 727.824 102.425 z"/>
<path transform="translate(0,0)" fill="rgb(217,112,109)" d="M 828.348 1767.11 C 828.746 1765.86 829.099 1764.28 830.163 1763.39 C 831.598 1762.2 859.022 1753.43 866.421 1749.23 C 903.854 1727.93 955.621 1631.39 967.476 1589.04 C 980.359 1645.12 996 1701.39 1013.5 1756.18 C 974.712 1761.94 935.929 1766.92 896.657 1767.88 C 873.928 1768.44 850.962 1766.17 828.348 1767.11 z"/>
<path transform="translate(0,0)" fill="rgb(254,253,251)" d="M 751.716 410.271 C 756.779 417.431 758.387 436.357 761.218 445.536 C 768.234 468.287 778.179 490.123 788.055 511.73 C 757.656 515.993 728.311 519.693 698.748 528.472 A 609.926 609.926 0 0 0 666.56 538.931 C 660.604 541.095 646.847 548.755 641.419 548.07 L 638.596 543.484 C 627.297 525.545 611.492 509.156 597.683 493.086 C 641.596 458.823 697.592 424.467 751.716 410.271 z"/>
<path transform="translate(0,0)" fill="rgb(217,112,109)" d="M 1080.25 1501.86 C 1117.57 1527.25 1153.22 1556.67 1188.06 1585.41 C 1207.73 1601.63 1229.15 1617.88 1246.28 1636.81 C 1232.47 1656.71 1205.39 1681.6 1182.98 1691.22 C 1178.96 1687.95 1175.07 1681.97 1171.72 1677.91 C 1160.17 1663.89 1149.26 1649.4 1137.47 1635.56 A 3865.2 3865.2 0 0 0 1038 1524.41 A 203.977 203.977 0 0 0 1080.25 1501.86 z"/>
<path transform="translate(0,0)" fill="rgb(222,178,129)" d="M 1565.36 566.498 C 1594.31 565.487 1622.26 567.643 1650.82 572.295 C 1719.65 583.501 1790.23 608.47 1844.75 652.973 C 1856.73 662.753 1868.45 673.255 1877.53 685.851 C 1873.75 683.103 1869.82 680.627 1865.88 678.113 C 1804.27 642.511 1737.82 636.435 1668.16 635.678 C 1628.57 635.248 1589.12 636.605 1549.57 638.074 C 1560.75 614.185 1565.35 592.793 1565.36 566.498 z"/>
<path transform="translate(0,0)" fill="rgb(222,178,129)" d="M 758.628 101.107 C 804.674 100.326 842.912 112.142 882.926 134.093 A 272.854 272.854 0 0 0 710.32 230.633 C 698.745 245.43 688.955 260.616 680.953 277.631 C 666.572 260.813 652.767 251.397 631.309 245.905 A 196.055 196.055 0 0 1 640.88 218.315 C 663.044 166.672 706.359 122.065 758.628 101.107 z"/>
<path transform="translate(0,0)" fill="rgb(245,213,135)" d="M 589.976 498.883 C 594.819 503.604 598.968 510.179 602.997 515.636 C 612.178 528.071 621.137 540.852 631.51 552.333 C 623.341 554.915 616.043 558.031 609.638 563.888 C 598.891 573.718 594.403 587.521 594.048 601.759 C 593.805 611.517 595.093 622.67 602.428 629.819 C 607.563 634.824 614.762 637.002 621.832 636.625 C 633.412 636.008 644.269 628.557 651.705 620.028 C 660.471 609.973 666.656 595.85 665.424 582.375 C 664.376 570.898 657.944 563.885 649.69 556.728 C 701.055 535.999 739.765 531.144 793.764 522.776 L 814.797 556.606 A 1064.41 1064.41 0 0 0 847.127 601.282 C 763.839 594.804 683.309 619.893 608.412 654.058 C 601.638 645.17 596.642 634.664 591.443 624.809 C 575.911 595.369 563.193 566.19 552.121 534.812 C 564.1 522.3 576.599 509.899 589.976 498.883 z"/>
<path transform="translate(0,0)" fill="rgb(217,112,109)" d="M 1030.58 1526.76 A 3796.91 3796.91 0 0 1 1177.66 1696.8 C 1144.98 1719.36 1095.84 1736.37 1057.48 1746.87 C 1046.1 1749.98 1033.12 1750.97 1022.17 1754.91 C 1021.28 1746.94 1016.81 1737.47 1014.24 1729.75 A 727.146 727.146 0 0 1 1003.34 1694.13 C 992.18 1655.07 983.502 1615.4 972.365 1576.34 C 978.105 1564.36 981.893 1551.63 985.881 1539 C 1001.27 1536.35 1015.8 1531.66 1030.58 1526.76 z"/>
<path transform="translate(0,0)" fill="rgb(217,112,109)" d="M 1409.66 464.412 C 1429.7 464.801 1448.47 468.982 1465.66 479.639 C 1487.68 493.29 1504.58 517.711 1510.45 542.897 C 1516.68 569.585 1511.6 600.437 1496.84 623.538 C 1482.57 645.867 1458.15 662.82 1432.19 668.215 C 1402.95 674.294 1380.49 667.156 1356.06 651.26 L 1352.42 648.297 C 1331.02 630.716 1317.97 603.74 1315.38 576.301 C 1313.14 552.527 1318.84 521.989 1334.53 503.234 C 1334.34 507.751 1334.23 512.185 1334.87 516.681 A 44.5933 44.5933 0 0 0 1353.5 546.843 A 46.1273 46.1273 0 0 0 1389.54 554.142 C 1401.75 551.6 1413.09 544.211 1419.68 533.526 C 1426.3 522.804 1427.95 508.717 1424.71 496.587 C 1420.63 481.299 1409.3 473.259 1396.24 466.01 C 1400.67 465.262 1405.19 464.905 1409.66 464.412 z"/>
<path transform="translate(0,0)" fill="rgb(254,253,251)" d="M 887.409 1447.9 C 909.504 1441.35 931.561 1445.45 951.581 1456.43 A 135.991 135.991 0 0 1 991.35 1489.41 C 967.044 1559.88 937.899 1619.43 902.996 1684.96 C 895.781 1698.51 890.24 1714.38 880.671 1726.36 C 874.759 1733.76 866.49 1738.74 858.073 1742.81 C 845.909 1748.69 830.841 1754.06 817.161 1753.52 C 824.822 1746.55 833.325 1742.76 840.515 1734.6 C 828.863 1738.67 819.034 1745.55 806.91 1748.97 C 802.371 1749.05 795.607 1749.12 792.019 1745.95 C 792.031 1743.56 791.596 1744.37 793.165 1742.72 C 800.252 1735.26 814.49 1731.99 824.137 1722.19 C 812.465 1726.84 794.276 1738.11 781.582 1735.57 C 780.46 1734.51 779.622 1734.32 779.665 1732.63 C 779.824 1726.47 788.147 1718.82 792.625 1715.28 C 801.231 1708.47 812.222 1706.43 821.786 1701.56 C 831.493 1665.92 843.606 1631.13 852.461 1595.22 C 864.507 1546.37 873.249 1496.15 887.409 1447.9 z"/>
<path transform="translate(0,0)" fill="rgb(222,178,129)" d="M 1349.29 697.301 C 1373.14 710.449 1397.85 716.822 1425.07 717.138 C 1417.35 757.939 1407.88 798.709 1389.49 836.218 C 1379.76 856.067 1367.84 874.593 1357.3 893.983 C 1401.42 852.923 1428.12 775.584 1433.32 716.682 C 1445.36 715.441 1457.08 712.615 1468.85 709.884 C 1476.83 798.577 1463.42 887.973 1425.95 968.945 C 1409.5 1003.05 1392.18 1034.43 1367.96 1063.73 C 1359.5 1049.04 1351.28 1036.23 1338.84 1024.53 C 1360.05 1006.93 1375.41 984.194 1383.29 957.737 C 1377.96 965.189 1373.64 973.408 1368.46 980.986 C 1358.4 995.674 1346.56 1007.9 1333.38 1019.72 C 1314.34 1000.75 1285.44 987.28 1259.02 983.297 C 1278.3 965.071 1294.76 943.252 1309.05 920.923 C 1353.26 851.839 1366.83 777.418 1349.29 697.301 z"/>
<path transform="translate(0,0)" fill="rgb(222,178,129)" d="M 1597.05 294.583 C 1641.92 289.717 1690.61 299.178 1731.37 317.857 C 1750.76 326.742 1770.05 337.554 1787.07 350.402 C 1830.29 383.023 1872.75 436.446 1891.64 487.272 C 1882.22 477.628 1871.01 469.208 1860.09 461.308 C 1807.33 423.128 1748.52 408.319 1684.33 406.017 A 427.196 427.196 0 0 0 1496.03 447.343 A 249.969 249.969 0 0 0 1475.44 436.691 C 1438.86 420.265 1399.01 420.687 1361.89 435.015 A 191.191 191.191 0 0 1 1384.98 401.491 C 1439.19 337.097 1513.8 301.911 1597.05 294.583 z"/>
<path transform="translate(0,0)" fill="rgb(222,178,129)" d="M 1651.86 416.418 C 1701.36 411.263 1759.13 420.786 1804.85 440.326 C 1833.04 452.373 1892.19 488.33 1903.52 517.348 C 1907.42 527.342 1909.08 538.803 1910.87 549.374 C 1919.33 599.396 1919.68 655.746 1899.41 702.928 C 1882.28 675.713 1861.99 654.662 1836.53 635.186 C 1823.74 624.89 1807.64 616.696 1793.1 609.084 C 1719.94 570.784 1647.47 556.581 1565.22 558.052 C 1565.13 557.077 1565.04 556.101 1564.91 555.13 C 1559.19 510.999 1540.14 480.412 1505.48 453.407 C 1546.52 431.04 1605.28 419.682 1651.86 416.418 z"/>
<path transform="translate(0,0)" fill="rgb(222,178,129)" d="M 745.828 297.441 C 763.662 296.581 781.71 297.018 799.564 297.203 C 950.497 298.763 1122.36 338.683 1247.34 425.946 C 1268.25 440.546 1288.3 456.042 1306.17 474.304 C 1286.47 498.95 1277.98 521.843 1275.92 553.261 C 1245.21 506.939 1194.77 469.163 1147.67 440.924 C 1158.49 452.347 1171.66 462.175 1183.04 473.165 C 1222.27 511.065 1260.22 553.692 1286.18 602.025 C 1328.17 680.185 1348.08 759.564 1321.19 846.919 C 1314.35 869.126 1304.6 889.706 1293.41 909.979 C 1262.7 965.588 1235.35 992.01 1184.75 1029.47 C 1161.82 1046.45 1138.63 1061.9 1113.43 1075.27 C 1166.28 1022.68 1198.29 945.108 1210.43 872.269 C 1222.16 882.309 1234.12 892.226 1244.3 903.881 C 1254.21 915.232 1262.66 927.779 1272.45 939.242 C 1267.91 922.07 1259.26 914.431 1253.99 900.008 C 1251.54 893.295 1250.12 885.973 1248.13 879.091 A 444.13 444.13 0 0 0 1237.77 848.088 C 1216.8 790.888 1193.63 744.408 1159.59 694.087 C 1145.29 672.946 1131.62 653.489 1112.11 636.675 C 1116.92 644.853 1123.13 652.443 1128.52 660.27 A 657.557 657.557 0 0 1 1152.82 698.657 C 1186.58 756.171 1215.25 819.888 1239.53 882.003 C 1220.22 862.582 1200.99 842.989 1180.25 825.071 C 1154.92 803.19 1128.03 783.17 1102.78 761.158 C 1027.41 695.461 965.493 622.344 927.935 528.701 C 922.297 513.92 918.681 498.359 912.618 483.787 C 913.244 550.09 957.826 642.431 994.008 696.438 C 939.576 671.466 883.556 620.469 847.419 573.15 C 824.635 543.317 805.179 509.844 789.864 475.608 A 518.8 518.8 0 0 1 771.508 428.453 C 767.268 415.637 763.84 402.549 758.838 389.998 C 740.275 397.937 720.79 402.845 702.318 411.435 C 626.939 446.487 541.336 510.505 497.586 582.198 A 204.411 204.411 0 0 1 501.13 551.999 C 515.071 482.097 558.87 439.473 615.755 401.862 C 582.623 414.337 557.662 437.885 530.451 459.525 C 505.341 479.494 480.313 498.689 458.182 522.07 C 415.781 566.865 379.38 624.935 381.188 688.543 C 377.72 686.203 374.501 683.584 371.338 680.851 C 344.515 657.675 331.256 624.251 328.866 589.304 C 324.429 524.422 357.404 473.305 406.184 433.384 C 412.256 428.415 418.386 423.354 424.832 418.878 C 429.857 415.388 437.973 411.966 441.87 407.505 L 440.823 406.841 L 441.932 407.817 L 439.863 408.024 L 439.049 407.35 C 427.945 412.597 404.418 428.723 394.727 436.084 C 353.491 467.402 318.461 511.732 311.495 564.438 C 305.937 606.493 315.035 648.749 341.046 682.564 C 318.295 669.59 298.298 662.503 278.067 644.19 C 257.532 625.603 242.344 600.974 241.043 572.772 C 239.081 530.242 263.725 490.047 291.291 459.722 C 374.329 368.376 523.915 322.901 642.485 306.044 C 676.778 301.169 711.262 299.119 745.828 297.441 z"/>
<path transform="translate(0,0)" fill="rgb(254,253,251)" d="M 493.823 527.915 C 495.648 530.062 492.455 537.115 491.689 539.579 C 483.752 565.098 482.623 594.79 487.33 621.002 C 504.032 593.073 521.008 567.084 544.891 544.554 C 556.951 584.694 579.077 634.528 604.734 667.497 C 685.519 632.121 773.667 609.931 862.372 615.883 C 895.943 649.733 965.995 704.511 1012.72 712.758 C 1003.16 696.754 993.721 680.429 985.114 663.893 C 996.32 677.476 1006.75 692.04 1018.73 704.95 C 1073.67 764.19 1138.31 812.526 1199.5 864.773 C 1199.39 865.879 1199.29 866.987 1199.13 868.087 C 1188.18 944.96 1136.29 1048.33 1074.75 1095.99 C 1124.92 1089.05 1203.36 1030.93 1241.93 996.712 A 142.968 142.968 0 0 1 1277.39 1001.96 C 1306.05 1009.95 1330.62 1026.79 1345.31 1053.1 A 114.228 114.228 0 0 1 1354.66 1141.18 C 1343.41 1179.91 1314.69 1213.18 1279.36 1232.19 C 1242.8 1251.88 1194.49 1257.25 1154.68 1245.28 A 131.918 131.918 0 0 1 1097.1 1208.43 C 1091.38 1202.04 1086.41 1195.06 1080.48 1188.84 L 1079.62 1187.96 C 1082.38 1201.96 1087.37 1212.03 1095.09 1224 C 1077.08 1237.04 1056.87 1245.43 1036.33 1253.6 C 963.098 1282.75 878.226 1301.68 799.242 1302.49 C 663.35 1303.9 482.315 1256.16 383.296 1158.7 C 344.946 1120.96 314.531 1072.26 314.273 1016.97 C 314.055 970.47 337.717 935.455 369.472 903.594 C 370.12 922.705 369.749 941.17 377.987 958.894 C 382.974 969.623 390.924 980.162 402.583 983.964 C 412.007 987.038 421.841 985.403 430.502 980.87 C 440.53 975.622 448.787 967.04 456.403 958.844 C 487.574 925.304 498.17 893.431 511.78 850.932 C 528.256 799.482 546.432 713.172 520.505 663.807 C 514.881 653.101 506.333 643.351 494.38 639.846 C 483.25 636.583 470.855 639.404 460.997 645.104 C 432.659 661.49 428.449 692.523 419.344 720.643 C 414.85 734.523 409.507 747.632 405.832 761.819 A 111.738 111.738 0 0 1 405.771 759.669 C 405.417 741.663 406.959 723.267 409.11 705.398 C 415.576 651.665 429.502 614.578 460.38 570.013 C 470.706 555.11 481.281 541.08 493.823 527.915 z"/>
<path transform="translate(0,0)" fill="rgb(111,38,51)" d="M 469.41 971.207 L 471.905 970.973 C 472.131 971.168 472.385 971.334 472.581 971.559 C 474.678 973.964 475.478 979.666 475.498 982.829 C 475.518 986.071 474.815 988.076 472.647 990.433 C 469.873 990.776 469.368 990.493 466.773 989.359 C 464.137 986.964 461.122 984.326 458.91 981.547 C 457.226 979.43 457.025 978.468 457.4 975.849 C 460.277 972.668 465.366 972.252 469.41 971.207 z"/>
<path transform="translate(0,0)" fill="rgb(111,38,51)" d="M 1269.61 1063.41 C 1280.55 1063.13 1290.61 1064.57 1299.38 1071.62 C 1309.71 1079.91 1316.53 1095.59 1318.01 1108.64 L 1317.16 1109.08 C 1312.82 1105.48 1309.93 1100.24 1306.7 1095.66 C 1299.03 1084.78 1293.69 1078.14 1279.59 1075.99 C 1255.6 1072.33 1225.63 1087.95 1206.76 1101.4 C 1217.89 1101.3 1229.35 1101.56 1239.91 1105.46 C 1250.9 1109.51 1259.56 1117.49 1264.03 1128.36 C 1268.47 1139.14 1267.5 1150.76 1262.75 1161.27 C 1255.12 1178.18 1239.34 1189.08 1222.47 1195.47 L 1232.56 1187.82 C 1243.18 1179.04 1252.64 1168.18 1255.73 1154.35 A 33.8407 33.8407 0 0 0 1250.74 1127.76 C 1245.08 1119.46 1236.27 1114.84 1226.54 1113.07 C 1191.95 1106.8 1177.63 1128.52 1168.01 1157.92 C 1166.39 1162.87 1164.84 1171.52 1160.59 1174.44 L 1162.1 1174.24 L 1160.77 1175.16 C 1160.11 1173.83 1159.82 1172.78 1159.69 1171.3 C 1157.68 1149.62 1169.57 1126.4 1183.14 1110.26 C 1203.9 1085.56 1237.23 1066.23 1269.61 1063.41 z"/>
<path transform="translate(0,0)" fill="rgb(111,38,51)" d="M 456.398 1020.25 C 470.685 1024.36 483.776 1030.98 498.548 1034.32 C 509.46 1036.79 533.599 1037.47 540.862 1040.24 C 542.732 1042.21 543.673 1043.89 543.983 1046.59 C 545.827 1062.67 535.05 1083.15 525.792 1095.64 C 522.644 1099.72 518.972 1103.49 514.716 1106.44 C 508.26 1110.9 501.03 1113.04 493.241 1111.31 C 482.477 1108.93 474.326 1100.72 468.849 1091.53 C 457.79 1072.96 451.203 1041.37 456.398 1020.25 z"/>
<path transform="translate(0,0)" fill="rgb(225,133,120)" d="M 492.986 1045.99 C 505.355 1044.56 522.386 1047.77 535.2 1048.68 C 530.749 1066.89 524.816 1084.08 510.843 1097.17 C 509.454 1097.92 508.027 1098.68 506.533 1099.2 A 17.3522 17.3522 0 0 1 493.041 1098.18 C 480.557 1091.87 474.539 1074.59 470.559 1062.13 C 477.464 1055.39 484.552 1050.64 492.986 1045.99 z"/>
<path transform="translate(0,0)" fill="rgb(111,38,51)" d="M 670.727 809.046 C 679.749 772.148 720.695 729.933 752.389 710.663 A 180.654 180.654 0 0 1 888.991 690.736 C 922.006 699.097 950.677 717.281 975.29 740.475 C 980.709 745.581 986.016 750.938 990.733 756.706 C 996.171 763.355 1002.25 773.605 1008.97 778.713 C 1010.53 779.901 1012.56 780.267 1014.4 780.799 C 1023.97 783.575 1041.15 785.735 1048.76 789.667 L 1049.63 791.559 C 1048.62 793.504 1048.62 793.675 1046.6 794.315 C 1037.47 797.208 1022.19 792.071 1013.34 789.081 L 1030.23 828.873 C 1040.92 836.33 1052.44 843.54 1065.36 846.179 C 1069.71 847.068 1077.27 847.353 1079.38 851.619 C 1077.68 853.822 1076.77 854.339 1073.98 854.797 C 1060.97 856.938 1043.64 847.544 1033.7 839.7 C 1038.65 857.13 1040.39 874.838 1041.15 892.911 C 1049.49 897.917 1057.82 901.484 1067.41 903.389 C 1071.35 904.172 1075.57 904.337 1079.38 905.583 L 1079.66 906.915 C 1075.94 910.198 1070.42 911.609 1065.52 911.308 C 1056.2 910.737 1047.96 905.304 1040.95 899.578 C 1040.48 965.953 1011.43 1035.58 964.48 1082.21 C 950.874 1095.72 935.808 1105.52 919.366 1115.17 C 924.406 1119.66 928.339 1122.84 930.295 1129.57 L 929.941 1131.78 C 927.092 1132.56 924.685 1131.22 922.212 1129.76 C 916.982 1126.69 912.31 1122.84 907.259 1119.52 C 897.929 1123.2 888.571 1127.11 878.848 1129.63 C 839.276 1139.9 794.448 1135.91 756.995 1119.74 C 725.977 1106.35 699.43 1085.67 680.238 1057.76 C 676.457 1052.26 671.685 1045.46 669.468 1039.15 C 668.924 1037.6 668.95 1037.47 668.711 1036.09 C 668.327 1033.54 666.086 1030.79 664.898 1028.39 A 228.418 228.418 0 0 1 651.068 863.564 C 656.298 845.252 664.437 828.24 670.337 810.255 L 670.727 809.046 z"/>
<path transform="translate(0,0)" fill="rgb(199,194,196)" d="M 730.544 752.519 C 750.981 734.121 791.363 723.872 818.213 722.086 C 864.295 719.021 908.503 733.363 943.481 763.926 C 923.829 753.539 907.844 751.087 886.03 748.956 C 882.063 746.559 877.013 745.61 872.55 744.407 C 839.111 735.392 798.361 735.734 764.583 743.656 C 754.531 746.014 740.65 753.993 730.544 752.519 z"/>
<path transform="translate(0,0)" fill="rgb(217,112,109)" d="M 757.028 923.865 C 765.125 924.854 773.091 926.177 781.108 927.677 C 780.185 941.536 780.178 955.304 782.881 968.985 C 788.515 997.502 804.065 1022.08 828.501 1038.05 A 103.533 103.533 0 0 0 907.96 1052.87 C 950.301 1043.93 979.992 1012.32 1002.53 977.352 C 999.483 989.422 995.342 1000.27 989.879 1011.45 C 977.902 1035.65 959.354 1063.19 936.43 1078.32 C 910.029 1095.76 873.318 1101.06 842.668 1094.46 C 814.714 1088.44 788.06 1071.23 772.694 1046.88 C 750.347 1011.46 747.987 963.772 757.028 923.865 z"/>
<path transform="translate(0,0)" fill="rgb(254,253,251)" d="M 876.735 779.247 C 889.798 777.825 904.459 779.863 915.974 786.444 C 926.46 792.437 933.543 802.253 936.432 813.931 C 940.446 830.15 936.863 847.468 927.988 861.47 C 913.016 885.092 885.647 901.002 858.798 906.815 C 843.131 908.459 827.754 906.691 814.276 897.893 C 804.411 891.453 797.613 881.862 795.652 870.163 C 792.957 854.086 800.276 834.818 809.379 821.733 C 825.96 797.9 848.587 784.458 876.735 779.247 z"/>
<path transform="translate(0,0)" fill="rgb(134,77,79)" d="M 917.836 774.079 C 919.435 774.31 920.98 774.547 922.545 774.961 C 948.081 781.719 968.506 805.335 981.617 827.153 C 1001.36 859.999 1012.95 912.495 1003.1 950.033 C 994.521 982.74 965.488 1015.24 936.533 1031.74 C 912.676 1045.33 885.354 1049.29 858.761 1041.89 C 833.848 1034.96 814.214 1017.75 801.725 995.433 C 790.419 970.127 789.022 948.257 789.829 920.957 C 779.648 917.918 770.205 916.231 759.588 915.744 C 765.883 894.714 775.988 873.653 784.877 853.605 C 785.204 867.808 786.896 880.758 795.257 892.776 C 804.454 905.995 819.851 913.894 835.473 916.521 C 860.731 920.77 886.286 911.255 906.663 896.665 C 926.788 882.254 943.591 862.374 947.509 837.22 C 950.683 816.836 944.089 801.234 929.848 786.808 C 926.245 783.16 921.606 779.588 918.703 775.378 C 918.408 774.949 918.125 774.512 917.836 774.079 z"/>
<path transform="translate(0,0)" fill="rgb(254,253,251)" d="M 730.544 752.519 C 740.65 753.993 754.531 746.014 764.583 743.656 C 798.361 735.734 839.111 735.392 872.55 744.407 C 877.013 745.61 882.063 746.559 886.03 748.956 C 844.373 754.196 813.274 775.193 787.667 808.17 C 749.808 856.926 727.482 926.696 735.251 988.318 C 739.725 1023.81 755.98 1057.72 784.694 1079.94 C 812.882 1101.75 847.207 1111.44 882.576 1106.85 C 905.362 1103.9 923.919 1094.46 943.359 1082.76 C 913.456 1112.24 869.289 1125.59 827.971 1125.17 C 779.114 1124.67 729.59 1104.17 695.467 1069.22 C 685.414 1058.92 677.389 1047.48 668.711 1036.09 C 668.327 1033.54 666.086 1030.79 664.898 1028.39 A 228.418 228.418 0 0 1 651.068 863.564 C 656.298 845.252 664.437 828.24 670.337 810.255 L 670.727 809.046 C 688.056 788.088 707.097 766.711 730.544 752.519 z"/>
</svg>