<svg version="1.1" xmlns="http://www.w3.org/2000/svg" style="display: block;" viewBox="0 0 2048 2048" width="1024" height="1024">
<defs>
	<linearGradient id="Gradient1" gradientUnits="userSpaceOnUse" x1="492.355" y1="592.076" x2="1567.65" y2="1233.74">
		<stop class="stop0" offset="0" stop-opacity="1" stop-color="rgb(220,171,203)"/>
		<stop class="stop1" offset="1" stop-opacity="1" stop-color="rgb(255,255,255)"/>
	</linearGradient>
</defs>
<path transform="translate(0,0)" fill="rgb(254,254,254)" d="M 0 0 L 2048 0 L 2048 2048 L 0 2048 L 0 0 z"/>
<path transform="translate(0,0)" fill="rgb(110,43,97)" d="M 599.404 79.4702 A 513.42 513.42 0 0 1 638.146 80.828 C 724.323 87.6003 807.422 129.513 875.435 180.963 C 895.769 196.345 915.38 212.364 932.025 231.789 C 944.74 223.558 957.549 215.372 969.953 206.678 C 987.328 194.499 1033.03 160.143 1051.02 154.076 C 1054.19 153.009 1055.21 153.104 1058.17 154.557 C 1058.99 155.808 1059.73 156.958 1059.97 158.472 C 1062.95 177.323 1032.89 225.483 1021.14 240.969 C 1053.22 230.374 1086.58 223.227 1120.45 222.665 C 1126.9 222.558 1134.5 221.785 1140.52 224.349 C 1142.42 226.419 1142.34 226.309 1142.35 229.129 C 1136.39 241.121 1109.39 258.634 1098.06 267.776 C 1116.97 270.484 1135.91 272.289 1154.76 275.648 A 819.438 819.438 0 0 1 1347.06 335.274 A 872.883 872.883 0 0 1 1680.95 608.436 C 1692.5 624.051 1704.52 639.444 1714.69 656.017 C 1736.84 692.113 1753.53 729.116 1768.29 768.73 C 1773.74 766.652 1779.42 764.916 1785.04 763.37 C 1793.42 761.07 1805.59 757.176 1813.63 761.737 C 1815.3 764.163 1815.85 764.807 1815.64 767.893 C 1814.91 778.446 1792.56 799.087 1784.44 805.56 C 1791.79 810.334 1799.83 814.173 1807.4 818.601 C 1817.17 824.313 1833.76 835.303 1836.83 846.706 C 1836.25 849.367 1836.27 850.116 1833.78 851.638 C 1825.41 856.736 1803.82 851.095 1795.22 847.728 C 1796.86 858.7 1800.19 888.715 1795.85 898.196 C 1795.07 899.884 1795.53 899.28 1793.51 899.948 C 1790.14 897.376 1785.08 875.281 1783.55 870.001 C 1782.25 883.707 1781.33 897.629 1778.05 911.035 C 1767.71 953.292 1744.94 987.433 1717.97 1020.67 C 1706.54 1034.75 1694.97 1048.92 1682.28 1061.9 C 1630.33 1115.04 1565.35 1157.53 1501.19 1194.37 C 1480.35 1206.34 1458.29 1216.31 1437.8 1228.81 C 1449.07 1246.62 1463.6 1262.67 1475.73 1279.97 C 1495.46 1308.12 1512.28 1339.14 1527.74 1369.79 C 1566.58 1446.78 1598.32 1552.74 1569.76 1637.78 C 1559.8 1667.44 1537.05 1694.55 1508.88 1708.38 C 1492.08 1774.53 1458.16 1833.75 1414.81 1885.92 C 1424.22 1888.77 1433.7 1891.94 1442.87 1895.49 C 1474.74 1907.83 1497.1 1926.27 1511.08 1957.72 C 1424.55 1966.99 1336.02 1972.1 1249 1968.36 C 1220.08 1967.12 1191.51 1965.69 1163.05 1960.05 C 1168.01 1936.84 1177.58 1913.33 1186.11 1891.22 C 1179.22 1893.05 1172.03 1893.91 1165.22 1896.04 C 1145.25 1902.27 1106.63 1961.02 1096.54 1980.77 C 1022.59 1994.61 940.921 1990.6 866.027 1986.84 C 837.226 1984.91 804.468 1983.51 776.508 1976.71 C 772.762 1975.8 769.311 1975.11 767.225 1971.7 C 767.35 1970.44 767.458 1969.27 767.891 1968.07 C 774.696 1949.11 806.109 1931.88 823.356 1924.09 C 816.221 1916.82 810.136 1908.91 803.937 1900.85 C 756.688 1901.4 710.313 1898.55 672.411 1866.77 C 664.519 1860.15 648.41 1845.94 648.521 1834.84 C 648.545 1832.4 649.558 1830.28 651.56 1828.86 C 657.877 1824.36 670.237 1822.9 677.839 1820.44 C 700.087 1813.27 718.34 1802.38 736.193 1787.42 C 729.752 1770.32 723.351 1753.14 717.98 1735.67 C 713.544 1721.23 710.066 1706.43 705.295 1692.12 C 700.476 1677.65 692.613 1665 690.299 1649.64 C 675.769 1553.13 746.734 1419.43 802.818 1344.23 C 686.409 1335.63 554.014 1306.61 449.5 1253.2 C 440.061 1270.55 430.724 1290.18 416.354 1303.96 C 412.789 1307.38 407.778 1311.87 402.473 1311.44 C 400.519 1311.28 398.616 1309.88 397.501 1308.29 C 388.654 1295.63 391.489 1253.84 394.414 1238.54 C 372.001 1249.79 346.309 1264.58 321.296 1268.22 C 315.899 1269 310.532 1269.66 305.985 1266.2 C 304.876 1264.33 304.368 1262.98 304.555 1260.76 C 306.2 1241.24 340.261 1205.91 354.524 1193.5 C 333.636 1189.23 302.749 1187.99 284.601 1176.92 C 281.844 1175.24 279.791 1173.56 278.973 1170.3 C 279.237 1168.64 279.452 1167.43 280.593 1166.11 C 292.321 1152.5 351.071 1142.53 368.769 1141.35 C 346.595 1084.07 336.014 1036.65 336.041 975.146 C 336.117 803.574 424.848 618.618 544.944 498.586 C 519.146 490.131 494.964 477.038 469.762 466.889 C 377.27 429.643 249.822 382.126 176.235 314.176 C 166.057 304.778 156.102 295.148 148.831 283.264 C 167.537 259.203 248.626 243.756 279.449 239.048 A 461.338 461.338 0 0 1 497.016 256.77 C 516.333 263.326 535.022 271.709 553.608 280.073 A 808.692 808.692 0 0 1 702.407 368.411 C 720.598 355.321 739.893 343.944 759.09 332.415 C 768.277 326.898 778.297 321.787 786.795 315.265 C 775.7 301.846 763.058 289.257 750.725 276.968 C 698.637 225.062 641.418 184.16 576.264 150.249 C 555.219 139.297 533.331 130.077 511.945 119.821 C 507.146 117.52 498.174 113.67 496.876 107.917 C 496.28 105.272 497.192 103.175 498.79 101.115 C 506.16 91.6184 549.265 83.4644 561.208 81.9819 C 573.904 80.4058 586.629 79.9015 599.404 79.4702 z"/>
<path transform="translate(0,0)" fill="rgb(254,254,254)" d="M 1780.13 812.731 C 1792 819.221 1805.3 832.203 1814.5 841.911 C 1803.31 839.639 1792.51 834.946 1782.57 829.412 C 1781.04 823.826 1780.42 818.483 1780.13 812.731 z"/>
<path transform="translate(0,0)" fill="rgb(254,254,254)" d="M 1799.68 768.244 L 1800.19 768.501 L 1799.98 769.888 C 1795.24 774.096 1778.77 793.974 1776.12 795.478 C 1775.52 795.821 1774.74 795.653 1774.05 795.741 C 1772.4 789.291 1771.19 782.673 1769.81 776.157 C 1779.87 773.776 1789.82 771.362 1799.68 768.244 z"/>
<path transform="translate(0,0)" fill="rgb(220,170,201)" d="M 1398.28 1903.65 C 1419.38 1907.22 1439.8 1913.56 1458.2 1924.64 C 1463.46 1927.81 1478.05 1936.45 1479.55 1942.43 L 1477.25 1943.01 C 1465.47 1942.95 1453.69 1943.55 1441.91 1944.02 C 1427.1 1925.47 1414.04 1921.09 1393.75 1910.28 C 1394 1907.55 1396.5 1905.69 1398.28 1903.65 z"/>
<path transform="translate(0,0)" fill="rgb(254,254,254)" d="M 171.819 285.762 C 174.317 284.334 176.865 283.1 179.505 281.96 C 185.53 279.358 203.11 270.914 209.059 273.263 C 224.666 289.722 233.949 307.392 233.206 330.536 C 233.157 332.05 233.017 333.524 232.856 335.029 C 212.664 318.051 191.141 304.041 171.819 285.762 z"/>
<path transform="translate(0,0)" fill="rgb(220,170,201)" d="M 873.666 1930.39 C 882.417 1928.75 892.894 1929.74 901.804 1930.09 C 887.278 1939.53 878.393 1950.94 870.321 1966.15 C 857.162 1965.95 843.886 1964.7 830.753 1963.8 A 992.667 992.667 0 0 0 799.404 1961.72 C 821.035 1943.83 845.922 1933.77 873.666 1930.39 z"/>
<path transform="translate(0,0)" fill="rgb(220,170,201)" d="M 916.562 1930.86 C 953.743 1936.61 984.266 1948.05 1015.72 1968.93 C 1002.68 1969.04 989.634 1969.7 976.589 1969.85 C 943.889 1968.57 911.155 1968.36 878.452 1967.05 C 888.635 1953.38 902.286 1940.17 916.562 1930.86 z"/>
<path transform="translate(0,0)" fill="rgb(254,254,254)" d="M 1489.96 532.298 C 1493.16 532.179 1496.38 532.406 1499.5 533.196 C 1516.93 537.613 1545.91 565.639 1554.83 580.953 C 1557.75 585.966 1560.3 592.368 1558.39 598.203 C 1556.76 603.187 1553.42 605.331 1548.99 607.695 C 1541.71 607.471 1535.47 605.97 1528.85 602.97 C 1508.76 593.862 1486.79 574.653 1479.42 553.323 C 1477.89 548.913 1477.22 544.354 1479.46 540.06 C 1481.84 535.516 1485.25 533.778 1489.96 532.298 z"/>
<path transform="translate(0,0)" fill="rgb(254,254,254)" d="M 1517.41 510.815 C 1526.34 514.462 1534.25 518.398 1542.36 523.683 C 1573.98 544.29 1651.31 609.517 1671.56 640.894 C 1671.63 641.409 1671.68 641.926 1671.76 642.439 C 1672.15 644.958 1673.45 645.975 1674.63 648.094 C 1674.72 648.251 1674.68 648.45 1674.7 648.628 L 1673.58 650.059 L 1669.89 648.191 L 1669.51 649.593 L 1668.16 649.048 L 1666.35 650.314 C 1665.93 650.174 1665.52 650.023 1665.09 649.893 C 1657.56 647.571 1647.03 649.343 1639.75 651.564 C 1637.66 652.201 1638.81 651.928 1636.7 652.18 C 1635.08 652.373 1634.25 652.998 1632.92 653.883 C 1608.65 604.419 1560.79 544.273 1517.41 510.815 z"/>
<path transform="translate(0,0)" fill="rgb(220,170,201)" d="M 744.215 1807.02 C 747.515 1809.57 784.627 1875.43 789.01 1882.92 C 766.274 1881.89 745.299 1880.66 723.347 1874.09 C 703.361 1866.92 686.097 1853.77 669.855 1840.4 C 700.894 1830.49 716.184 1825.14 744.215 1807.02 z"/>
<path transform="translate(0,0)" fill="rgb(254,254,254)" d="M 602.383 324.553 C 627.35 335.88 664.627 362.647 687.397 379.511 C 677.802 385.568 668.922 393.197 659.82 399.995 C 631.175 421.39 604.189 443.245 577.64 467.218 C 571.949 472.378 566.524 477.917 560.992 483.254 C 544.873 477.622 529.118 470.784 513.077 464.874 C 547.058 450.101 573.189 437.715 592.543 404.244 C 607.671 378.08 610.238 353.422 602.383 324.553 z"/>
<path transform="translate(0,0)" fill="rgb(254,254,254)" d="M 842.86 175.341 C 871.154 194.449 896.051 216.087 920.873 239.461 C 888.395 261.234 852.2 279.372 817.897 298.121 C 812.878 301.087 807.789 303.867 802.65 306.616 C 794.644 299.392 787.522 290.85 780.105 282.994 A 1539.61 1539.61 0 0 0 749.11 251.544 C 779.017 247.372 808.937 241.389 829.504 216.991 C 839.832 204.741 844.101 191.317 842.86 175.341 z"/>
<path transform="translate(0,0)" fill="rgb(254,254,254)" d="M 600.185 94.436 C 622.682 93.4272 646.644 95.8959 668.762 100.039 C 685.212 103.121 696.058 110.799 705.251 124.976 C 711.058 133.932 712.83 143.927 710.448 154.339 C 706.072 173.46 692.361 183.3 676.758 192.935 C 668.3 186.261 659.429 180.333 650.434 174.424 C 609.293 148.409 564.948 125.234 519.54 107.641 C 545.971 99.8159 572.662 95.6795 600.185 94.436 z"/>
<path transform="translate(0,0)" fill="rgb(254,254,254)" d="M 214.375 270.906 C 218.264 267.776 226.038 266.689 230.973 265.466 C 263.88 257.314 299.103 251.512 333.094 251.963 C 347.11 277.881 348.196 304.408 339.862 332.489 C 334.551 350.388 326.066 367.055 311.008 378.606 A 906.944 906.944 0 0 1 269.22 356.577 C 259.108 350.772 248.826 343.518 238.225 338.855 C 235.379 338.351 234.516 337.177 232.856 335.029 C 233.017 333.524 233.157 332.05 233.206 330.536 C 233.949 307.392 224.666 289.722 209.059 273.263 C 210.816 272.116 212.401 271.621 214.375 270.906 z"/>
<path transform="translate(0,0)" fill="rgb(101,28,86)" d="M 209.059 273.263 C 210.816 272.116 212.401 271.621 214.375 270.906 C 230.001 286.75 239.301 302.829 239.2 325.594 C 239.181 329.978 238.967 334.535 238.225 338.855 C 235.379 338.351 234.516 337.177 232.856 335.029 C 233.017 333.524 233.157 332.05 233.206 330.536 C 233.949 307.392 224.666 289.722 209.059 273.263 z"/>
<path transform="translate(0,0)" fill="rgb(254,254,254)" d="M 700.2 107.983 C 738.397 119.16 808.595 145.391 836.814 173.104 C 837.537 181.434 837.128 188.836 834.134 196.736 C 826.803 216.086 809.425 227.627 791.262 235.542 C 775.768 241.45 760.584 243.179 744.457 246.163 C 724.086 228.902 703.563 212.432 681.832 196.896 C 687.101 193.999 692.253 191.154 696.925 187.327 C 708.354 177.967 716.176 164.107 717.152 149.256 C 718.255 132.463 710.775 120.086 700.2 107.983 z"/>
<path transform="translate(0,0)" fill="rgb(220,170,201)" d="M 1414.38 1237.69 C 1414.84 1237.96 1415.34 1238.19 1415.78 1238.51 C 1422.92 1243.71 1437.97 1267.34 1443.62 1275.5 C 1491.49 1344.65 1533.51 1419.44 1550.49 1502.72 C 1557.94 1539.31 1559.48 1593.84 1548.18 1629.74 C 1544.49 1641.46 1538.93 1651.75 1532.16 1661.94 C 1526.37 1670.44 1519.66 1678.34 1513.21 1686.34 C 1530.59 1567.69 1503.21 1438.08 1457.79 1328.48 C 1449.78 1309.14 1440.13 1290.55 1430.6 1271.93 C 1425.33 1261.61 1417.41 1249.61 1414.56 1238.49 C 1414.49 1238.23 1414.44 1237.96 1414.38 1237.69 z"/>
<path transform="translate(0,0)" fill="rgb(254,254,254)" d="M 340.039 252.044 C 383.88 250.229 425.246 256.839 467.544 267.848 C 471.899 280.615 474.731 291.902 473.996 305.471 C 472.093 340.569 451.105 375.024 425.35 397.901 C 415.505 405.713 404.447 411.283 392.831 415.918 C 367.371 406.084 342.313 394.383 317.525 382.955 C 329.489 370.6 337.657 358.515 343.543 342.213 C 354.682 311.368 354.103 281.618 340.039 252.044 z"/>
<path transform="translate(0,0)" fill="rgb(254,254,254)" d="M 474.966 270.363 C 516.018 280.417 557.211 299.735 594.434 319.42 C 601.745 341.716 603.942 362.52 595.196 384.753 C 581.352 419.949 553.381 440.929 519.751 455.55 C 515.421 457.337 511.405 459.561 507.305 461.807 C 490.229 454.008 472.266 447.894 454.76 441.115 A 1909.81 1909.81 0 0 1 402.977 419.593 C 431.003 405.741 452.836 383.267 466.604 355.199 C 479.822 328.251 484.913 299.089 474.966 270.363 z"/>
<path transform="translate(0,0)" fill="rgb(254,254,254)" d="M 1554.7 561.412 C 1568.3 575.425 1579.81 591.538 1590.7 607.685 C 1617.42 647.308 1641.91 692.52 1643.39 741.52 C 1643.86 757.213 1641.4 775.324 1629.83 786.946 C 1620.63 796.181 1606.53 799.555 1593.83 799.758 C 1561.16 800.28 1530.03 776.001 1507.87 754.355 C 1458.38 705.986 1391.81 606.812 1391.45 536.598 C 1391.39 522.852 1395.44 507.721 1405.62 497.993 C 1413.23 490.729 1422.92 488.469 1433.18 488.61 C 1467.25 489.078 1505.92 511.272 1528.83 535.439 L 1529.8 536.475 L 1528.99 536.001 C 1512.37 526.14 1485.82 502.109 1464.48 508.137 C 1457.64 510.07 1452.59 514.5 1449.46 520.839 C 1440.32 539.411 1449.11 569.609 1455.75 587.79 C 1462.84 607.218 1473.32 629.408 1485.57 646.227 C 1496.12 639.457 1515.09 626.284 1528.39 629.358 C 1530.59 629.867 1532.62 631.023 1533.9 632.935 C 1535.28 635.009 1535.18 637.684 1534.5 639.983 C 1530.82 652.271 1512.1 661.036 1501.7 666.703 C 1519.89 688.904 1550.72 722.406 1580.91 724.914 C 1588.05 725.508 1594.93 723.979 1600.33 719.066 C 1608.12 711.974 1610.81 700.472 1610.92 690.326 C 1611.3 654.834 1591.46 614.599 1572.08 585.391 C 1566.79 577.412 1558.62 570.117 1554.7 561.412 z"/>
<path transform="translate(0,0)" fill="rgb(254,254,254)" d="M 1479.27 1593.02 L 1480.23 1593.87 C 1480.4 1595.16 1480.56 1596.34 1480.51 1597.65 C 1478.42 1657 1458.99 1725.86 1414.79 1767.44 C 1364.36 1814.87 1275.5 1829.38 1208.22 1826.91 C 1160.41 1825.16 1115.88 1812 1082.67 1776.23 C 1055.56 1746.13 1045.9 1706.49 1040.53 1667.47 C 1060.3 1669.69 1079.44 1675.21 1099.43 1676.84 A 674.316 674.316 0 0 0 1405.81 1627.8 C 1430.93 1617.46 1454.44 1603.91 1479.27 1593.02 z"/>
<path transform="translate(0,0)" fill="rgb(254,254,254)" d="M 1144.34 1318.4 C 1163.67 1313.91 1183.3 1310.43 1202.68 1306.1 C 1256.98 1293.98 1329.47 1274.99 1379.87 1252.15 C 1392.65 1272.38 1401.06 1295.03 1413.5 1315.24 L 1415.1 1315.15 C 1427.69 1340.79 1442.59 1376.67 1451.07 1403.61 C 1452.53 1408.27 1452.57 1413.09 1453.99 1417.62 C 1350.53 1468.41 1216.43 1500.28 1101.12 1499.98 C 1086.88 1499.95 1072.22 1500.13 1058.03 1498.65 L 1056.16 1497.88 C 1059.89 1490.08 1061.62 1479.33 1064.13 1470.92 C 1069.33 1453.48 1075.3 1436.43 1083 1419.92 L 1084.37 1420.09 C 1091.54 1408.89 1096.44 1394.73 1102.59 1382.75 C 1114.38 1359.8 1128.65 1338.82 1144.34 1318.4 z"/>
<path transform="translate(0,0)" fill="rgb(101,28,86)" d="M 1413.5 1315.24 L 1415.1 1315.15 C 1427.69 1340.79 1442.59 1376.67 1451.07 1403.61 C 1452.53 1408.27 1452.57 1413.09 1453.99 1417.62 C 1350.53 1468.41 1216.43 1500.28 1101.12 1499.98 C 1086.88 1499.95 1072.22 1500.13 1058.03 1498.65 L 1056.16 1497.88 C 1059.89 1490.08 1061.62 1479.33 1064.13 1470.92 C 1069.33 1453.48 1075.3 1436.43 1083 1419.92 L 1084.37 1420.09 C 1074.89 1444.16 1066.72 1468.03 1059.32 1492.83 C 1170.29 1504.95 1354.16 1464.48 1451.83 1411.54 C 1441.4 1378.61 1426.97 1346.99 1413.5 1315.24 z"/>
<path transform="translate(0,0)" fill="rgb(254,254,254)" d="M 1453.99 1417.62 C 1471.4 1460.53 1480.77 1536.06 1481.5 1582.94 C 1465.04 1592.41 1448.68 1602.03 1431.45 1610.05 C 1343.79 1650.89 1229.58 1676.7 1132.8 1672.81 C 1101.46 1671.55 1070.85 1666.6 1040.07 1660.9 C 1037.19 1616.71 1042.05 1573.25 1050.1 1529.84 C 1051.9 1520.12 1053.34 1507.31 1058.03 1498.65 C 1072.22 1500.13 1086.88 1499.95 1101.12 1499.98 C 1216.43 1500.28 1350.53 1468.41 1453.99 1417.62 z"/>
<path transform="translate(0,0)" fill="rgb(220,170,201)" d="M 1392.11 1247.02 C 1393.5 1248.4 1394.31 1249.86 1395.32 1251.52 C 1406.49 1269.85 1415.36 1289.32 1424.35 1308.77 C 1441.96 1346.88 1457.26 1385.28 1468.98 1425.66 C 1492.49 1506.67 1506.95 1620.46 1486.5 1703.61 C 1471.68 1763.88 1440.32 1820.12 1402.78 1869.08 C 1386.67 1890.11 1370.03 1910.15 1347.08 1923.96 L 1348.44 1923.91 C 1373.47 1923.15 1400.26 1927.04 1419.06 1944.83 C 1393.46 1947.67 1366.89 1947.54 1341.13 1948 C 1290.4 1948.9 1239.19 1949 1188.63 1944.27 C 1196.55 1925.89 1202.6 1906.66 1208.84 1887.67 C 1259.37 1875.3 1295.58 1861.7 1341.9 1837.93 C 1284.77 1850.54 1227.5 1861.61 1170.14 1873.01 C 1163.38 1874.35 1155.48 1876.15 1149.51 1879.71 C 1126.49 1893.46 1096.25 1939.17 1081.18 1961.57 C 1063.2 1964.41 1045.23 1965.69 1027.07 1966.65 C 1018.82 1958.65 1009.83 1951.09 1000.33 1944.61 C 957.017 1915.11 897.916 1909.42 847.568 1919.16 C 792.449 1863.32 754.244 1783.48 730.841 1709.38 C 736.577 1712.78 742.375 1715.59 748.796 1717.41 C 777.522 1725.58 813.142 1717.58 838.605 1703.04 C 897.217 1669.58 931.843 1601.06 958.328 1541.59 C 968.003 1519.86 977.407 1497.99 985.107 1475.48 C 994.307 1448.57 1001.53 1421.09 1008.93 1393.66 C 997.009 1422.29 980.599 1449.7 966.985 1477.66 A 1921.8 1921.8 0 0 1 920.248 1569.94 C 907.777 1593.31 895.731 1617.25 879.66 1638.4 C 851.776 1675.1 819.454 1694.76 773.95 1701.12 C 795.602 1684.9 809.963 1667.82 818.731 1641.99 C 803.261 1659.81 785.766 1691.58 760.627 1696.12 C 751.598 1697.75 743.462 1694.59 736.121 1689.51 C 722.992 1680.43 716.175 1667.59 713.453 1652.19 C 699.265 1571.92 748.889 1468.02 790.147 1401.18 C 801.98 1382.01 815.357 1363.86 828.133 1345.32 C 930.348 1349.91 1035.68 1340.21 1135.89 1319.9 C 1091.12 1383.41 1071.97 1428.01 1050.23 1502.39 C 1029.54 1573.2 1022.41 1686.59 1058.74 1752.18 C 1079.3 1789.3 1111.67 1813.38 1152.38 1824.73 C 1221.17 1843.92 1323.18 1831.7 1385.4 1796.41 C 1433.19 1769.32 1460.29 1725.27 1474.72 1673.22 C 1513.59 1532.99 1454.45 1372.26 1385.44 1250.94 C 1387.15 1248.84 1389.68 1248.12 1392.11 1247.02 z"/>
<path transform="translate(0,0)" fill="url(#Gradient1)" d="M 1041.57 176.218 C 1031.67 210.982 1004.42 245.447 980.598 272.393 C 996.008 266.712 1010.81 259.488 1026.3 254.04 C 1052.72 244.744 1079.24 241.548 1106.93 239.361 C 1085.43 255.991 1061.07 268.704 1039.92 285.495 C 1062.79 281.932 1088.53 284.905 1111.49 287.597 C 1234.42 302.009 1376.7 358.99 1476.54 431.987 C 1520.57 464.176 1562.61 500.845 1601.46 539.136 C 1613.7 551.192 1626.17 563.152 1637.12 576.412 C 1622.06 565.825 1608.11 553.933 1593.34 542.982 C 1578.99 532.338 1563.78 522.73 1548.81 512.995 C 1511.86 488.964 1465.37 457.157 1419.21 465.067 C 1405.08 467.489 1390.82 474.766 1382.44 486.668 C 1371.2 502.633 1372.37 524.729 1375.89 543.003 C 1391.77 625.599 1470.8 744.323 1539.98 791.014 C 1559.51 804.191 1582.51 811.675 1606.08 806.793 C 1620.8 803.745 1633.7 796.751 1642.11 783.868 C 1657.44 760.383 1655.09 726.045 1649.06 700.028 C 1645.35 684.059 1639.55 668.842 1632.92 653.883 C 1634.25 652.998 1635.08 652.373 1636.7 652.18 C 1638.81 651.928 1637.66 652.201 1639.75 651.564 C 1647.03 649.343 1657.56 647.571 1665.09 649.893 C 1665.52 650.023 1665.93 650.174 1666.35 650.314 L 1668.16 649.048 L 1669.51 649.593 L 1669.89 648.191 L 1673.58 650.059 L 1674.7 648.628 C 1674.68 648.45 1674.72 648.251 1674.63 648.094 C 1673.45 645.975 1672.15 644.958 1671.76 642.439 C 1671.68 641.926 1671.63 641.409 1671.56 640.894 C 1707.56 682.787 1743.5 751.338 1755.13 805.508 C 1759.97 828.029 1761.3 851.945 1759.53 874.897 C 1753.09 958.105 1691.22 1026.47 1630.2 1078.15 C 1562.49 1135.49 1474.77 1189.38 1393.17 1224.47 C 1222.06 1298.04 969.738 1337.54 783.752 1321.95 A 1080.2 1080.2 0 0 1 520.253 1263.69 C 497.184 1255.46 475.002 1245.33 452.19 1236.54 L 454.266 1218.73 C 446.989 1229.89 439.306 1240.86 432.323 1252.2 C 424.299 1265.23 416.977 1279.09 407.61 1291.19 C 405.381 1255.85 413.03 1232.12 427.086 1200.34 C 395.42 1219.03 362.585 1239.11 327.055 1249.61 C 343.9 1222.68 365.259 1199.61 391.957 1182.21 C 364.468 1179.88 337.258 1175.47 310.012 1171.24 C 333.773 1158.26 378.328 1153.17 404.231 1160.76 A 264.493 264.493 0 0 1 411.339 1162.98 C 407.553 1160.72 401.899 1158.13 399.003 1154.85 C 387.646 1141.98 377.665 1104.35 373.263 1086.85 C 336.542 940.913 382.942 772.382 458.649 646.316 C 536.439 516.78 655.877 418.711 784.133 342.022 C 828.762 315.337 875.436 291.967 919.519 264.435 C 962.291 237.722 1000.6 205.341 1041.57 176.218 z"/>
<path transform="translate(0,0)" fill="rgb(110,43,97)" d="M 1474.52 788.216 C 1480.56 787.991 1489.21 789.37 1493.72 793.736 C 1495.83 795.782 1496.81 798.368 1496.93 801.251 C 1497.2 807.221 1493.8 813.368 1489.89 817.643 C 1478.79 829.75 1461.38 834.227 1445.59 835.247 C 1440.48 835.375 1433.62 836.296 1428.75 834.765 C 1425.5 833.744 1423.49 832.265 1422 829.168 C 1421.58 824.778 1422.87 821.865 1425.39 818.279 C 1436.18 802.975 1456.24 791.207 1474.52 788.216 z"/>
<path transform="translate(0,0)" fill="rgb(101,28,86)" d="M 1689.96 782.297 C 1697.46 781.808 1705.51 781.887 1712.4 785.348 C 1715.78 787.044 1718.27 789.675 1719.23 793.385 C 1720.84 799.569 1718.39 806.769 1715.34 812.111 C 1704.75 830.634 1680.37 843.229 1660.51 848.691 C 1653.1 850.395 1644 851.882 1637.06 847.775 C 1633.75 845.819 1631.85 842.778 1631.19 839.019 C 1629.6 829.989 1634.17 820.127 1639.4 813.054 C 1651.07 797.261 1670.58 785.325 1689.96 782.297 z"/>
<path transform="translate(0,0)" fill="rgb(220,170,201)" d="M 1689.25 787.128 C 1693.55 786.936 1698.11 786.518 1702.35 787.354 C 1706.63 788.195 1712.83 789.637 1714.93 793.927 C 1716.71 797.545 1714.86 802.278 1713.2 805.615 C 1703.6 824.906 1681.62 836.422 1662.26 843.42 C 1655.4 844.804 1648.9 846.281 1642.01 843.827 C 1639.54 842.949 1637.28 841.246 1636.35 838.717 C 1634.19 832.843 1638.04 824.658 1641.01 819.739 C 1651.26 802.776 1670.52 791.866 1689.25 787.128 z"/>
<path transform="translate(0,0)" fill="rgb(101,28,86)" d="M 1200.46 330.218 C 1225.56 328.202 1256.91 335.234 1280.05 344.836 C 1287.74 348.026 1301.81 354.059 1304.49 362.568 C 1305.65 366.271 1304.55 369.707 1302.69 372.968 C 1298.52 380.304 1290.86 381.88 1283.32 383.997 C 1257.94 389.891 1217.74 385.895 1195.42 371.66 C 1187.6 366.672 1179.25 358.646 1177.4 349.141 C 1176.75 345.826 1177.41 342.699 1179.4 339.965 C 1184 333.669 1193.24 331.336 1200.46 330.218 z"/>
<path transform="translate(0,0)" fill="rgb(254,254,254)" d="M 1203.64 337.347 A 100.677 100.677 0 0 1 1215.99 337.683 C 1230.5 338.973 1288.14 349.776 1295.57 361.932 C 1297.09 364.422 1296.71 365.033 1295.96 367.635 C 1291.44 372.559 1285.59 374.075 1279.4 375.936 C 1264.12 379.114 1247.06 377.596 1231.87 374.563 C 1217.75 371.743 1194.76 365.242 1187.05 351.715 C 1185.66 349.273 1185.96 348.037 1186.6 345.41 C 1190.59 340.73 1197.73 338.256 1203.64 337.347 z"/>
<path transform="translate(0,0)" fill="rgb(101,28,86)" d="M 962.028 397.298 C 966.024 397.545 970.074 398.088 973.781 399.7 C 979.344 402.118 983.495 407.235 985.531 412.87 C 989.064 422.649 985.724 433.524 981.236 442.423 C 966.531 471.579 935.848 500.222 904.59 510.291 C 898.02 511.36 890.873 511.595 885.214 507.383 C 881.374 504.525 879.631 499.871 879.135 495.255 C 876.99 475.308 891.469 451.018 903.174 435.941 C 917.809 417.09 937.685 400.453 962.028 397.298 z"/>
<path transform="translate(0,0)" fill="rgb(254,254,254)" d="M 957.737 406.212 C 960.405 405.961 963.34 405.924 965.989 406.389 C 969.677 407.037 973.559 408.916 975.564 412.207 C 979.06 417.948 977.257 427.092 975.103 432.96 C 964.63 461.487 934.256 488.229 907.195 500.556 C 902.404 502.245 896.697 504.016 891.917 501.41 C 889.873 500.296 888.637 498.753 887.925 496.554 C 884.447 485.825 892.376 469.05 897.627 459.771 C 910.964 436.201 930.941 413.774 957.737 406.212 z"/>
<path transform="translate(0,0)" fill="rgb(254,254,254)" d="M 1026.7 474.964 A 240.486 240.486 0 0 1 1058.01 451.147 C 1133.45 403.905 1194.5 400.705 1279.12 420.471 L 1280.75 421.097 C 1291.9 425.441 1302.31 431.337 1313.14 436.382 C 1334.58 446.365 1358.21 452.546 1381.91 453.105 L 1383.43 454.56 C 1364.78 455.527 1339.5 449.945 1322.43 442.694 C 1312.33 438.403 1304.27 432.707 1292.9 431.15 C 1290.72 428.816 1288.54 425.545 1285.44 424.807 L 1284.08 428.335 C 1280.15 428.116 1277.59 425.635 1274.52 423.326 C 1262.06 413.941 1198.44 407.162 1183.56 410.008 C 1178.1 411.05 1174.66 415.382 1169 416.515 C 1167.75 416.765 1166.76 417.15 1165.58 417.62 C 1163.53 418.438 1162.18 418.49 1159.99 418.397 C 1159.73 417.771 1159.54 417.107 1159.2 416.518 C 1158.99 416.156 1158.65 415.891 1158.37 415.578 L 1155.26 419.255 C 1154.52 417.423 1153.91 415.753 1153.52 413.811 L 1152.5 414.466 C 1152.65 415.674 1152.83 416.804 1153.08 417.999 C 1151.57 419.184 1150.95 419.818 1149.03 420.208 C 1148.35 419.462 1147.56 418.784 1147.15 417.856 L 1146.5 417.782 L 1146.22 416.076 L 1143.9 419.421 L 1147.24 420.1 C 1145.75 422.023 1144.67 423.258 1142.15 423.735 C 1138.84 424.362 1134.93 422.663 1131.95 423.211 C 1127.76 423.98 1125.63 428.208 1120.82 427.552 C 1119.36 425.234 1119.54 425.042 1116.93 424.34 C 1100.92 427.194 1037.99 462.359 1029.01 475.654 C 1025.75 480.492 1025.52 487.534 1023.41 492.988 C 1018.98 504.436 1012.52 515.146 1005.28 525.021 C 1001.6 530.039 989.387 540.769 988.54 545.879 C 993.874 547.794 1002.45 543.961 1006.14 547.226 C 1006.46 550.065 1006.1 551.407 1008.45 553.382 C 1012.72 556.963 1020.47 558.227 1024.03 561.482 C 1024.98 562.359 1025.42 564.82 1025.59 565.985 L 1027.74 566.222 L 1028.72 562.467 L 1030.35 562.272 C 1031.41 563.119 1032.27 564.305 1033.53 564.813 C 1036.76 566.12 1050.74 564.808 1055.23 564.729 C 1069.12 564.484 1082.56 565.583 1096.13 568.744 C 1166.77 585.202 1240.32 651.421 1273.7 715.041 C 1276.4 720.17 1279.85 724.677 1282.04 730.085 L 1281.67 731.112 L 1280.99 731.204 C 1271.89 715.01 1262.73 698.923 1251.74 683.909 C 1215.8 634.815 1161.32 588.403 1102.07 571.93 C 1054.95 558.829 1001.59 566.733 959.423 590.991 C 907.314 620.964 869.207 674.865 853.987 732.437 C 837.824 793.575 844.59 853.286 876.557 908.168 C 910.726 966.83 968.436 1006.24 1032.79 1025.28 L 1032.22 1026.51 C 1028.42 1025.67 1025.02 1024.79 1021.38 1023.39 C 1018.69 1022.35 1010.62 1022.66 1009.23 1021.58 C 1009.16 1021.52 1007.34 1018.97 1007.23 1018.88 C 1004.95 1016.74 998.061 1015.11 994.982 1013.53 C 983.262 1007.5 971.636 1000.71 959.637 995.304 C 953.385 992.488 946.95 986.605 941.391 982.52 A 239.813 239.813 0 0 1 856.711 870.411 C 839.473 822.796 840.515 772.638 854.619 724.435 C 857.297 715.283 859.703 705.765 863.856 697.158 C 868.405 687.73 873.906 678.754 878.267 669.244 C 884.738 655.132 908.557 627.69 920.856 618.134 C 918.647 616.234 917.799 615.284 914.694 615.602 C 907.872 616.3 902.7 620.478 897.895 624.997 C 893.08 625.192 889.882 620.984 885.318 621.062 C 850.507 661.548 816.285 704.832 787.061 749.594 C 774.732 768.477 764.212 788.021 753.08 807.555 C 743.869 823.716 733.872 839.4 725.559 856.074 C 691.536 924.314 638.758 1047.58 644.77 1124.14 C 647.24 1155.61 658.543 1178.31 682.595 1198.75 C 705.062 1217.84 734.737 1228.82 762.667 1237.14 C 770.425 1239.45 779.829 1240.49 787.028 1243.82 C 799.303 1249.48 844.092 1252.6 860.654 1256.48 L 859.347 1257.33 C 833.005 1255.81 797.319 1248.44 771.337 1241.4 C 728.906 1229.89 678.774 1211.3 655.984 1170.95 C 631.131 1126.96 645.676 1065.13 658.686 1019.16 C 697.249 882.911 772.126 756.49 861.053 647.323 C 873.294 632.295 894.804 603.366 909.06 591.983 C 918.919 584.11 934.186 581.038 945.404 574.67 C 984.71 552.357 1014.76 518.806 1026.7 474.964 z"/>
<path transform="translate(0,0)" fill="rgb(254,254,254)" d="M 1006.49 1044.32 A 76.9265 76.9265 0 0 1 1021.77 1044.29 C 1033.53 1045.47 1049.29 1047.55 1056.95 1057.6 C 1059.41 1060.83 1060.12 1064.55 1059.57 1068.53 C 1057.78 1081.67 1045.37 1089.82 1035.65 1097.2 L 1035.97 1098.56 L 1039.45 1096.73 C 1041.34 1099.63 1039.34 1108.84 1038.89 1112.59 L 1037.9 1113.04 C 1035.95 1110.05 1034.13 1107 1032.34 1103.92 L 1030.36 1103.89 L 1028.26 1101.41 C 1024.65 1108.52 1021.91 1117.94 1017.44 1124.25 L 1013.55 1122.35 C 1012.67 1125.25 1012.19 1127.89 1009.77 1129.92 L 1008.8 1128.91 C 1008.79 1126.23 1009.04 1124.48 1007.73 1122.05 C 1002.13 1120.58 994.075 1122.16 988.702 1124.13 C 988.366 1124.25 988.035 1124.39 987.701 1124.52 L 987.043 1123.84 L 985.642 1124.02 C 983.666 1123.43 984.672 1123.39 982.64 1124.34 L 981.538 1129.51 C 979.747 1131.26 978.851 1131.78 976.129 1131.68 C 973.503 1131.59 972.651 1128.83 971.456 1126.89 L 969.589 1127.47 L 965.897 1123.65 L 960.346 1124.62 C 960.02 1124.18 959.762 1123.68 959.37 1123.3 C 956.63 1120.64 954.458 1121.07 950.936 1120.94 C 948.597 1120.86 946.39 1120.82 944.109 1120.19 C 940.227 1119.13 936.685 1114.85 932.996 1113.02 C 927.636 1110.36 922.861 1111.68 917.666 1107.6 C 913.199 1104.09 908.865 1098.68 908.38 1092.8 C 907.87 1086.62 913.102 1081.22 916.981 1076.87 C 939.074 1052.1 975.06 1046.2 1006.49 1044.32 z"/>
<path transform="translate(0,0)" fill="rgb(101,28,86)" d="M 997.656 1046.42 C 1012.47 1044.51 1036.7 1044.64 1049.57 1053.26 C 1053.45 1055.86 1056.39 1059.56 1057.14 1064.24 C 1058.03 1069.79 1056.07 1075.23 1052.84 1079.7 C 1036.98 1101.62 997.927 1108.02 973.078 1111.74 C 956.201 1113.49 932.61 1115.24 917.603 1105.48 C 913.888 1103.07 911.561 1100.03 910.864 1095.58 C 909.972 1089.87 913.743 1083.26 917.215 1079.06 C 935.559 1056.84 970.367 1048.63 997.656 1046.42 z"/>
<path transform="translate(0,0)" fill="rgb(220,170,201)" d="M 999.503 1052.41 C 1011.37 1051.01 1035.64 1050.54 1045.91 1057.78 C 1048.61 1059.68 1049.98 1062.04 1050.42 1065.36 C 1050.93 1069.23 1048.66 1073.74 1046.43 1076.73 C 1032.21 1095.79 992.673 1103.05 970.447 1106.22 C 957.279 1107.76 933.726 1108.56 922.304 1100.86 C 920.065 1099.36 918.343 1097.2 918.101 1094.41 C 917.727 1090.1 920.642 1085.75 923.228 1082.58 C 940.402 1061.51 973.944 1054.51 999.503 1052.41 z"/>
<path transform="translate(0,0)" fill="rgb(101,28,86)" d="M 447.237 879.58 C 458.652 870.725 472.135 864.415 486.996 866.001 C 498.664 867.246 509.123 873.672 516.316 882.808 C 529.643 899.735 531.227 923.008 528.34 943.591 C 523.791 976.034 504.463 1012.11 477.865 1031.74 C 471.918 1036.13 465.466 1039.62 458.342 1041.67 C 449.337 1044.54 440.77 1043.85 431.702 1041.92 C 431.426 1041.81 431.147 1041.71 430.872 1041.6 L 429.501 1041.05 C 428.186 1040.52 426.872 1040.02 425.592 1039.41 C 413.477 1033.65 405.806 1022.05 401.633 1009.73 C 400.277 1004.81 399.298 1000.24 398.78 995.139 C 395.634 963.49 404.201 932.623 421.754 906.295 C 428.223 896.299 437.229 886.117 447.237 879.58 z"/>
<path transform="translate(0,0)" fill="rgb(254,254,254)" d="M 454.917 879.42 C 468.363 872.823 480.459 867.59 495.583 872.916 C 506.505 876.763 514.019 885.214 518.64 895.614 C 529.188 919.35 524.75 949.798 515.414 973.158 C 505.786 997.247 487.81 1024.06 462.989 1034.48 C 458.033 1036.56 452.885 1037.89 447.581 1038.73 C 444.514 1038.83 441.358 1038.6 438.286 1038.52 C 435.166 1037.79 431.952 1036.77 429.037 1035.44 C 416.6 1029.77 410.286 1018.44 405.64 1006.28 C 404.367 1001.63 403.548 996.872 402.64 992.137 C 400.138 965.294 408.522 940.337 420.597 916.793 C 429.95 901.685 440.688 890.037 454.917 879.42 z"/>
<path transform="translate(0,0)" fill="rgb(101,28,86)" d="M 554.449 726.188 C 554.096 725.725 553.736 725.267 553.392 724.798 C 543.681 711.57 542.444 693.509 545.308 677.833 C 551.872 641.897 580.497 607.39 609.896 587.108 C 634.735 569.972 666.886 558.61 697.267 564.352 C 713.573 567.433 725.856 575.952 735.062 589.607 C 744.067 603.551 744.989 619.909 741.597 635.783 C 739.107 647.438 729.349 672.946 719.758 680.232 C 698.633 711.714 658.824 738.692 621.511 745.896 C 603.05 749.46 582.595 748.817 566.594 737.836 C 562.13 734.772 557.357 730.774 554.449 726.188 z"/>
<path transform="translate(0,0)" fill="rgb(254,254,254)" d="M 555.339 718.85 C 547.722 704.078 547.766 687.953 551.954 672.206 C 561.792 635.215 592.092 603.271 624.599 584.544 C 646.72 571.799 675.295 563.272 700.687 570.394 C 716.553 574.844 726.842 584.926 734.816 598.837 C 741.476 621.052 737.719 639.751 726.856 659.978 C 722.77 667.586 717.964 674.74 712.979 681.78 C 685.788 712.923 649.277 739.671 606.614 742.558 C 591.447 743.584 575.974 739.862 564.317 729.659 C 560.692 726.486 557.958 722.862 555.339 718.85 z"/>
<path transform="translate(0,0)" fill="rgb(101,28,86)" d="M 1573.77 816.885 C 1574.68 818.259 1574.8 817.907 1574.6 819.491 C 1573.26 830.174 1550.29 849.518 1542.14 857.011 C 1541.79 897.371 1537.3 936.708 1526.84 975.773 C 1519.15 1004.49 1504.02 1054.37 1476.88 1069.31 C 1467.45 1074.5 1456.73 1075.14 1446.52 1071.96 C 1421.32 1064.12 1402.64 1038.79 1391.29 1016.32 C 1372.04 977.941 1361.63 934.468 1357.95 891.903 C 1353.88 890.71 1347.46 889.526 1344.25 886.71 C 1342.28 884.978 1342.63 883.94 1342.8 881.599 C 1344.97 880.061 1345.46 880.143 1348.16 880.39 C 1356.62 881.169 1365.19 883.816 1373.61 885.234 C 1396.8 889.142 1420.58 890.243 1443.91 887.052 C 1491.03 880.609 1544.39 855.364 1573.77 816.885 z"/>
<path transform="translate(0,0)" fill="rgb(254,254,254)" d="M 1525.94 869.846 L 1527.12 870.045 C 1529.07 876.742 1520.11 899.001 1517.08 906 L 1509.45 897.778 L 1498.24 884.144 C 1507.63 879.619 1516.89 875.045 1525.94 869.846 z"/>
<path transform="translate(0,0)" fill="rgb(254,254,254)" d="M 1382.67 898.146 C 1393.41 898.717 1404.06 897.87 1414.82 898.946 C 1412.66 907.667 1410.08 916.171 1407.36 924.729 C 1406.67 926.818 1406.28 927.947 1404.62 929.419 L 1402.47 929.189 C 1393.51 922.786 1386.91 908.099 1382.67 898.146 z"/>
<path transform="translate(0,0)" fill="rgb(220,170,201)" d="M 1379.1 960.975 C 1390.43 960.879 1401.71 961.351 1412.71 964.245 C 1450.37 974.144 1475.53 1006.43 1494.11 1038.6 C 1490.86 1044.1 1487.23 1049.15 1483.41 1054.26 C 1479.13 1058.91 1474.58 1062.99 1468.46 1064.99 C 1458.86 1068.14 1449.12 1065.79 1440.45 1061.1 C 1405 1041.88 1389.63 997.203 1379.1 960.975 z"/>
<path transform="translate(0,0)" fill="rgb(181,95,123)" d="M 1535.22 863.762 L 1536.23 864.576 C 1532.23 922.25 1520.59 976.572 1498.82 1030.15 C 1485.12 1009.3 1470.9 990.202 1450.53 975.374 C 1428.47 959.316 1406.38 954.043 1379.5 958.17 L 1377.89 957.212 C 1373.17 941.88 1369.14 926.227 1367.03 910.305 C 1366.5 906.332 1364.86 899.324 1367.41 896.003 C 1378.18 894.53 1386.31 928.47 1397.7 935.341 C 1400.33 936.93 1402.74 937.345 1405.76 936.646 C 1415.12 930.596 1417.81 910.151 1421.58 899.889 C 1445.58 898.183 1467.95 893.929 1490.73 886.29 C 1495.83 893.585 1501.55 900.872 1508.26 906.763 C 1511.49 909.596 1514.1 911.797 1518.58 911.511 C 1528.71 906.009 1529.79 875.928 1534.41 865.522 C 1534.67 864.931 1534.95 864.349 1535.22 863.762 z"/>
<path transform="translate(0,0)" fill="rgb(110,43,97)" d="M 1271.12 408.251 C 1270.1 405.239 1268.42 402.041 1269.47 398.882 C 1272.93 395.882 1276.01 395.643 1280.41 396.048 C 1301.95 398.029 1324.33 407.915 1344.69 414.901 C 1378.54 426.513 1415.31 434.574 1451.16 434.859 C 1453.63 437.044 1456.96 439.345 1457.98 442.54 C 1455.9 445.59 1452.33 446.072 1448.92 446.7 C 1426.66 450.802 1404.56 453.238 1381.91 453.105 C 1358.21 452.546 1334.58 446.365 1313.14 436.382 C 1302.31 431.337 1291.9 425.441 1280.75 421.097 L 1279.12 420.471 C 1194.5 400.705 1133.45 403.905 1058.01 451.147 A 240.486 240.486 0 0 0 1026.7 474.964 C 1014.76 518.806 984.71 552.357 945.404 574.67 C 934.186 581.038 918.919 584.11 909.06 591.983 C 894.804 603.366 873.294 632.295 861.053 647.323 C 772.126 756.49 697.249 882.911 658.686 1019.16 C 645.676 1065.13 631.131 1126.96 655.984 1170.95 C 678.774 1211.3 728.906 1229.89 771.337 1241.4 C 797.319 1248.44 833.005 1255.81 859.347 1257.33 C 859.511 1257.41 859.664 1257.53 859.84 1257.59 C 871.796 1261.5 906.005 1262.37 920.685 1263.26 C 1063.79 1271.94 1230.85 1247.79 1366.1 1200.74 C 1401.09 1188.57 1436.29 1173.84 1469.58 1157.65 C 1482.65 1151.3 1494.49 1141.89 1507.97 1136.5 C 1508.36 1136.34 1508.76 1136.2 1509.15 1136.05 C 1507.57 1138.2 1506.05 1140.31 1504.21 1142.26 C 1449.01 1200.88 1253.51 1247.36 1174.26 1260.74 A 1200.2 1200.2 0 0 1 999.373 1278.09 C 907.227 1279.91 736.201 1272.03 666.114 1204.03 C 641.356 1180.01 630.077 1151.9 629.618 1117.55 C 628.901 1063.8 645.74 1011.18 664.471 961.369 C 714.608 828.031 794.586 694.014 894.349 592.048 C 883.367 593.286 871.889 592.143 860.875 591.521 C 872.933 587.227 884.695 582.885 895.871 576.535 C 938.781 552.153 979.469 507.191 1002.51 463.575 C 1005.87 457.213 1009.45 450.579 1011.84 443.767 C 1014.23 436.935 1015.09 428.011 1018.8 421.914 L 1021.44 422.607 C 1029.27 430.955 1029.15 449.283 1028.89 460.013 C 1042.69 448.222 1058.23 438.476 1074.26 430.031 C 1134.03 398.548 1205.84 387.873 1271.12 408.251 z"/>
<path transform="translate(0,0)" fill="rgb(110,43,97)" d="M 1032.79 1025.28 C 968.436 1006.24 910.726 966.83 876.557 908.168 C 844.59 853.286 837.824 793.575 853.987 732.437 C 869.207 674.865 907.314 620.964 959.423 590.991 C 1001.59 566.733 1054.95 558.829 1102.07 571.93 C 1161.32 588.403 1215.8 634.815 1251.74 683.909 C 1262.73 698.923 1271.89 715.01 1280.99 731.204 C 1307.12 786.315 1325.25 851.566 1303.6 911.363 C 1286.8 957.744 1250.77 992.526 1206.5 1012.9 C 1150.62 1038.61 1091.7 1038.14 1032.79 1025.28 z"/>
<path transform="translate(0,0)" fill="rgb(254,254,254)" d="M 1158.31 645.144 C 1166 644.388 1172.97 644.636 1180.44 646.831 C 1203.21 653.515 1225.51 673.364 1236.78 693.997 C 1241.27 702.215 1245.23 712.516 1242.25 721.862 C 1239.79 729.554 1233.94 733.802 1227.09 737.379 A 48.5811 48.5811 0 0 1 1207.89 738.186 C 1187.02 734.98 1167.37 720.891 1155.19 703.977 C 1147.22 692.92 1142.01 678.914 1144.55 665.168 C 1146.23 656.115 1150.89 650.243 1158.31 645.144 z"/>
<path transform="translate(0,0)" fill="rgb(254,254,254)" d="M 1057.51 593.411 C 1102.28 590.187 1144.25 607.807 1181.01 631.924 C 1177.12 630.357 1173.22 628.781 1169.25 627.399 C 1148.67 620.216 1126.67 619.647 1106.84 629.501 C 1089.85 637.952 1079.71 652.776 1073.9 670.464 C 1061.59 707.895 1072.71 753.565 1089.96 787.625 C 1105.07 785.71 1131.87 778.053 1145.91 784.295 C 1148.4 785.404 1149.72 787.137 1150.74 789.601 C 1150.8 792.212 1150.78 794.081 1149.32 796.41 C 1142.02 808.089 1118.86 812.93 1106.44 815.662 C 1116.79 835.356 1137.73 853.672 1156.62 864.952 C 1179.01 878.317 1206.72 886.496 1232.63 879.627 C 1249.65 875.113 1262.92 863.837 1271.67 848.733 C 1294.76 808.888 1280.11 764.474 1268.98 723.687 C 1291.8 764.269 1306.55 816.779 1303.6 863.243 A 159.936 159.936 0 0 1 1267.97 953.109 C 1234.77 993.961 1183.66 1016.67 1132.07 1022.01 C 1073.11 1028.11 1011.56 1011.13 965.496 973.593 C 918.664 935.43 886.755 883.098 880.841 822.279 A 223.362 223.362 0 0 1 932.116 659.353 A 185.443 185.443 0 0 1 1057.51 593.411 z"/>
</svg>