<svg viewBox="0 0 256 110" xmlns="http://www.w3.org/2000/svg">
  <defs>
    <linearGradient gradientUnits="userSpaceOnUse" x1="128.085" y1="76.87" x2="128.085" y2="168.571" id="gradient-0" gradientTransform="matrix(1.087182, 0.000635, -0.000644, 1.103009, -12.051163, -80.963513)">
      <stop offset="0" style="stop-color: rgb(254, 233, 87);"></stop>
      <stop offset="0.043" style="stop-color: rgb(249, 249, 249);"></stop>
      <stop offset="0.104" style="stop-color: rgb(254, 249, 104);"></stop>
      <stop offset="0.65" style="stop-color: rgb(255, 188, 12);"></stop>
      <stop offset="0.935" style="stop-color: rgb(255, 123, 7);"></stop>
      <stop offset="1" style="stop-color: rgb(255, 181, 2);"></stop>
    </linearGradient>
  </defs>
  <path 
    d="M 110.183 4.946 L 98.62 105.053 L 66.096 105.053 C 63.879 89.601 60.511 72.199 58.243 52.619 C 57.212 60.987 54.801 78.464 51.008 105.053 L 18.67 105.053 L 7.046 4.946 L 32.335 4.946 L 37.715 73.58 C 38.663 56.143 41.053 33.265 44.887 4.946 L 71.97 4.946 C 72.342 7.872 77.659 75.991 77.659 75.991 C 79.102 51.794 81.514 28.112 84.894 4.946 L 110.183 4.946 Z M 142.685 4.946 L 142.685 105.053 L 116.653 105.053 L 116.653 4.946 L 142.685 4.946 Z M 211.509 4.946 L 211.509 105.053 L 188.692 105.053 L 175.151 59.544 L 175.151 105.053 L 153.386 105.053 L 153.386 4.946 L 175.151 4.946 L 189.743 50.022 L 189.743 4.946 L 211.509 4.946 Z M 248.955 4.946 L 244.875 80.32 L 225.583 80.32 L 221.502 4.946 L 248.955 4.946 Z M 246.915 85.018 L 246.915 105.053 L 223.542 105.053 L 223.542 85.018 L 246.915 85.018 Z"
    style="fill: url(#gradient-0); stroke: rgb(7, 7, 7); stroke-width: 4px;"
  ></path>
</svg>