<svg viewBox="0 0 500 500" xmlns="http://www.w3.org/2000/svg">
  <defs>
    <linearGradient gradientUnits="userSpaceOnUse" x1="306.251" y1="114.11" x2="306.251" y2="151.031" id="gradient-0" gradientTransform="matrix(0.05965, 0.88725, -1.226338, 0.120482, 450.520333, -157.703253)">
      <stop offset="0" style="stop-color: rgb(61, 61, 61);"></stop>
      <stop offset="0.073" style="stop-color: rgb(113, 113, 113);"></stop>
      <stop offset="0.148" style="stop-color: rgb(234, 234, 234);"></stop>
      <stop offset="0.249" style="stop-color: rgb(146, 146, 146);"></stop>
      <stop offset="0.552" style="stop-color: rgb(128, 128, 128);"></stop>
      <stop offset="1" style="stop-color: rgb(29, 29, 29);"></stop>
    </linearGradient>
  </defs>
  <path style="stroke: rgb(0, 0, 0); fill: rgb(255, 222, 222); transform-origin: 271.862px 306.416px;" d="M 272.594 337.006 L 259.708 321.357 L 264.314 300.268 L 264.25 286.366 L 271.543 275.825 L 284.018 285.895 L 283.381 300.1 L 278.509 311.657" transform="matrix(-0.454064, 0.890969, -0.890969, -0.454064, 0.000053, 0.000008)"></path>
  <g style="" transform="matrix(1.334553, 0, 0, 1.265949, -23.504459, -89.09288)">
    <title>body</title>
    <path style="stroke: rgb(0, 0, 0); fill: rgb(250, 206, 206); transform-origin: 213.416px 391.302px;" d="M 214.164 351.499 L 199.437 340.677 L 190.451 357.095 L 193.797 408.232 L 192.036 425.834 L 210.494 438.262 L 234.006 435.538 L 238.423 415.04 L 233.128 400.224 L 220.84 397.82 L 213.473 402.663 L 212.419 375.748 L 214.164 351.499 Z"></path>
    <path style="stroke: rgb(0, 0, 0); transform-box: fill-box; transform-origin: 50% 50%; fill: rgb(250, 206, 206);" d="M 156.708 357.618 L 130.392 352.147 L 124.667 370.203 L 137.861 419.76 L 134.818 437.432 L 144.107 450.092 L 161.366 451.659 L 178.826 445.378 L 191.677 434.948 L 175.258 403.503 L 162.627 403.759 L 152.364 406.804 L 160.906 400.878 L 156.244 380.142 L 156.708 357.618 Z" transform="matrix(0.962425, 0.271548, -0.271548, 0.962425, -0.000007, 0)"></path>
    <ellipse style="stroke: rgb(0, 0, 0); fill: rgb(250, 206, 206); transform-box: fill-box; transform-origin: 50% 50%;" cx="214.29" cy="350.391" rx="19.736" ry="36.389" transform="matrix(0.929683, -0.368362, 0.336031, 0.942493, -4.811566, 6.88727)"></ellipse>
    <path d="M 163.955 272.387 L 193.142 266.089 L 218.789 309.907 C 225.875 310.811 223.497 345.641 212.634 360.537 C 180.007 405.276 144.86 370.968 146.378 368.298 C 147.331 374.331 106.932 348.125 104.034 329.784 L 100.489 317.625 L 101.343 304.311 L 114.49 289.718 L 112.867 308.43 L 118.894 319.756 L 138.274 327.12 L 141.704 316.671 C 151.941 315.683 186.097 286.595 174.315 287.732 L 163.955 272.387 Z" style="stroke: rgb(0, 0, 0); fill: rgb(250, 206, 206);"></path>
    <path d="M 163.788 366.434 C 163.546 384.229 161.587 399.377 148.883 399.377 C 132.52 399.377 122.957 374.103 122.957 350.554 C 122.957 332.399 133.645 319.627 146.039 314.728" style="stroke: rgb(0, 0, 0); fill: rgb(250, 206, 206);"></path>
  </g>
  <path style="stroke: rgb(0, 0, 0); fill: rgb(255, 255, 255);" d="M 237.562 331.373 L 254.437 313.817 L 266.657 328.54 L 273.857 316.705 L 270.74 299.302 L 264.576 288.773 L 253.067 274.675 L 231.998 266.666 L 214.134 268.838 L 202.837 274.9 L 211.127 288.916 L 209.582 300.867 L 200.109 301.005 L 192.727 294.194 L 183.391 302.241 L 202.016 321.226 L 237.562 331.373 Z"></path>
  <path style="stroke: rgb(0, 0, 0); fill: rgb(87, 43, 43);" d="M 235.093 313.371 L 234.162 294.089 L 224.225 273.023 L 241.93 271.147 L 257.178 287.59 L 267.242 307.232 L 267.833 327.89 L 275.033 316.055 L 271.916 298.652 L 265.752 288.124 L 254.243 274.025 L 233.174 266.017 L 215.31 268.188 L 204.013 274.25 L 212.303 288.266 L 210.758 300.217 L 201.285 300.355 L 193.903 293.544 L 184.567 301.591 L 203.192 320.576 L 232.072 328.82 L 235.093 313.371 Z"></path>
  <path style="stroke: rgb(0, 0, 0); fill: rgb(255, 222, 222); transform-box: fill-box; transform-origin: 50% 50%;" d="M 200.151 274.559 L 187.265 290.207 L 191.872 311.297 L 191.807 325.199 L 199.101 335.74 L 211.576 325.669 L 210.939 311.465 L 207.284 302.797 L 211.085 298.998 L 213.297 291.761 L 208.086 281.789" transform="matrix(0.994061, 0.108822, -0.108822, 0.994061, 0.000004, 0.000001)"></path>
  <path style="stroke: rgb(0, 0, 0); fill: rgb(211, 0, 0);" d="M 216.942 271.622 L 217.269 285.244 L 221.623 292.916 L 235.539 283.45 L 237.352 287.472 L 249.34 287.472 L 253.646 282.634 L 263.177 285.33 L 264.39 264.357 L 252.216 271.118 L 248.791 265.861 L 234.876 268.001 L 233.688 271.353 L 219.927 265.711 L 216.942 271.622 Z">
    <title>tie</title>
  </path>
  <ellipse style="fill: rgb(253, 125, 125);" cx="243.638" cy="276.876" rx="9.421" ry="9.817">
    <title>tie</title>
  </ellipse>
  <g style="" transform="matrix(1.329152, 0, 0, 1.457185, -38.986427, -138.812302)">
    <title>head</title>
    <path style="stroke: rgb(0, 0, 0); fill: rgb(250, 206, 206);" d="M 320.954 175.535 L 235.157 135.087 L 161.428 135.021 L 141.777 184.261 C 126.163 184.493 132.771 266.099 148.385 265.867 L 162.192 276.135 C 162.192 284.551 234.335 285.262 234.335 276.846 L 259.712 279.429 L 284.225 277.772 L 286.86 270.085 L 251.873 266.325 L 290.775 267.221 L 306.298 265.725 L 319.667 255.77 L 320.954 175.535 Z"></path>
    <ellipse style="stroke: rgb(0, 0, 0); fill: rgb(164, 64, 64);" cx="184.731" cy="171.93" rx="7.96" ry="7.913"></ellipse>
    <path d="M 228.636 188.98 C 226.752 186.649 225.6 183.522 225.6 180.085 C 225.6 172.878 230.665 167.036 236.914 167.036 C 241.908 167.036 246.147 170.769 247.648 175.948" style="stroke: rgb(0, 0, 0); fill: rgb(250, 206, 206);"></path>
    <ellipse style="stroke: rgb(0, 0, 0); transform-box: fill-box; transform-origin: 50% 50%; fill: rgb(161, 124, 124);" cx="238.156" cy="184.985" rx="3.809" ry="7.28" transform="matrix(0.957981, -0.28683, 0.28683, 0.957981, 2.225852, -1.04593)"></ellipse>
    <path d="M 303.286 165.317 C 301.402 167.648 300.25 170.775 300.25 174.212 C 300.25 181.419 305.315 187.261 311.564 187.261 C 316.558 187.261 320.797 183.528 322.298 178.349" style="stroke: rgb(0, 0, 0); transform-box: fill-box; transform-origin: 50% 50%; fill: rgb(250, 206, 206);" transform="matrix(-1, 0, 0, -1, 0.000012, 0.000004)"></path>
    <ellipse style="stroke: rgb(0, 0, 0); transform-origin: 238.156px 184.985px; fill: rgb(180, 138, 138);" cx="238.156" cy="184.985" rx="3.809" ry="7.28" transform="matrix(-0.957981, -0.28683, -0.28683, 0.957981, 69.36073, -2.764554)"></ellipse>
    <path style="stroke: rgb(0, 0, 0); transform-origin: 284.826px 242.125px; fill: rgb(135, 74, 74);" d="M 303.235 239.407 L 306.959 237.09 L 310.672 239.134 L 311.756 243.006 L 314.136 244.973 L 318.784 244.308 L 319.52 240.453 L 317.762 237.946 L 315.237 238.529 L 317.321 236.216 L 320.425 236.812 L 321.318 240.656 L 320.94 246.023 L 317.761 248.564 L 313.821 249.59 L 308.296 247.308 L 306.823 246.283 L 303.73 246.73 L 301.432 244.823 L 303.235 239.407 Z"></path>
    <path style="stroke: rgb(0, 0, 0); transform-origin: 281.021px 243.488px; fill: rgb(136, 42, 42);" d="M 275.992 240.44 L 270.608 237.903 L 264.864 240.518 L 262.902 245.147 L 259.163 247.599 L 252.248 247.063 L 251.481 242.55 L 254.337 239.494 L 258.07 240.047 L 255.147 237.428 L 250.44 238.3 L 248.767 242.886 L 248.868 249.205 L 253.414 252.034 L 259.233 253.033 L 267.715 250.042 L 270.014 248.752 L 274.612 249.114 L 278.225 246.738 L 275.992 240.44 Z"></path>
  </g>
  <g transform="matrix(0.976912, -0.075229, 0.070518, 1.100657, -64.882248, -87.785797)" style="transform-origin: 304.174px 132.399px;">
    <title>hat</title>
    <path d="M 337.932 146.348 C 337.932 151.666 322.748 155.979 304.128 155.979 C 285.508 155.979 270.415 151.669 270.415 146.351 C 270.415 141.034 285.508 136.723 304.128 136.723 C 322.748 136.723 337.841 141.034 337.841 146.351" style="stroke: rgb(0, 0, 0); transform-origin: 304.174px 146.351px; fill: rgb(102, 101, 101);" transform="matrix(0.982004, 0.188859, -0.188859, 0.982004, 0.000001, 0.000002)"></path>
    <path d="M 329.273 115.748 C 329.273 119.871 329.209 111.628 329.209 115.75 L 330.616 143.567 C 330.616 147.689 320.038 151.031 306.989 151.031 C 293.94 151.031 283.362 147.689 283.362 143.567 L 281.886 114.11" style="stroke: rgb(0, 0, 0); transform-box: fill-box; transform-origin: 50% 50%; fill: url(#gradient-0);" transform="matrix(0.987113, 0.160024, -0.160024, 0.987113, 0.000002, -0.000003)"></path>
    <path d="M 332.13 113.768 C 332.13 117.891 321.488 121.234 308.439 121.234 C 295.39 121.234 284.812 117.893 284.812 113.77 C 284.812 109.648 295.39 106.306 308.439 106.306 C 321.488 106.306 332.066 109.648 332.066 113.77" style="stroke: rgb(0, 0, 0); transform-box: fill-box; transform-origin: 50% 50%; fill: rgb(155, 155, 155);" transform="matrix(0.987113, 0.160024, -0.160024, 0.987113, -0.000001, 0)"></path>
  </g>
</svg>