<svg
  viewBox="0 0 500 770"
  xmlns="http://www.w3.org/2000/svg"
  xmlns:bx="https://boxy-svg.com"
  preserveAspectRatio="none"
>
  <style>
    :root {
      color: #e3d6b9;
      --fill1: currentColor; /*columns,element*/
      --fill2: #ddc8a8;      /*col bottom*/
      --fill3: #ddc8a8;      /*col top*/
      --fill4: #c2a58e;      /*bottom bars*/
      --fill5: #d4b387;      /*far bottom bar*/
      --fill6: #e8d5bc;      /*top bar*/
      --fill7: #ddc8a8;      /*top triangle*/
    }
    path {
      stroke: #666 !important;
    }
  </style>
  <g>
    <title>column left</title>
    <path d="M 41.88 216.487 L 129.218 216.487 C 129.218 216.487 131.174 241.673 129.218 254.036 C 128.588 258.015 126.333 262.414 124.105 265.531 C 120.75 270.225 112.84 271.136 112.84 271.136 C 112.84 271.136 76.502 271.957 57.347 270.682 C 52.903 270.386 48.148 268.274 45.019 265.531 C 41.635 262.565 42.41 257.832 41.88 254.637 C 39.705 241.534 41.88 216.487 41.88 216.487 Z" style="stroke: rgb(0, 0, 0); fill: var(--fill3); stroke-width: 2px;"></path>
    <path d="M 57.347 258.466 C 58.055 252.256 113.455 253.07 112.84 258.466 L 112.84 526.317 L 57.347 526.317 L 57.347 258.466 Z" style="fill: var(--fill1); stroke: rgb(0, 0, 0); stroke-width: 2px;"></path>
    <path d="M 41.88 526.317 C 42.096 522.142 129.354 523.68 129.218 526.317 L 135.104 575.361 L 35.226 575.361 L 41.88 526.317 Z" style="stroke: rgb(0, 0, 0); fill: var(--fill2); stroke-width: 2px;"></path>
  </g>
  <g>
    <title>column right</title>
    <path d="M 370.835 271.396 L 458.173 271.396 C 458.173 271.396 460.129 246.21 458.173 233.847 C 457.543 229.868 455.288 225.469 453.06 222.352 C 449.705 217.658 441.795 216.747 441.795 216.747 C 441.795 216.747 405.457 215.926 386.302 217.201 C 381.858 217.497 377.103 219.609 373.974 222.352 C 370.59 225.318 371.365 230.051 370.835 233.246 C 368.66 246.349 370.835 271.396 370.835 271.396 Z" style="stroke: rgb(0, 0, 0); transform-box: fill-box; transform-origin: 50% 50%; fill: var(--fill3); stroke-width: 2px;" transform="matrix(-1, 0, 0, -1, -0.000073, 0.000012)"></path>
    <path d="M 387.111 521.959 C 387.819 528.169 443.219 527.355 442.604 521.959 L 442.604 254.108 L 387.111 254.108 L 387.111 521.959 Z" style="fill: var(--fill1); stroke: rgb(0, 0, 0); transform-box: fill-box; transform-origin: 50% 50%; stroke-width: 2px;" transform="matrix(-1, 0, 0, -1, -0.000095, 0.000016)"></path>
    <path d="M 371.506 572.775 C 371.722 576.95 458.98 575.412 458.844 572.775 L 464.73 523.731 L 364.852 523.731 L 371.506 572.775 Z" style="stroke: rgb(0, 0, 0); transform-box: fill-box; transform-origin: 50% 50%; fill: var(--fill2); stroke-width: 2px;" transform="matrix(-1, 0, 0, -1, 0.000039, 0.000035)"></path>
  </g>
  <g style="">
    <title>bottom</title>
    <path d="M 21.637 575.361 L 476.529 575.361 L 483.606 634.713 L 17.6 634.713 L 21.637 575.361 Z" style="fill: var(--fill4); stroke: rgb(0, 0, 0); stroke-width: 2px;"></path>
    <rect y="634.713" width="483.212" height="53.92" style="stroke: rgb(0, 0, 0); fill: var(--fill4);" x="8.394"></rect>
    <rect y="689.633" width="500" height="81.367" style="fill: var(--fill5);"></rect>
  </g>
  <g>
    <title>top</title>
    <path d="M 250.001 3 L 455.456 157.123 L 44.545 157.123 L 250.001 3 Z" style="stroke: rgb(0, 0, 0); fill: var(--fill7);" bx:shape="triangle 44.545 3 410.911 154.123 0.5 0 1@1bcb3037"></path>
    <path d="M 18.008 157.128 L 481.271 157.123 C 483.537 156.745 485.723 223.163 481.678 223.838 L 18.008 223.838 C 14.289 222.885 15.35 156.447 18.008 157.128 Z" style="stroke: rgb(0, 0, 0); fill: var(--fill6); stroke-width: 2px;"></path>
  </g>
  <path d="M 250.267 223.838 L 371.275 223.838 C 371.217 238 370.277 273.355 386.805 272.33 L 386.253 523.537 C 386.253 523.537 372.388 523.168 371.193 527.994 C 369.14 536.288 365.429 575.361 365.429 575.361 L 250.267 575.361 L 135.104 575.361 C 135.104 575.361 130.347 534.187 129.104 527.883 C 128.142 523.005 114.101 523.221 114.101 523.221 L 113.728 272.33 C 130.256 273.355 129.316 238 129.258 223.838 L 250.267 223.838 Z M 8.863 689.183 L 8.394 634.713 L 17.6 634.713 L 22.119 575.361 L 35.226 574.361 C 35.226 574.361 38.397 532.419 42.93 526.732 C 45.713 523.241 56.348 523.335 56.348 523.335 L 56.442 270.97 C 56.442 270.97 47.613 268.835 44.545 264.43 C 39.927 257.799 40.781 239.159 40.781 239.159 L 41.623 223.838 L 15.6 223.838 L 15.6 157.123 L 44.545 156.121 L 250 3 L 455.456 156.121 L 483.4 157.573 L 483.4 224.288 L 458.377 224.288 L 459.219 239.609 C 459.219 239.609 460.073 258.249 455.455 264.88 C 452.387 269.285 443.558 271.42 443.558 271.42 L 443.652 523.785 C 443.652 523.785 454.287 523.691 457.07 527.182 C 461.603 532.869 464.774 574.811 464.774 574.811 L 477.881 575.811 L 482.4 635.163 L 491.606 635.163 L 491.137 689.633 M 0 689.633 L 500 689.633 M 0 770 L 500 770" style="stroke: rgb(0, 0, 0); fill: none; stroke-width: 3px;">
    <title>Outline</title>
  </path>
  <g>
    <title>element</title>
    <path style="fill: var(--fill1); stroke: rgb(0, 0, 0); stroke-miterlimit: 25.56; stroke-width: 3px;" d="M 219.891 30.949 C 219.891 30.949 210.931 31.078 208.102 27.375 C 205.117 23.468 202.352 18.484 199.418 17.006 C 196.098 15.228 157.93 15.827 157.008 17.006 C 143.707 20.583 151.739 34.692 164.765 34.504 C 154.984 36.414 158.97 47.664 173.488 48.39 C 165.376 49.494 167.728 61.635 184.14 60.723 L 210.585 60.924 L 219.891 30.949 Z"></path>
    <path style="fill: var(--fill1); stroke: rgb(0, 0, 0); stroke-miterlimit: 25.56; transform-origin: 316.519px 38.405px; stroke-width: 3px;" d="M 281.661 30.949 C 281.661 30.949 290.621 31.078 293.45 27.375 C 296.435 23.468 299.2 18.484 302.134 17.006 C 305.454 15.228 343.622 15.827 344.544 17.006 C 357.845 20.583 349.813 34.692 336.787 34.504 C 346.568 36.414 342.582 47.664 328.064 48.39 C 336.176 49.494 333.824 61.635 317.412 60.723 L 290.967 60.924 L 281.661 30.949 Z"></path>
    <ellipse style="fill: var(--fill1); stroke: rgb(0, 0, 0); stroke-width: 3px;" cx="249.814" cy="61.98" rx="55.016" ry="44.974"></ellipse>
  </g>
</svg>