<svg viewBox="0 0 915 412" preserveAspectRatio="none" xmlns="http://www.w3.org/2000/svg">
  <defs>
    <radialGradient gradientUnits="userSpaceOnUse" cx="256.211" cy="200.409" r="457.5" id="gradient-1" gradientTransform="matrix(0, 0.316154, -0.826969, 0, 626.503174, 29.30239)">
      <stop offset="0" style="stop-color: rgb(255, 255, 255);"></stop>
      <stop offset="1" style="stop-color: rgb(84, 174, 245);"></stop>
    </radialGradient>
    <radialGradient gradientUnits="userSpaceOnUse" cx="457.112" cy="335.865" r="460" id="gradient-0" gradientTransform="matrix(0.995711, 0, 0, 0.21304, 3.731837, 272.395255)">
      <stop offset="0" style="stop-color: rgb(144, 121, 84);"></stop>
      <stop offset="0.427" style="stop-color: rgb(105, 83, 47);"></stop>
      <stop offset="1" style="stop-color: rgb(33, 13, 13);"></stop>
    </radialGradient>
    <linearGradient gradientUnits="userSpaceOnUse" x1="454.849" y1="161.424" x2="454.849" y2="330.829" id="gradient-2" gradientTransform="matrix(0.999725, -0.023465, 0.012065, 0.514057, -3.866374, 171.436848)">
      <stop offset="0" style="stop-color: rgb(27.059% 54.902% 14.51%)"></stop>
      <stop offset="1" style="stop-color: rgb(0% 34.073% 0%)"></stop>
    </linearGradient>
    <radialGradient gradientUnits="userSpaceOnUse" cx="457.664" cy="362.34" r="370.135" id="gradient-3" gradientTransform="matrix(0.797306, 0, 0, 0.146694, 92.765832, 304.346771)">
      <stop offset="0" style="stop-color: rgb(130, 2, 0);"></stop>
      <stop offset="1" style="stop-color: rgb(70, 4, 3);"></stop>
    </radialGradient>
    <radialGradient gradientUnits="userSpaceOnUse" cx="457.664" cy="362.34" r="370.135" id="gradient-4" gradientTransform="matrix(0.824938, 0, 0, 0.112936, 78.639919, 316.578987)">
      <stop offset="0" style="stop-color: rgb(140, 21, 19);"></stop>
      <stop offset="1" style="stop-color: rgb(90, 16, 15);"></stop>
    </radialGradient>
    <path id="path-0" d="M 345.754 72.91 C 345.754 72.91 378.535 60.834 458.269 60.834 C 533.657 60.834 574.459 70.742 574.459 70.742" style="fill: none;"></path>
  </defs>
  <rect width="915" height="321.313" style="fill: url(#gradient-1);">
    <title>Sky</title>
  </rect>
  <g transform="matrix(1, 0, 0, 1, -247, 0.000001)">
    <title>Flag Left</title>
    <path d="M 499.538 0 L 499.538 66.287 L 456.672 99.517 L 415.462 66.287 L 415.462 0" style="fill: rgb(39, 146, 239); stroke-width: 5px; stroke: rgb(70, 124, 216);"></path>
    <path d="M 435.964 54.204 L 431.11 36.679 L 435.312 36.679 L 438.376 48.717 L 442.092 36.679 L 446.973 36.679 L 450.538 48.92 L 453.658 36.679 L 457.79 36.679 L 452.853 54.204 L 448.499 54.204 L 444.449 41.102 L 440.415 54.204 L 435.964 54.204 Z M 459.758 54.204 L 459.758 36.679 L 463.863 36.679 L 463.863 54.204 L 459.758 54.204 Z M 467.814 54.204 L 467.814 36.679 L 471.807 36.679 L 480.127 48.383 L 480.127 36.679 L 483.94 36.679 L 483.94 54.204 L 479.822 54.204 L 471.626 42.776 L 471.626 54.204 L 467.814 54.204 Z" style="fill: rgb(255, 255, 255); stroke: rgb(9, 67, 119);"></path>
  </g>
  <g transform="matrix(1, 0, 0, 1, 247, 0)">
    <title>Flag Right</title>
    <path d="M 499.538 0 L 499.538 66.287 L 456.672 99.517 L 415.462 66.287 L 415.462 0" style="fill: rgb(39, 146, 239); stroke-width: 5px; stroke: rgb(70, 124, 216);"></path>
    <path d="M 435.964 54.204 L 431.11 36.679 L 435.312 36.679 L 438.376 48.717 L 442.092 36.679 L 446.973 36.679 L 450.538 48.92 L 453.658 36.679 L 457.79 36.679 L 452.853 54.204 L 448.499 54.204 L 444.449 41.102 L 440.415 54.204 L 435.964 54.204 Z M 459.758 54.204 L 459.758 36.679 L 463.863 36.679 L 463.863 54.204 L 459.758 54.204 Z M 467.814 54.204 L 467.814 36.679 L 471.807 36.679 L 480.127 48.383 L 480.127 36.679 L 483.94 36.679 L 483.94 54.204 L 479.822 54.204 L 471.626 42.776 L 471.626 54.204 L 467.814 54.204 Z" style="fill: rgb(255, 255, 255); stroke: rgb(9, 67, 119);"></path>
  </g>
  <path style="fill: url(#gradient-2);" d="M 143.305 254.559 C 154.522 248.183 166.863 277.066 160.194 280.857 C 163.852 277.183 174.614 281.711 168.462 287.89 L 168.462 289.428 C 168.462 287.524 181.374 282.971 181.374 286.174 C 181.231 278.631 197.201 278.726 197.31 284.469 C 206.323 276.141 222.535 289.593 219.191 292.683 C 221.402 288.328 240.69 293.097 236.972 300.421 L 245.297 303.317 L 248.061 301.486 C 242.064 299.092 249.394 289.49 255.391 291.884 C 266.656 256.772 308.933 269.006 302.985 287.544 C 303.048 277.297 337.243 278.716 337.195 286.519 C 336.745 277.945 363.804 277.552 364.146 284.08 C 359.853 276.646 395.69 261.853 401.328 271.616 C 398.458 266.585 413.167 259.695 415.352 263.526 C 423.124 227.705 484.312 234.53 476.54 270.351 L 483.289 273.851 C 479.116 270.065 489.364 262.461 493.537 266.247 C 492.272 256.606 525.731 256.982 527.859 273.197 C 529.552 271.864 537.965 275.904 535.118 278.146 C 537.41 272.82 552.848 283.192 550.556 288.518 C 550.522 286.813 566.768 286.304 566.825 289.171 C 567.072 274.261 588.487 278.029 588.299 289.383 C 588.424 286.834 599.373 286.406 599.163 290.694 L 610.643 294.426 C 605.283 292.53 613.503 284.388 616.69 285.516 C 614.101 280.347 623.452 274.502 624.991 277.576 C 619.192 257.686 662.668 243.931 667.706 261.213 C 668.992 255.503 686.275 255.859 684.989 261.569 C 687.971 257.649 701.1 264.023 699.994 265.477 C 681.049 235.386 731.97 206.964 743.234 224.856 C 738.983 217.689 763.968 200.288 769.551 209.701 C 767.363 208.056 775.495 197.442 779.174 200.208 C 774.689 196.385 786.336 183.561 789.751 186.472 C 785.524 181.664 802.298 159.084 804.53 161.622 L 803.608 327.131 L 108.269 330.829 L 105.971 245.493 L 105.167 202.965 C 107.263 202.53 122.419 210.104 114.867 227.692 C 122.071 227.054 124.094 234.36 121.54 241.348 C 127.466 240.741 130.605 242.929 130.691 250.447 C 134.752 248.111 143.694 251.172 143.305 254.559 Z">
    <title>Bushes</title>
  </path>
  <path style="fill: rgb(29, 74, 9);" d="M 806.974 249.336 L 808.101 334.765 L 103.192 327.741 L 101.706 248.392 L 127.289 245.019 L 114.901 261.802 L 125.283 260.973 L 117.009 267.503 L 123.958 269.157 L 107.479 290.936 L 133.651 274.908 L 133.561 292.346 L 174.052 278.586 L 139.88 294.458 L 136.589 308.756 L 142.217 303.401 L 145.199 306.957 L 147.698 303.999 L 148.059 297.98 L 156.178 295.496 L 154.361 300.019 L 159.231 296.207 L 174.365 292.882 L 158.306 302.09 L 152.23 316.814 L 159.245 309.425 L 160.332 316.793 L 160.766 304.578 L 167.309 315.859 L 168.299 306.189 L 174.293 326.549 L 178.362 311.756 L 184.412 326.575 L 185.303 321.258 L 178.537 307.521 L 185.663 314.17 L 184.242 295.578 L 196.495 317.725 L 201.948 312.748 L 203.929 324.423 L 236.271 325.513 L 246.969 319.248 L 253.695 324.452 L 269.233 305.423 L 263.583 317.677 L 270.198 314.066 L 272.347 317.015 L 285.943 294.767 L 285.901 306.12 L 291.517 299.804 L 294.223 311.829 L 295.245 303.905 L 307.083 309.65 L 310.232 329.793 L 314.962 318.99 L 317.069 325.728 L 320.362 318.497 L 322.673 327.072 L 328.276 307.794 L 333.454 327.17 L 348.273 325.402 L 344.181 308.021 L 326.578 280.091 L 345.571 293.593 L 361.03 323.284 L 362.525 317.42 L 377.093 284.64 L 368.442 318.706 L 370.334 312.712 L 372.674 324.914 L 395.325 291.205 L 392.399 309.868 L 403.473 301.003 L 405.1 310.889 L 413.232 302.276 L 415.412 316.617 L 429.005 301.496 L 430.386 312.816 L 440.084 299.642 L 450.533 268.934 L 458.449 302.36 L 476.03 294.595 L 471.85 302.559 L 481.908 301.145 L 480.012 290.751 L 486.495 295.35 L 491.243 274.837 L 502.057 297.358 L 512.78 285.089 L 525.09 304.634 L 525.186 288.554 L 547.339 314.277 L 554.219 311.362 L 556.177 320.665 L 561.559 317.304 L 563.356 326.638 L 573.911 330.667 L 572.801 317.512 L 562.459 291.997 L 582.306 316.329 L 582.543 300.822 L 588.145 310.434 C 591.319 296.079 610.577 283.134 610.196 284.858 C 609.488 284.343 591.993 317.839 594.758 319.852 L 597.137 334.556 L 625.81 331.38 L 627.306 324.258 L 629.002 312.063 L 639.988 320.651 L 643.054 308.279 L 649.74 320.319 C 645.79 318.053 664.956 287.903 666.421 288.744 C 664.387 288.438 654.633 330.885 659.504 331.618 L 667.903 311.53 L 669.095 331.859 L 671.699 321.257 L 679.402 305.992 L 680.295 316.56 L 696.441 303.641 L 693.884 316.224 L 706.809 307.43 L 714.451 313.698 L 717.112 299.85 L 727.199 309.449 L 721.758 293.089 L 749.507 302.459 L 739.832 282.255 L 765.789 282.227 L 760.221 268.529 L 775.632 274.931 L 762.33 256.194 L 784.199 274.928 L 785.789 267.939 L 798.264 271.911 L 794.794 267.727 L 802.099 264.937 C 800.287 252.383 731.34 240.043 731.901 243.927 C 732.604 239.844 805.127 236.622 802.991 249.033 L 806.974 249.336 Z">
    <title>Grass</title>
  </path>
  <rect width="920" height="90.687" style="fill: url(#gradient-0); stroke: rgb(0, 0, 0);" y="321.313" x="-3">
    <title>Floor</title>
  </rect>
  <g>
    <title>Col Right</title>
    <rect x="830.369" width="86.631" height="349.04" style="fill: rgb(71, 52, 29);"></rect>
    <path d="M 830.369 0 L 830.369 349.04 L 802.099 328.078 L 802.099 0" style="fill: rgb(143, 107, 69); stroke: rgb(0, 0, 0);"></path>
  </g>
  <g transform="matrix(1, 0, 0, 1, -3, 0)">
    <title>Col Left</title>
    <rect x="-86.631" width="86.631" height="349.04" style="fill: rgb(71, 52, 29);" transform="matrix(-1, 0, 0, 1, 0, 0)"></rect>
    <path d="M 114.901 349.04 L 114.901 0 L 86.631 20.962 L 86.631 349.04" style="fill: rgb(143, 107, 69); transform-box: fill-box; transform-origin: 50% 50%; stroke: rgb(0, 0, 0);" transform="matrix(-1, 0, 0, -1, -0.000028, 0.000013)"></path>
  </g>
  <path d="M 204.841 321.313 L 708.92 321.313 L 829.964 412 L 87.529 412 L 204.841 321.313 Z" style="fill: url(#gradient-3); stroke: rgb(0, 0, 0);">
    <title>Rug 1</title>
  </path>
  <path d="M 281.479 321.313 L 631.587 321.313 L 733.588 412 L 181.814 412 L 281.479 321.313 Z" style="fill: url(#gradient-4); stroke: rgb(48, 2, 2);">
    <title>Rug 2</title>
  </path>
  <g transform="matrix(1, 0, 0, 0.958839, 63.745708, -105.461182)" style="">
    <title>Box</title>
    <path d="M 230.741 165.988 C 235.082 161.955 247.921 161.424 247.921 161.424 L 544.452 161.424 C 544.452 161.424 554.47 162.249 558.128 165.254 C 561.979 168.417 564.881 178.593 564.881 178.593 L 564.881 310.802 L 225.996 309.006 L 225.996 179.701 C 225.996 179.701 227.197 169.28 230.741 165.988 Z" style="stroke-width: 2.04203px; fill: rgb(157, 114, 81); stroke: rgb(53, 29, 7);"></path>
    <path d="M 226.411 303.21 L 564.881 303.21 L 564.881 333.612 C 564.881 333.612 561.877 343.166 558.455 346.557 C 555.58 349.405 547.532 351.854 547.532 351.854 L 241.601 351.854 C 241.601 351.854 233.113 349.807 230.425 346.71 C 227.044 342.815 225.996 331.883 225.996 331.883 L 226.411 303.21 Z" style="stroke-width: 2.04203px; fill: rgb(116, 77, 48); stroke: rgb(53, 29, 7);"></path>
  </g>
  <g>
    <title>Banner</title>
    <path style="stroke: rgb(0, 0, 0); fill: rgb(90, 1, 1);" d="M 358.739 49.318 L 296.973 66.755 L 314.098 79.718 L 313.53 99.517 L 370.771 86.64 L 358.739 49.318 Z"></path>
    <path style="stroke: rgb(0, 0, 0); fill: rgb(90, 1, 1); transform-box: fill-box; transform-origin: 50% 50%;" d="M 606.967 99.517 L 545.201 82.08 L 562.326 69.117 L 561.758 49.318 L 618.999 62.195 L 606.967 99.517 Z" transform="matrix(-1, 0, 0, -1, 0.000045, -0.000003)"></path>
    <path d="M 316.448 49.318 C 316.448 49.318 368.019 31.7 460.498 31.7 C 544.595 31.7 601.035 49.318 601.035 49.318 L 587.114 85.121 C 589.876 85.086 530.217 73.744 461.136 73.607 C 393.061 73.472 332.98 85.31 332.98 85.31 L 316.448 49.318 Z" style="stroke: rgb(0, 0, 0); fill: rgb(158, 3, 3);"></path>
  </g>
  <path d="M 338.833 62.61 C 339.586 62.637 340.358 62.606 341.148 62.517 C 341.821 62.497 342.572 62.418 343.401 62.282 C 344.23 62.144 345.053 61.957 345.871 61.717 C 347.318 61.292 347.891 60.518 347.592 59.397 C 347.477 58.968 347.14 58.595 346.581 58.279 C 346.022 57.964 345.331 57.633 344.509 57.288 C 343.688 56.943 342.803 56.553 341.856 56.12 C 340.909 55.686 339.983 55.14 339.078 54.481 C 338.173 53.822 337.357 53.021 336.63 52.078 C 335.903 51.136 335.354 49.972 334.984 48.587 C 334.57 47.037 334.472 45.59 334.689 44.245 C 334.907 42.901 335.382 41.694 336.114 40.625 C 336.846 39.557 337.794 38.629 338.958 37.843 C 340.122 37.056 341.427 36.45 342.874 36.025 C 343.629 35.804 344.395 35.623 345.172 35.483 C 345.949 35.344 346.645 35.22 347.26 35.11 C 347.979 35.006 348.681 34.907 349.368 34.811 L 351.84 44.062 C 351.58 44.103 351.288 44.154 350.964 44.213 C 350.704 44.254 350.412 44.304 350.089 44.363 C 349.766 44.423 349.431 44.504 349.085 44.606 C 348.896 44.661 348.663 44.739 348.384 44.838 C 348.105 44.938 347.848 45.057 347.614 45.197 C 347.38 45.336 347.191 45.517 347.046 45.738 C 346.901 45.958 346.869 46.217 346.948 46.514 C 347.019 46.777 347.319 47.044 347.85 47.316 C 348.38 47.588 349.022 47.897 349.777 48.244 C 350.531 48.591 351.37 49.003 352.295 49.478 C 353.219 49.953 354.107 50.547 354.958 51.257 C 355.809 51.967 356.597 52.821 357.322 53.818 C 358.046 54.814 358.593 56.005 358.963 57.39 C 359.351 58.841 359.494 60.266 359.393 61.666 C 359.292 63.065 358.903 64.37 358.226 65.584 C 357.549 66.797 356.56 67.887 355.259 68.856 C 353.957 69.826 352.315 70.602 350.334 71.184 C 349.139 71.535 348.014 71.802 346.961 71.987 C 345.908 72.173 344.966 72.297 344.136 72.363 C 343.179 72.467 342.293 72.514 341.476 72.505 L 338.833 62.61 Z M 360.892 41.829 L 354.96 42.949 L 353.441 34.099 L 375.914 29.858 L 377.433 38.706 L 371.501 39.826 L 375.773 64.705 L 365.163 66.708 L 360.892 41.829 Z M 384.624 28.964 L 392.412 28.016 L 408.495 60.557 L 398.273 61.802 L 396.864 58.87 L 387.032 60.066 L 386.3 63.259 L 376.078 64.503 L 384.624 28.964 Z M 393.307 51.699 L 390.456 45.994 L 388.927 52.233 L 393.307 51.699 Z M 424.026 37.271 C 423.409 36.759 422.652 36.385 421.755 36.149 C 420.858 35.913 419.986 35.821 419.138 35.872 C 418.192 35.93 417.338 36.163 416.576 36.571 C 415.813 36.977 415.164 37.514 414.629 38.182 C 414.094 38.85 413.688 39.639 413.411 40.548 C 413.134 41.457 413.025 42.424 413.082 43.45 C 413.139 44.476 413.372 45.421 413.781 46.288 C 414.189 47.156 414.721 47.886 415.376 48.481 C 416.031 49.075 416.784 49.527 417.636 49.835 C 418.487 50.143 419.386 50.268 420.332 50.21 C 421.441 50.142 422.438 49.831 423.323 49.28 C 424.208 48.727 424.953 48.004 425.558 47.109 L 422.623 47.29 L 422.222 40.109 L 434.793 39.337 L 435.429 50.724 C 434.758 52.172 433.932 53.5 432.952 54.71 C 431.973 55.919 430.862 56.974 429.62 57.874 C 428.377 58.773 427.018 59.492 425.543 60.028 C 424.068 60.565 422.531 60.883 420.933 60.981 C 418.585 61.124 416.342 60.799 414.203 60.004 C 412.064 59.21 410.176 58.056 408.537 56.544 C 406.898 55.032 405.569 53.21 404.55 51.076 C 403.531 48.942 402.951 46.61 402.81 44.08 C 402.673 41.618 402.967 39.267 403.692 37.027 C 404.417 34.786 405.477 32.808 406.87 31.093 C 408.263 29.378 409.953 27.987 411.938 26.922 C 413.923 25.857 416.09 25.252 418.438 25.107 C 420.265 24.995 421.857 25.086 423.215 25.381 C 424.573 25.674 425.722 26.033 426.662 26.455 C 427.769 26.937 428.699 27.48 429.452 28.085 L 424.026 37.271 Z M 434.967 25.143 L 454.221 24.768 L 454.38 33.757 L 445.562 33.929 L 445.629 37.73 L 454.3 37.561 L 454.451 46.089 L 445.78 46.258 L 445.85 50.213 L 455.011 50.035 L 455.17 59.025 L 435.574 59.406 L 434.967 25.143 Z M 459.063 41.888 C 459.106 39.148 459.602 36.682 460.551 34.488 C 461.5 32.296 462.77 30.424 464.363 28.875 C 465.956 27.327 467.804 26.151 469.907 25.348 C 472.01 24.545 474.238 24.163 476.589 24.204 C 478.451 24.237 480.106 24.453 481.554 24.854 C 483.001 25.256 484.244 25.706 485.281 26.203 C 486.481 26.772 487.517 27.389 488.389 28.054 L 483.096 37.47 C 482.58 37.05 482.015 36.646 481.4 36.259 C 480.849 35.975 480.192 35.698 479.428 35.429 C 478.665 35.159 477.793 35.016 476.813 34.999 C 475.8 34.981 474.867 35.154 474.012 35.516 C 473.157 35.878 472.405 36.379 471.758 37.018 C 471.111 37.659 470.601 38.412 470.228 39.279 C 469.855 40.146 469.661 41.076 469.646 42.069 C 469.631 43.062 469.804 43.999 470.166 44.879 C 470.528 45.759 471.03 46.53 471.673 47.191 C 472.316 47.853 473.076 48.38 473.952 48.772 C 474.828 49.164 475.789 49.369 476.834 49.387 C 477.879 49.405 478.812 49.284 479.633 49.024 C 480.454 48.764 481.144 48.467 481.705 48.135 C 482.364 47.769 482.942 47.334 483.44 46.828 L 488.436 56.42 C 487.543 57.159 486.487 57.809 485.27 58.37 C 484.217 58.831 482.953 59.255 481.476 59.64 C 480 60.026 478.315 60.204 476.42 60.171 C 473.873 60.127 471.528 59.65 469.386 58.74 C 467.244 57.83 465.401 56.574 463.858 54.97 C 462.315 53.368 461.119 51.456 460.272 49.232 C 459.425 47.008 459.022 44.559 459.063 41.888 Z M 489.387 25.38 L 500.253 25.919 L 499.114 51.168 L 508.12 51.615 L 507.715 60.597 L 487.843 59.611 L 489.387 25.38 Z M 510.172 26.464 L 529.373 28.008 L 528.716 36.973 L 519.922 36.266 L 519.645 40.057 L 528.292 40.752 L 527.67 49.257 L 519.022 48.561 L 518.734 52.505 L 527.87 53.24 L 527.214 62.205 L 507.671 60.632 L 510.172 26.464 Z M 542.159 29.469 L 549.943 30.447 L 558.365 66.019 L 548.148 64.735 L 547.427 61.54 L 537.599 60.305 L 536.179 63.232 L 525.962 61.948 L 542.159 29.469 Z M 545.559 53.699 L 544.052 47.455 L 541.181 53.149 L 545.559 53.699 Z M 563.808 32.324 L 574.87 34.583 C 576.923 35.002 578.77 35.676 580.411 36.604 C 582.052 37.532 583.411 38.682 584.488 40.054 C 585.564 41.425 586.311 43 586.73 44.778 C 587.149 46.555 587.161 48.503 586.768 50.622 C 586.456 52.303 585.966 53.686 585.299 54.771 C 584.632 55.856 583.953 56.73 583.264 57.391 C 582.461 58.135 581.602 58.727 580.688 59.169 L 584.64 71.491 L 572.615 69.035 L 569.389 59.53 L 567.806 68.054 L 557.561 65.962 L 563.808 32.324 Z M 570.981 50.958 L 571.51 51.066 C 572.729 51.314 573.816 51.24 574.771 50.841 C 575.727 50.444 576.33 49.572 576.58 48.227 C 576.829 46.882 576.582 45.838 575.839 45.092 C 575.096 44.347 574.115 43.851 572.896 43.602 L 572.367 43.494 L 570.981 50.958 Z" style="stroke: rgb(0, 0, 0); transform-box: fill-box; transform-origin: 50% 50%; stroke-width: 2px; fill: rgb(255, 245, 117);" transform="matrix(0.999966, 0.008187, -0.008187, 0.999966, 0, 0)">
    <title>Banner Text</title>
  </path>
  <rect style="fill: rgb(132, 100, 74);" x="316.448" y="148.916" width="287.828" height="20" rx="9.5" ry="14.5"></rect>
  <rect id="progressBar" style="fill: rgb(255, 216, 0);" x="316.448" y="148.954" width="20" height="20" rx="9.5" ry="14.5"></rect>
  <text id="progressText" style="font-family: Arial; font-size: 16px; text-anchor: middle; white-space: pre;" x="457.5" y="163.941">0%</text>
</svg>