<svg viewBox="0 0 500 500" xmlns="http://www.w3.org/2000/svg">
  <defs>
    <linearGradient gradientUnits="userSpaceOnUse" x1="284.687" y1="363.438" x2="284.687" y2="477.945" id="gradient-0">
      <stop offset="0" style="stop-color: rgb(255, 255, 255);"></stop>
      <stop offset="0.158" style="stop-color: rgb(59, 253, 93);"></stop>
      <stop offset="0.51" style="stop-color: rgb(26, 170, 51);"></stop>
      <stop offset="0.51" style="stop-color: rgb(14, 140, 30);"></stop>
      <stop offset="1" style="stop-color: rgb(0, 195, 9);"></stop>
    </linearGradient>
    <linearGradient gradientUnits="userSpaceOnUse" x1="348.632" y1="364.932" x2="348.632" y2="479.438" id="gradient-1">
      <stop offset="0" style="stop-color: rgb(255, 255, 255);"></stop>
      <stop offset="0.139" style="stop-color: rgb(49, 251, 85);"></stop>
      <stop offset="0.504" style="stop-color: rgb(25, 169, 50);"></stop>
      <stop offset="0.504" style="stop-color: rgb(14, 141, 30);"></stop>
      <stop offset="1" style="stop-color: rgb(0, 212, 10);"></stop>
    </linearGradient>
    <linearGradient gradientUnits="userSpaceOnUse" x1="414.531" y1="363.438" x2="414.531" y2="479.438" id="gradient-2">
      <stop offset="0" style="stop-color: rgb(255, 255, 255);"></stop>
      <stop offset="0.157" style="stop-color: rgb(72, 227, 100);"></stop>
      <stop offset="0.51" style="stop-color: rgb(25, 167, 48);"></stop>
      <stop offset="0.51" style="stop-color: rgb(0, 109, 6);"></stop>
      <stop offset="1" style="stop-color: rgb(8, 196, 17);"></stop>
    </linearGradient>
    <linearGradient gradientUnits="userSpaceOnUse" x1="285.652" y1="412.794" x2="285.652" y2="430.806" id="gradient-3" gradientTransform="matrix(1, 0, 0, 2.172966, -37.651016, -482.744768)">
      <stop offset="0" style="stop-color: rgb(222, 162, 125);"></stop>
      <stop offset="0.408" style="stop-color: rgb(205, 144, 111);"></stop>
      <stop offset="0.525" style="stop-color: rgb(155, 91, 71);"></stop>
      <stop offset="1" style="stop-color: rgb(141, 76, 60);"></stop>
    </linearGradient>
    <radialGradient gradientUnits="userSpaceOnUse" cx="243.707" cy="238.943" r="164.842" id="gradient-4" gradientTransform="matrix(1, 0, 0, 0.966294, 1.112089, 15.361945)">
      <stop offset="0" style="stop-color: rgb(64, 79, 44);"></stop>
      <stop offset="1" style="stop-color: rgb(47, 53, 40);"></stop>
    </radialGradient>
  </defs>
  <path d="M 90.662 75.344 C 97.039 70.965 103.823 66.656 110.925 62.492 C 113.377 61.054 118.269 63.767 120.793 62.366 C 123.614 60.801 124.076 55.125 126.977 53.613 C 148.439 42.434 172.598 35.933 196.075 29.687 C 198.322 29.089 199.925 25.456 202.17 24.92 C 216.91 21.405 231.556 18.535 245.589 18.199 C 261.25 17.824 269.981 18.415 285.124 21.115 C 288.06 21.639 289.037 26.039 291.948 26.674 C 313.344 31.337 338.29 37.77 360.476 47.366 C 365.45 49.518 365.906 54.119 370.531 56.603 C 374.752 58.872 380.606 59.688 384.424 62.259 C 405.66 76.561 421.247 92.45 432.661 107.671 C 432.661 107.671 430.108 111.662 432.375 114.933 C 433.937 117.189 440.243 118.565 441.293 120.239 C 449.365 133.118 454.02 138.569 457.296 147.92 C 459.138 153.18 456.968 156.734 457.787 160.124 C 458.893 164.704 463.778 173.156 463.778 173.156 L 460.654 190.686 L 462.891 200.357 L 461.075 256.059 C 458.019 256.435 455.397 291.191 459.948 290.632 L 454.661 452.742 L 415.936 452.924 L 415.762 455.352 L 83.176 455.754 L 80.431 451.734 L 33.763 451.876 L 32.594 410.367 C 37.946 410.787 35.798 347.605 30.816 347.214 L 29.173 288.875 C 34.433 288.279 31.314 253.456 28.186 253.811 L 26.091 179.407 C 26.091 179.407 26.963 173.113 29.801 163.293 C 30.244 161.759 33.832 161.4 34.375 159.705 C 34.869 158.162 32.31 155.296 32.894 153.635 C 36.698 142.82 42.468 129.686 51.071 116.431 C 51.714 115.441 57.703 116.587 58.378 115.596 C 59.311 114.227 54.944 110.721 55.939 109.355 C 64.778 97.226 76.129 85.325 90.662 75.344 Z" style="stroke: rgb(0, 0, 0); stroke-width: 4px;"></path>
  <path d="M 247.637 78.634 L 87.998 78.26 L 79.977 297.533 C 79.977 297.533 86.609 337.96 132.39 374.99 C 157.172 395.037 196.603 412.881 239.034 414.169 C 240.754 414.221 242.464 414.245 245.376 414.242 C 248.792 414.246 251.014 414.202 253.256 414.114 C 295.333 412.45 339.183 389.47 363.666 369.665 C 409.447 332.635 409.662 297.136 409.662 297.136 L 402.754 78.26 L 247.637 78.634 Z" style="stroke: rgb(0, 0, 0); fill: url(#gradient-4); transform-box: fill-box; transform-origin: 50% 50%;" transform="matrix(-1, 0, 0, -1, 0.000112, -0.000066)">
    <title>Door</title>
  </path>
  <g style="" transform="matrix(1, 0, 0, 0.966294, 0, 15.361704)">
    <title>Door Label</title>
    <path d="M 172.415 231.502 C 172.755 233.072 173.943 234.053 175.981 234.445 C 176.49 234.511 176.746 234.838 176.746 235.427 C 176.746 235.753 176.604 236.049 176.321 236.31 C 176.037 236.572 175.67 236.703 175.217 236.703 C 174.369 236.703 173.236 236.637 171.821 236.506 C 170.407 236.375 168.397 236.31 165.793 236.31 C 163.699 236.31 161.859 236.392 160.274 236.555 C 158.689 236.718 157.727 236.833 157.387 236.898 C 157.104 236.898 156.907 236.8 156.793 236.604 C 156.679 236.408 156.624 236.179 156.624 235.918 C 156.624 235.656 156.666 235.394 156.751 235.132 C 156.836 234.87 156.963 234.739 157.133 234.739 C 157.529 234.674 157.925 234.544 158.321 234.347 C 158.717 234.151 159.086 233.89 159.425 233.562 C 159.595 233.366 159.807 232.32 160.062 230.422 C 160.317 228.526 160.542 226.024 160.741 222.916 C 160.939 219.809 161.109 216.228 161.251 212.173 C 161.391 208.117 161.463 203.833 161.463 199.319 C 161.463 195.525 161.463 191.993 161.463 188.722 C 161.463 185.451 161.321 182.802 161.039 180.774 C 160.529 176.457 159.34 173.137 157.472 170.815 C 155.605 168.493 153.425 167.332 150.934 167.332 C 148.727 167.332 146.548 168.035 144.397 169.442 C 142.246 170.848 140.322 172.908 138.623 175.623 C 136.926 178.338 135.553 181.706 134.506 185.729 C 133.458 189.752 132.935 194.348 132.935 199.516 C 132.935 205.206 133.487 210.161 134.591 214.38 C 135.695 218.599 137.151 222.132 138.963 224.977 C 140.775 227.823 142.855 229.948 145.203 231.355 C 147.553 232.761 150.001 233.465 152.548 233.465 C 152.662 233.465 152.816 233.465 153.014 233.465 C 153.213 233.465 153.368 233.431 153.482 233.366 C 153.707 233.235 153.85 233.235 153.906 233.366 C 153.963 233.497 153.963 233.677 153.906 233.906 C 153.85 234.134 153.779 234.364 153.694 234.593 C 153.609 234.822 153.51 234.969 153.397 235.034 C 152.831 235.492 152.038 235.901 151.02 236.261 C 150.001 236.62 148.586 236.8 146.775 236.8 C 143.774 236.8 140.788 235.999 137.817 234.396 C 134.845 232.794 132.185 230.553 129.836 227.675 C 127.487 224.797 125.591 221.314 124.147 217.225 C 122.704 213.137 121.982 208.64 121.982 203.734 C 121.982 196.735 122.86 190.75 124.615 185.779 C 126.369 180.807 128.761 176.751 131.789 173.611 C 134.816 170.472 138.326 168.166 142.317 166.695 C 146.307 165.222 150.566 164.487 155.095 164.487 C 156.736 164.487 158.236 164.683 159.595 165.076 C 160.953 165.468 162.142 165.942 163.16 166.498 C 164.179 167.054 165.015 167.594 165.666 168.117 C 166.316 168.64 166.755 169.033 166.982 169.294 C 167.435 168.902 168.353 168.428 169.74 167.872 C 171.128 167.315 172.712 166.792 174.496 166.302 C 176.278 165.811 178.133 165.386 180.057 165.027 C 181.981 164.667 183.736 164.487 185.32 164.487 C 189.622 164.617 193.4 165.435 196.656 166.94 C 199.91 168.444 202.628 170.455 204.806 172.974 C 206.985 175.492 208.626 178.404 209.73 181.706 C 210.834 185.009 211.386 188.526 211.386 192.255 C 211.386 199.253 210.579 205.484 208.967 210.946 C 207.353 216.408 205.188 221.036 202.471 224.83 C 199.754 228.623 196.613 231.518 193.047 233.514 C 189.481 235.509 185.745 236.506 181.839 236.506 C 181.5 236.506 181.273 236.358 181.161 236.064 C 181.047 235.77 181.004 235.459 181.033 235.132 C 181.061 234.805 181.161 234.527 181.33 234.299 C 181.5 234.07 181.67 233.988 181.839 234.053 C 182.123 234.184 182.349 234.25 182.519 234.25 C 182.689 234.25 182.915 234.25 183.198 234.25 C 185.519 234.25 187.698 233.334 189.735 231.502 C 191.773 229.67 193.556 227.135 195.084 223.898 C 196.613 220.66 197.815 216.833 198.693 212.417 C 199.571 208.002 200.009 203.179 200.009 197.945 C 200.009 188.198 198.721 180.611 196.146 175.181 C 193.57 169.753 189.595 167.038 184.216 167.038 C 182.575 167.038 181.047 167.43 179.632 168.215 C 178.218 169 176.987 170.03 175.939 171.306 C 174.891 172.582 174.043 174.037 173.392 175.672 C 172.741 177.308 172.331 178.976 172.161 180.677 C 171.878 182.965 171.707 186.628 171.651 191.665 C 171.595 196.702 171.537 202.786 171.481 209.916 C 171.426 215.149 171.468 219.711 171.609 223.603 C 171.75 227.495 172.019 230.128 172.415 231.502 Z M 236.685 168.902 C 235.779 168.902 234.463 168.869 232.736 168.804 C 231.01 168.739 229.184 168.64 227.26 168.509 C 225.336 168.379 223.453 168.215 221.614 168.019 C 219.775 167.823 218.289 167.594 217.156 167.332 C 216.93 167.201 216.718 166.858 216.519 166.302 C 216.322 165.746 216.222 165.207 216.222 164.683 C 216.222 164.094 216.449 163.637 216.902 163.309 C 219.165 164.029 221.627 164.601 224.288 165.027 C 226.948 165.451 229.496 165.795 231.929 166.056 C 234.363 166.318 236.556 166.481 238.509 166.547 C 240.463 166.612 241.892 166.646 242.797 166.646 C 245.005 166.646 247.268 166.58 249.589 166.449 C 251.911 166.318 254.06 166.155 256.042 165.958 C 258.023 165.762 259.679 165.566 261.009 165.37 C 262.339 165.173 263.118 164.977 263.344 164.781 C 263.457 164.781 263.627 164.911 263.853 165.173 C 264.079 165.435 264.193 165.73 264.193 166.056 C 264.193 166.776 263.909 167.315 263.344 167.675 C 262.779 168.035 261.985 168.297 260.966 168.46 C 259.947 168.624 258.703 168.739 257.231 168.804 C 255.759 168.869 254.118 168.968 252.307 169.099 C 252.023 169.164 251.882 169.524 251.882 170.178 C 251.882 171.682 252.094 174.168 252.519 177.634 C 252.943 181.102 253.481 185.026 254.132 189.409 C 254.782 193.791 255.519 198.403 256.339 203.243 C 257.16 208.084 257.981 212.647 258.801 216.931 C 259.622 221.216 260.386 224.977 261.094 228.215 C 261.802 231.453 262.41 233.66 262.919 234.838 C 263.203 234.969 263.443 235.05 263.641 235.084 C 263.84 235.116 264.193 235.132 264.703 235.132 C 265.438 235.132 266.074 235.099 266.612 235.034 C 267.151 234.969 267.561 234.936 267.844 234.936 C 268.07 234.936 268.24 235.198 268.353 235.721 C 268.467 236.244 268.523 236.604 268.523 236.8 C 268.523 237.258 268.324 237.488 267.929 237.488 C 267.646 237.488 267.25 237.454 266.741 237.389 C 266.231 237.323 265.523 237.274 264.618 237.242 C 263.713 237.209 262.538 237.16 261.094 237.095 C 259.65 237.029 257.826 236.997 255.618 236.997 C 254.883 236.997 254.076 237.029 253.198 237.095 C 252.32 237.16 251.487 237.226 250.693 237.291 C 249.901 237.357 249.193 237.422 248.571 237.488 C 247.948 237.552 247.524 237.585 247.297 237.585 C 247.127 237.585 246.986 237.454 246.873 237.192 C 246.759 236.931 246.703 236.637 246.703 236.31 C 246.703 235.983 246.746 235.704 246.831 235.476 C 246.915 235.247 247.072 235.132 247.297 235.132 C 247.807 235.067 248.486 235.018 249.335 234.985 C 250.184 234.953 250.608 234.707 250.608 234.25 C 250.608 233.857 250.468 232.68 250.184 230.717 C 249.901 228.754 249.547 226.399 249.123 223.652 C 248.698 220.905 248.245 217.978 247.764 214.871 C 247.284 211.763 246.816 208.869 246.363 206.187 C 245.344 205.991 244.057 205.827 242.5 205.697 C 240.944 205.566 239.316 205.501 237.618 205.501 C 235.637 205.501 233.755 205.598 231.972 205.795 C 230.189 205.991 228.788 206.351 227.77 206.874 C 227.486 208.313 227.175 209.834 226.836 211.437 C 226.495 213.039 226.17 214.658 225.859 216.294 C 225.548 217.929 225.279 219.548 225.052 221.15 C 224.827 222.753 224.713 224.241 224.713 225.614 C 224.713 228.297 225.209 230.227 226.198 231.404 C 227.188 232.581 228.419 233.17 229.891 233.17 C 231.363 233.17 232.283 233.121 232.651 233.023 C 233.02 232.925 233.344 232.875 233.628 232.875 C 234.081 232.875 234.307 233.006 234.307 233.268 C 234.307 233.399 234.179 233.611 233.925 233.906 C 233.67 234.2 233.344 234.511 232.948 234.838 C 232.439 235.296 231.773 235.869 230.953 236.555 C 230.133 237.242 229.071 237.585 227.77 237.585 C 227.599 237.585 227.162 237.552 226.453 237.488 C 225.745 237.422 224.883 237.34 223.864 237.242 C 222.845 237.143 221.77 237.062 220.637 236.997 C 219.505 236.931 218.43 236.898 217.411 236.898 C 215.997 236.898 214.851 236.931 213.972 236.997 C 213.095 237.062 212.402 237.128 211.892 237.192 C 211.383 237.258 211.029 237.323 210.831 237.389 C 210.632 237.454 210.478 237.488 210.364 237.488 C 210.25 237.488 210.152 237.372 210.067 237.143 C 209.982 236.915 209.939 236.669 209.939 236.408 C 209.939 236.015 210.081 235.787 210.364 235.721 C 210.93 235.459 211.751 234.969 212.826 234.25 C 213.959 233.465 214.962 232.14 215.841 230.276 C 216.718 228.411 217.722 225.876 218.854 222.672 C 219.647 220.513 220.524 217.569 221.487 213.841 C 222.449 210.112 223.411 206.024 224.373 201.575 C 225.336 197.127 226.241 192.467 227.09 187.593 C 227.939 182.721 228.647 178.027 229.213 173.513 L 236.685 168.902 Z M 245.344 199.417 C 245.061 197.781 244.736 195.754 244.368 193.334 C 243.999 190.913 243.618 188.444 243.221 185.925 C 242.826 183.407 242.443 181.036 242.075 178.812 C 241.707 176.588 241.41 174.887 241.185 173.71 C 240.844 171.943 240.547 170.832 240.293 170.373 C 240.038 169.916 239.769 169.687 239.486 169.687 C 238.92 169.687 238.326 170.227 237.703 171.306 C 237.08 172.385 236.416 173.824 235.708 175.623 C 235 177.422 234.307 179.483 233.628 181.805 C 232.948 184.127 232.283 186.514 231.632 188.967 C 230.982 191.421 230.388 193.857 229.849 196.278 C 229.311 198.697 228.874 200.889 228.533 202.851 C 229.438 202.589 230.585 202.312 231.972 202.017 C 233.359 201.723 234.83 201.412 236.387 201.085 C 237.944 200.758 239.499 200.447 241.056 200.153 C 242.614 199.859 244.042 199.613 245.344 199.417 Z M 282.104 236.31 C 281.085 236.31 279.954 236.326 278.708 236.358 C 277.464 236.392 276.246 236.424 275.058 236.457 C 273.869 236.489 272.752 236.555 271.704 236.653 C 270.656 236.751 269.85 236.833 269.284 236.898 L 267.926 237.095 C 267.643 237.095 267.403 236.915 267.204 236.555 C 267.005 236.195 266.907 235.852 266.907 235.525 C 266.907 235.263 267.02 234.985 267.246 234.691 C 267.472 234.396 267.784 234.25 268.181 234.25 C 270.558 234.25 272.454 234.085 273.869 233.759 C 275.283 233.431 276.132 233.006 276.416 232.483 C 276.755 231.698 277.109 229.948 277.477 227.233 C 277.845 224.519 278.17 221.347 278.454 217.716 C 278.737 214.086 278.963 210.275 279.133 206.286 C 279.303 202.295 279.388 198.599 279.388 195.198 C 279.388 191.47 279.374 188.346 279.345 185.828 C 279.316 183.309 279.288 181.232 279.261 179.597 C 279.232 177.962 279.204 176.703 279.176 175.82 C 279.147 174.936 279.133 174.299 279.133 173.907 C 279.076 171.812 278.822 170.423 278.369 169.736 C 277.916 169.049 277.095 168.64 275.907 168.509 C 275.058 168.379 274.068 168.346 272.935 168.411 C 271.802 168.477 270.982 168.477 270.473 168.411 C 270.077 168.346 269.737 168.265 269.454 168.166 C 269.171 168.068 269.03 167.725 269.03 167.135 C 269.03 166.481 269.171 166.041 269.454 165.811 C 269.737 165.582 270.048 165.468 270.388 165.468 C 270.841 165.468 272.298 165.582 274.761 165.811 C 277.223 166.041 280.746 166.155 285.331 166.155 C 288.332 166.155 290.892 166.073 293.015 165.909 C 295.137 165.746 296.595 165.599 297.387 165.468 C 297.783 165.468 298.165 165.516 298.533 165.615 C 298.902 165.713 299.086 166.024 299.086 166.547 C 299.086 167.659 298.435 168.28 297.133 168.411 C 296.68 168.411 296.17 168.444 295.604 168.509 C 295.039 168.575 294.487 168.64 293.949 168.706 C 293.411 168.771 292.916 168.869 292.463 169 C 292.01 169.131 291.67 169.229 291.444 169.294 C 291.161 169.425 290.892 170.619 290.637 172.876 C 290.383 175.132 290.156 177.928 289.958 181.265 C 289.76 184.601 289.576 188.198 289.406 192.058 C 289.237 195.918 289.123 199.482 289.067 202.753 C 289.01 205.239 288.968 208.133 288.939 211.437 C 288.911 214.74 288.939 217.913 289.025 220.954 C 289.109 223.995 289.237 226.629 289.406 228.852 C 289.576 231.076 289.83 232.352 290.171 232.68 C 290.396 232.875 290.82 233.055 291.444 233.219 C 292.067 233.383 292.802 233.546 293.652 233.71 C 294.5 233.873 295.364 233.988 296.241 234.053 C 297.118 234.119 297.925 234.151 298.661 234.151 C 299.283 234.151 299.679 234.216 299.849 234.347 C 300.019 234.478 300.104 234.805 300.104 235.329 C 300.104 235.918 299.892 236.343 299.467 236.604 C 299.043 236.866 298.605 236.997 298.152 236.997 C 297.811 236.997 297.302 236.964 296.623 236.898 C 295.944 236.833 295.01 236.751 293.821 236.653 C 292.633 236.555 291.133 236.473 289.322 236.408 C 287.509 236.343 285.275 236.31 282.614 236.31 L 282.104 236.31 Z M 303.074 234.25 C 303.696 234.25 304.347 234.233 305.027 234.2 C 305.705 234.168 306.244 234.085 306.639 233.954 C 307.035 233.824 307.375 233.579 307.658 233.219 C 307.942 232.86 308.196 232.205 308.423 231.256 C 308.648 230.308 308.847 228.968 309.016 227.233 C 309.187 225.5 309.314 223.195 309.399 220.317 C 309.484 217.438 309.555 213.873 309.611 209.621 C 309.667 205.37 309.696 200.235 309.696 194.217 C 309.696 189.311 309.64 185.223 309.526 181.951 C 309.413 178.681 309.243 176.048 309.016 174.053 C 308.791 172.058 308.494 170.635 308.126 169.785 C 307.757 168.934 307.29 168.509 306.724 168.509 C 306.441 168.509 306.059 168.526 305.578 168.559 C 305.098 168.591 304.601 168.608 304.092 168.608 C 303.583 168.608 303.116 168.624 302.692 168.657 C 302.267 168.689 301.999 168.706 301.885 168.706 C 301.771 168.706 301.686 168.575 301.63 168.313 C 301.574 168.051 301.546 167.789 301.546 167.528 C 301.546 167.266 301.574 166.94 301.63 166.547 C 301.686 166.155 301.885 165.958 302.224 165.958 L 309.781 165.958 C 312.215 165.958 314.225 165.893 315.81 165.762 C 317.393 165.631 318.894 165.402 320.309 165.076 C 321.158 164.879 321.526 165.207 321.413 166.056 C 321.356 166.449 321.299 167.103 321.243 168.019 C 321.187 168.934 321.115 169.916 321.03 170.963 C 320.946 172.009 320.874 173.007 320.818 173.955 C 320.763 174.904 320.734 175.607 320.734 176.065 C 321.413 175.149 322.53 174.037 324.087 172.728 C 325.644 171.42 327.47 170.178 329.564 169 C 331.657 167.823 333.95 166.809 336.441 165.958 C 338.932 165.108 341.45 164.683 343.997 164.683 C 347.393 164.683 350.535 165.19 353.421 166.204 C 356.308 167.218 358.785 168.722 360.851 170.717 C 362.917 172.712 364.53 175.23 365.69 178.273 C 366.85 181.314 367.431 184.895 367.431 189.017 C 367.431 191.698 367.204 194.462 366.751 197.307 C 366.298 200.153 365.732 202.982 365.053 205.795 C 364.374 208.607 363.638 211.338 362.846 213.987 C 362.053 216.637 361.318 219.09 360.638 221.347 C 359.959 223.603 359.393 225.614 358.94 227.381 C 358.487 229.147 358.261 230.521 358.261 231.502 C 358.261 232.221 358.558 232.794 359.153 233.219 C 359.747 233.645 360.779 233.857 362.251 233.857 C 363.045 233.857 363.709 233.824 364.247 233.759 C 364.785 233.693 365.252 233.497 365.647 233.17 C 365.874 233.039 366.1 233.17 366.327 233.562 C 366.441 233.759 366.497 233.988 366.497 234.25 C 366.497 234.576 366.34 235.034 366.03 235.623 C 365.719 236.212 365.364 236.506 364.969 236.506 C 364.516 236.506 363.525 236.506 361.997 236.506 C 360.469 236.506 358.813 236.523 357.03 236.555 C 355.247 236.588 353.492 236.604 351.766 236.604 C 350.04 236.604 348.724 236.604 347.818 236.604 C 346.969 236.604 346.544 236.277 346.544 235.623 C 346.544 235.23 346.573 234.985 346.629 234.887 C 346.686 234.789 346.785 234.724 346.927 234.691 C 347.068 234.658 347.237 234.593 347.436 234.494 C 347.634 234.396 347.902 234.151 348.243 233.759 C 348.865 232.646 349.516 230.799 350.196 228.215 C 350.874 225.631 351.483 222.606 352.02 219.138 C 352.558 215.672 353.01 211.911 353.379 207.856 C 353.747 203.799 353.931 199.744 353.931 195.688 C 353.931 191.436 353.506 187.708 352.658 184.503 C 351.808 181.297 350.649 178.616 349.177 176.457 C 347.705 174.299 346.006 172.68 344.082 171.6 C 342.158 170.521 340.12 169.981 337.97 169.981 C 336.101 169.981 334.191 170.39 332.238 171.208 C 330.286 172.026 328.489 173.137 326.847 174.544 C 325.204 175.95 323.776 177.585 322.559 179.45 C 321.342 181.314 320.564 183.26 320.225 185.288 C 320.054 186.204 319.913 187.806 319.799 190.096 C 319.686 192.385 319.601 195.034 319.545 198.043 C 319.489 201.052 319.447 204.225 319.418 207.56 C 319.389 210.897 319.375 214.069 319.375 217.079 C 319.375 218.975 319.403 220.791 319.46 222.524 C 319.516 224.257 319.601 225.827 319.715 227.233 C 319.828 228.64 319.941 229.834 320.054 230.815 C 320.168 231.796 320.281 232.418 320.394 232.68 C 320.62 233.268 320.874 233.677 321.158 233.906 C 321.441 234.134 322.234 234.25 323.536 234.25 C 324.101 234.25 324.54 234.216 324.852 234.151 C 325.162 234.085 325.545 234.053 325.998 234.053 C 326.393 234.053 326.649 234.233 326.761 234.593 C 326.875 234.953 326.932 235.263 326.932 235.525 C 326.932 235.656 326.833 235.852 326.634 236.113 C 326.435 236.375 326.197 236.506 325.913 236.506 C 325.573 236.506 324.992 236.489 324.172 236.457 C 323.352 236.424 322.432 236.408 321.413 236.408 C 320.394 236.408 319.389 236.392 318.399 236.358 C 317.409 236.326 316.63 236.31 316.064 236.31 C 314.592 236.31 313.079 236.326 311.522 236.358 C 309.965 236.392 308.507 236.424 307.149 236.457 C 305.791 236.489 304.588 236.538 303.541 236.604 C 302.493 236.669 301.8 236.735 301.461 236.8 C 301.12 236.8 300.951 236.538 300.951 236.015 C 300.951 235.689 301.05 235.312 301.248 234.887 C 301.446 234.462 301.686 234.25 301.97 234.25 L 303.074 234.25 Z" style="fill: rgb(227, 253, 185);"></path>
    <path d="M 111.548 296.68 C 111.444 296.68 111.341 296.664 111.238 296.633 C 111.133 296.601 111.057 296.491 111.005 296.301 C 111.005 296.237 111.071 296.017 111.199 295.637 C 111.327 295.258 111.548 294.847 111.858 294.404 C 112.168 293.962 112.556 293.567 113.021 293.219 C 113.486 292.872 114.055 292.697 114.727 292.697 C 115.554 292.697 116.226 292.966 116.744 293.504 C 117.26 294.04 117.673 294.784 117.983 295.731 C 118.294 296.68 118.5 297.771 118.604 299.004 C 118.708 300.237 118.759 301.549 118.759 302.94 C 118.915 304.457 119.496 306.005 120.504 307.586 C 121.511 309.167 122.753 310.59 124.226 311.853 C 125.699 313.118 127.315 314.162 129.072 314.983 C 130.83 315.806 132.535 316.248 134.191 316.311 C 138.118 316.438 140.987 315.41 142.797 313.229 C 144.607 311.048 145.511 308.25 145.511 304.837 C 145.511 301.991 145.072 299.684 144.193 297.913 C 143.313 296.143 142.138 294.72 140.665 293.645 C 139.191 292.571 137.525 291.702 135.663 291.038 C 133.803 290.374 131.903 289.757 129.964 289.188 C 128.025 288.619 126.126 287.988 124.264 287.291 C 122.404 286.596 120.736 285.648 119.264 284.447 C 117.789 283.245 116.613 281.68 115.735 279.752 C 114.856 277.824 114.418 275.343 114.418 272.308 C 114.418 269.4 114.947 266.634 116.007 264.01 C 117.066 261.386 118.578 259.078 120.542 257.087 C 122.507 255.095 124.897 253.515 127.715 252.345 C 130.532 251.175 133.724 250.591 137.292 250.591 C 140.704 250.591 143.624 251.001 146.054 251.824 C 148.484 252.646 150.345 253.278 151.638 253.72 C 151.896 253.215 152.179 252.629 152.49 251.966 C 152.801 251.302 153.148 250.686 153.536 250.117 C 153.924 249.547 154.351 249.058 154.817 248.646 C 155.281 248.235 155.825 248.03 156.444 248.03 C 156.91 248.03 157.285 248.204 157.569 248.552 C 157.852 248.9 157.996 249.232 157.996 249.547 C 157.891 249.863 157.685 250.117 157.375 250.306 C 157.065 250.495 156.781 250.686 156.522 250.875 C 154.92 251.887 153.588 254.242 152.528 257.941 C 151.47 261.639 150.862 266.175 150.707 271.549 C 150.655 271.675 150.525 271.77 150.319 271.834 C 150.113 271.897 149.88 271.929 149.621 271.929 C 149.207 271.929 148.924 271.897 148.769 271.834 C 148.613 269.937 148.148 268.009 147.373 266.049 C 146.598 264.089 145.524 262.303 144.154 260.691 C 142.784 259.078 141.104 257.767 139.114 256.755 C 137.124 255.744 134.862 255.238 132.329 255.238 C 130.778 255.238 129.382 255.507 128.142 256.044 C 126.901 256.581 125.854 257.309 125.001 258.225 C 124.148 259.141 123.501 260.169 123.063 261.307 C 122.624 262.445 122.404 263.583 122.404 264.722 C 122.404 267.377 123.283 269.795 125.039 271.976 C 126.798 274.157 129.46 275.785 133.028 276.86 C 135.249 277.555 137.563 278.33 139.966 279.183 C 142.371 280.037 144.555 281.191 146.519 282.645 C 148.484 284.098 150.113 285.932 151.404 288.145 C 152.697 290.358 153.342 293.172 153.342 296.586 C 153.342 299.936 152.709 303.144 151.444 306.211 C 150.176 309.278 148.509 311.981 146.441 314.319 C 144.374 316.659 142.022 318.524 139.385 319.915 C 136.749 321.306 134.061 322.001 131.321 322.001 C 129.201 322.001 127.134 321.827 125.118 321.48 C 123.101 321.132 121.241 320.721 119.535 320.247 C 117.828 319.772 116.329 319.266 115.037 318.73 C 113.745 318.192 112.788 317.734 112.168 317.354 C 112.633 316.342 113.111 315.268 113.602 314.13 C 114.093 312.992 114.56 311.79 114.999 310.526 C 115.437 309.261 115.8 307.95 116.084 306.591 C 116.368 305.232 116.51 303.793 116.51 302.276 C 116.51 300.063 116.239 298.388 115.696 297.249 C 115.153 296.111 114.52 295.542 113.796 295.542 C 113.279 295.542 112.917 295.668 112.711 295.922 C 112.504 296.174 112.245 296.554 111.935 297.06 L 111.548 296.68 Z M 186.292 253.436 C 191.565 253.436 195.739 253.278 198.815 252.961 C 201.891 252.646 204.27 252.234 205.949 251.728 C 207.629 251.223 208.754 250.654 209.322 250.022 C 209.891 249.39 210.279 248.757 210.485 248.125 C 210.589 247.809 210.847 247.651 211.261 247.651 C 211.777 247.651 212.036 247.809 212.036 248.125 C 211.933 248.251 211.765 248.726 211.533 249.547 C 211.3 250.369 211.015 251.365 210.679 252.535 C 210.343 253.704 209.993 254.969 209.633 256.328 C 209.271 257.687 208.935 258.983 208.625 260.216 C 208.314 261.449 208.055 262.54 207.849 263.489 C 207.642 264.436 207.539 265.069 207.539 265.385 C 207.436 265.385 207.306 265.401 207.151 265.432 C 206.996 265.464 206.841 265.48 206.686 265.48 C 206.221 265.48 205.988 265.29 205.988 264.911 C 205.988 264.594 206.014 264.216 206.065 263.773 C 206.116 263.33 206.143 262.951 206.143 262.634 C 206.143 262.319 206.116 262.097 206.065 261.971 C 205.807 261.338 204.942 260.865 203.468 260.548 C 201.994 260.233 200.289 260.011 198.351 259.884 C 196.412 259.758 194.434 259.679 192.418 259.647 C 190.402 259.616 188.748 259.6 187.455 259.6 C 185.491 259.6 183.539 260.279 181.601 261.639 C 179.662 262.998 177.931 264.942 176.406 267.471 C 174.881 270.001 173.64 273.114 172.684 276.813 C 171.728 280.511 171.25 284.699 171.25 289.378 C 171.25 293.488 171.624 297.281 172.374 300.758 C 173.122 304.236 174.196 307.27 175.592 309.862 C 176.987 312.454 178.693 314.478 180.71 315.932 C 182.725 317.386 185 318.113 187.533 318.113 C 189.964 318.113 192.096 317.56 193.93 316.453 C 195.765 315.347 197.303 313.909 198.545 312.138 C 199.784 310.368 200.728 308.345 201.374 306.068 C 202.021 303.793 202.343 301.453 202.343 299.052 C 202.343 297.344 202.176 295.7 201.84 294.12 C 201.503 292.54 200.999 291.133 200.328 289.9 C 199.656 288.667 198.79 287.687 197.73 286.959 C 196.67 286.232 195.443 285.869 194.047 285.869 C 191.875 285.869 190.352 286.454 189.472 287.623 C 188.593 288.793 188.154 290.042 188.154 291.37 C 188.154 292.571 188.437 293.63 189.006 294.546 C 189.576 295.464 190.325 295.922 191.255 295.922 C 191.824 295.922 192.108 296.174 192.108 296.68 C 192.108 296.87 192.031 297.06 191.875 297.249 C 191.617 297.692 190.893 298.134 189.704 298.577 C 188.516 299.02 187.094 299.241 185.44 299.241 C 183.424 299.241 181.769 298.592 180.476 297.296 C 179.185 296 178.538 294.435 178.538 292.603 C 178.538 291.401 179.003 290.232 179.935 289.093 C 180.864 287.955 182.144 286.928 183.772 286.011 C 185.401 285.095 187.352 284.367 189.627 283.831 C 191.902 283.293 194.357 283.024 196.994 283.024 C 199.32 283.024 201.464 283.308 203.43 283.878 C 205.394 284.447 207.086 285.253 208.508 286.296 C 209.931 287.339 211.054 288.604 211.881 290.089 C 212.708 291.576 213.123 293.235 213.123 295.068 C 213.123 297.85 212.398 300.806 210.952 303.935 C 209.503 307.065 207.512 309.941 204.98 312.565 C 202.447 315.189 199.462 317.354 196.025 319.062 C 192.586 320.768 188.903 321.622 184.975 321.622 C 180.943 321.622 177.363 320.911 174.235 319.488 C 171.107 318.066 168.47 316.075 166.325 313.514 C 164.181 310.953 162.538 307.918 161.401 304.409 C 160.264 300.9 159.695 297.06 159.695 292.887 C 159.695 289.726 160.083 286.755 160.858 283.972 C 161.634 281.191 162.642 278.599 163.882 276.196 C 165.123 273.794 166.493 271.612 167.993 269.652 C 169.492 267.692 170.951 266.001 172.374 264.579 C 173.795 263.157 175.1 262.034 176.289 261.212 C 177.478 260.39 178.357 259.884 178.926 259.695 C 177.169 259.758 175.293 259.853 173.303 259.979 C 171.314 260.105 169.414 260.279 167.605 260.5 C 165.795 260.722 164.193 261.006 162.797 261.355 C 161.401 261.702 160.445 262.128 159.928 262.634 C 159.359 263.14 158.894 263.804 158.532 264.626 C 158.172 265.448 157.86 266.302 157.602 267.186 C 157.188 267.186 156.852 267.108 156.594 266.949 C 156.335 266.791 156.129 266.428 155.974 265.859 C 156.438 265.1 156.943 263.899 157.486 262.256 C 158.028 260.611 158.571 258.889 159.114 257.087 C 159.657 255.285 160.122 253.625 160.51 252.108 C 160.897 250.591 161.169 249.611 161.325 249.168 C 161.529 249.041 161.763 248.978 162.022 248.978 C 162.228 248.978 162.436 249.041 162.642 249.168 C 162.488 249.927 162.409 250.528 162.409 250.97 C 162.409 251.602 162.669 252.013 163.185 252.203 C 164.684 252.709 166.558 253.041 168.806 253.198 C 171.056 253.356 173.653 253.436 176.6 253.436 L 186.292 253.436 Z M 235.769 255.048 C 234.942 255.048 233.74 255.016 232.163 254.953 C 230.586 254.89 228.919 254.795 227.162 254.669 C 225.404 254.542 223.686 254.385 222.005 254.194 C 220.326 254.005 218.969 253.784 217.934 253.53 C 217.728 253.404 217.534 253.072 217.352 252.535 C 217.172 251.997 217.081 251.476 217.081 250.97 C 217.081 250.401 217.288 249.959 217.701 249.642 C 219.77 250.338 222.018 250.891 224.448 251.302 C 226.878 251.713 229.205 252.045 231.427 252.297 C 233.649 252.551 235.653 252.709 237.437 252.772 C 239.219 252.835 240.525 252.867 241.352 252.867 C 243.368 252.867 245.436 252.803 247.555 252.677 C 249.675 252.551 251.639 252.392 253.449 252.203 C 255.258 252.013 256.77 251.824 257.985 251.634 C 259.2 251.444 259.911 251.255 260.117 251.064 C 260.221 251.064 260.377 251.192 260.583 251.444 C 260.789 251.697 260.893 251.982 260.893 252.297 C 260.893 252.993 260.633 253.515 260.117 253.862 C 259.601 254.21 258.877 254.463 257.946 254.621 C 257.016 254.78 255.879 254.89 254.534 254.953 C 253.19 255.016 251.692 255.112 250.036 255.238 C 249.778 255.301 249.649 255.648 249.649 256.28 C 249.649 257.735 249.843 260.137 250.23 263.489 C 250.618 266.839 251.11 270.633 251.705 274.868 C 252.298 279.105 252.97 283.562 253.721 288.24 C 254.469 292.918 255.22 297.328 255.969 301.47 C 256.718 305.61 257.416 309.246 258.062 312.376 C 258.709 315.505 259.264 317.638 259.73 318.777 C 259.989 318.903 260.208 318.982 260.389 319.014 C 260.571 319.045 260.893 319.062 261.358 319.062 C 262.029 319.062 262.61 319.03 263.103 318.966 C 263.594 318.903 263.967 318.871 264.227 318.871 C 264.434 318.871 264.589 319.125 264.693 319.631 C 264.795 320.136 264.847 320.484 264.847 320.673 C 264.847 321.116 264.666 321.337 264.305 321.337 C 264.046 321.337 263.684 321.306 263.219 321.243 C 262.755 321.179 262.107 321.132 261.28 321.1 C 260.453 321.068 259.381 321.022 258.062 320.958 C 256.744 320.894 255.077 320.863 253.061 320.863 C 252.388 320.863 251.653 320.894 250.851 320.958 C 250.049 321.022 249.287 321.085 248.563 321.148 C 247.84 321.211 247.194 321.274 246.625 321.337 C 246.056 321.4 245.669 321.432 245.462 321.432 C 245.307 321.432 245.177 321.306 245.074 321.053 C 244.971 320.8 244.919 320.516 244.919 320.199 C 244.919 319.883 244.958 319.615 245.035 319.394 C 245.113 319.172 245.256 319.062 245.462 319.062 C 245.927 318.999 246.547 318.951 247.323 318.919 C 248.098 318.888 248.486 318.65 248.486 318.208 C 248.486 317.829 248.358 316.691 248.098 314.794 C 247.84 312.897 247.517 310.621 247.129 307.965 C 246.741 305.31 246.328 302.481 245.888 299.478 C 245.45 296.475 245.022 293.677 244.609 291.085 C 243.678 290.895 242.502 290.738 241.081 290.611 C 239.658 290.484 238.173 290.421 236.623 290.421 C 234.812 290.421 233.095 290.516 231.465 290.706 C 229.837 290.895 228.558 291.244 227.627 291.749 C 227.369 293.139 227.084 294.61 226.774 296.159 C 226.464 297.708 226.167 299.273 225.882 300.853 C 225.598 302.434 225.352 303.999 225.146 305.547 C 224.939 307.097 224.836 308.534 224.836 309.862 C 224.836 312.454 225.288 314.319 226.193 315.458 C 227.096 316.596 228.222 317.165 229.566 317.165 C 230.911 317.165 231.75 317.117 232.086 317.022 C 232.422 316.928 232.719 316.88 232.977 316.88 C 233.391 316.88 233.598 317.006 233.598 317.26 C 233.598 317.386 233.482 317.592 233.249 317.876 C 233.016 318.161 232.719 318.461 232.357 318.777 C 231.892 319.22 231.284 319.772 230.535 320.436 C 229.786 321.1 228.817 321.432 227.627 321.432 C 227.472 321.432 227.071 321.4 226.425 321.337 C 225.779 321.274 224.991 321.195 224.06 321.1 C 223.13 321.005 222.148 320.927 221.114 320.863 C 220.079 320.8 219.097 320.768 218.168 320.768 C 216.874 320.768 215.829 320.8 215.026 320.863 C 214.225 320.927 213.592 320.99 213.127 321.053 C 212.661 321.116 212.339 321.179 212.157 321.243 C 211.976 321.306 211.834 321.337 211.731 321.337 C 211.628 321.337 211.537 321.226 211.46 321.005 C 211.382 320.784 211.343 320.547 211.343 320.295 C 211.343 319.915 211.473 319.694 211.731 319.631 C 212.248 319.377 212.997 318.903 213.98 318.208 C 215.014 317.449 215.931 316.169 216.732 314.367 C 217.534 312.565 218.451 310.115 219.485 307.017 C 220.208 304.931 221.01 302.086 221.889 298.482 C 222.768 294.878 223.647 290.927 224.525 286.627 C 225.404 282.329 226.231 277.824 227.007 273.114 C 227.782 268.404 228.428 263.867 228.945 259.505 L 235.769 255.048 Z M 243.678 284.541 C 243.42 282.961 243.124 281.001 242.787 278.662 C 242.451 276.322 242.102 273.936 241.74 271.501 C 241.378 269.068 241.029 266.776 240.693 264.626 C 240.357 262.477 240.085 260.832 239.879 259.695 C 239.569 257.988 239.298 256.913 239.064 256.471 C 238.831 256.028 238.587 255.807 238.328 255.807 C 237.811 255.807 237.268 256.328 236.699 257.372 C 236.13 258.414 235.523 259.805 234.878 261.544 C 234.231 263.283 233.598 265.274 232.977 267.518 C 232.357 269.763 231.75 272.07 231.156 274.442 C 230.562 276.813 230.018 279.168 229.527 281.506 C 229.035 283.846 228.635 285.964 228.325 287.86 C 229.152 287.608 230.198 287.339 231.465 287.055 C 232.733 286.77 234.076 286.47 235.497 286.154 C 236.92 285.837 238.34 285.537 239.763 285.253 C 241.184 284.968 242.49 284.731 243.678 284.541 Z M 320.21 242.435 C 320.934 242.435 321.412 242.641 321.643 243.051 C 321.876 243.462 321.993 244.111 321.993 244.995 C 319.356 248.22 317.444 252.219 316.255 256.992 C 315.066 261.765 314.445 267.314 314.394 273.635 C 314.394 273.826 314.265 274.015 314.006 274.204 C 313.747 274.394 313.476 274.536 313.192 274.631 C 312.908 274.727 312.636 274.758 312.379 274.727 C 312.119 274.694 311.991 274.521 311.991 274.204 C 311.991 273.952 312.003 273.635 312.029 273.256 C 312.055 272.877 312.067 272.465 312.067 272.024 C 312.067 270.506 311.653 268.768 310.827 266.808 C 310.001 264.848 308.863 262.966 307.415 261.164 C 305.968 259.363 304.275 257.845 302.336 256.612 C 300.398 255.38 298.316 254.763 296.095 254.763 C 293.043 254.763 290.343 255.601 287.991 257.276 C 285.638 258.952 283.661 261.181 282.058 263.962 C 280.456 266.745 279.229 269.984 278.375 273.683 C 277.523 277.382 277.096 281.254 277.096 285.3 C 277.096 289.852 277.6 294.136 278.608 298.151 C 279.617 302.165 281.025 305.673 282.834 308.677 C 284.644 311.68 286.828 314.067 289.387 315.837 C 291.945 317.607 294.749 318.493 297.8 318.493 C 299.867 318.493 301.728 318.066 303.382 317.212 C 305.037 316.359 306.433 315.189 307.57 313.703 C 308.706 312.218 309.586 310.463 310.207 308.44 C 310.827 306.417 311.137 304.236 311.137 301.896 C 311.137 299.999 310.904 298.087 310.439 296.159 C 309.974 294.231 309.327 292.492 308.501 290.943 C 307.675 289.394 306.716 288.129 305.632 287.15 C 304.546 286.169 303.357 285.68 302.064 285.68 C 301.289 285.68 300.513 285.791 299.738 286.011 C 298.963 286.232 298.266 286.581 297.645 287.055 C 297.024 287.528 296.532 288.114 296.171 288.809 C 295.809 289.505 295.628 290.358 295.628 291.37 C 295.628 292.128 295.732 292.84 295.939 293.504 C 296.144 294.168 296.404 294.736 296.714 295.21 C 297.024 295.685 297.334 296.064 297.645 296.348 C 297.955 296.633 298.214 296.743 298.421 296.68 C 298.678 296.617 298.872 296.76 299.002 297.107 C 299.131 297.455 299.145 297.692 299.041 297.819 C 298.782 298.197 297.903 298.657 296.404 299.193 C 294.905 299.731 293.121 299.999 291.054 299.999 C 289.193 299.999 287.732 299.273 286.673 297.819 C 285.613 296.364 285.083 294.689 285.083 292.792 C 285.083 291.591 285.574 290.374 286.556 289.141 C 287.538 287.908 288.882 286.802 290.589 285.822 C 292.294 284.842 294.285 284.035 296.559 283.403 C 298.834 282.771 301.263 282.455 303.848 282.455 C 306.64 282.455 309.121 282.835 311.292 283.593 C 313.463 284.352 315.298 285.396 316.797 286.723 C 318.296 288.051 319.434 289.599 320.21 291.37 C 320.985 293.139 321.373 295.005 321.373 296.964 C 321.373 299.999 320.648 303.018 319.202 306.022 C 317.755 309.025 315.841 311.712 313.463 314.082 C 311.085 316.453 308.358 318.382 305.283 319.867 C 302.206 321.354 299.041 322.096 295.784 322.096 C 290.82 322.096 286.44 321.274 282.64 319.631 C 278.842 317.987 275.675 315.679 273.142 312.708 C 270.608 309.736 268.695 306.227 267.404 302.18 C 266.111 298.134 265.465 293.677 265.465 288.809 C 265.465 283.562 266.343 278.63 268.101 274.015 C 269.858 269.4 272.262 265.353 275.313 261.876 C 278.362 258.399 281.955 255.664 286.091 253.673 C 290.227 251.681 294.698 250.686 299.505 250.686 C 303.227 250.686 306.304 251.128 308.733 252.013 C 311.164 252.898 313.127 253.625 314.626 254.194 C 314.833 253.562 315.131 252.661 315.519 251.492 C 315.907 250.322 316.345 249.136 316.837 247.936 C 317.327 246.734 317.857 245.611 318.426 244.569 C 318.995 243.525 319.59 242.815 320.21 242.435 Z M 371.077 324.372 C 370.974 323.486 370.78 322.555 370.496 321.574 C 370.213 320.594 369.605 320.104 368.675 320.104 C 367.899 320.104 366.852 320.152 365.534 320.247 C 364.215 320.341 362.808 320.468 361.308 320.627 C 359.809 320.784 358.31 320.911 356.811 321.005 C 355.311 321.1 353.992 321.148 352.855 321.148 C 348.358 321.148 344.377 320.358 340.914 318.777 C 337.451 317.197 334.529 315.015 332.152 312.233 C 329.775 309.452 327.965 306.116 326.723 302.228 C 325.483 298.34 324.863 294.057 324.863 289.378 C 324.863 282.866 325.716 277.255 327.422 272.545 C 329.128 267.835 331.427 263.962 334.324 260.928 C 337.218 257.893 340.552 255.664 344.326 254.242 C 348.099 252.82 352.054 252.108 356.189 252.108 C 357.431 252.108 358.775 252.156 360.222 252.251 C 361.669 252.345 363.039 252.472 364.332 252.629 C 365.624 252.788 366.761 252.946 367.743 253.104 C 368.725 253.262 369.423 253.404 369.838 253.53 C 370.095 253.593 370.354 253.056 370.613 251.919 C 370.871 250.78 371.195 249.531 371.582 248.172 C 371.97 246.813 372.422 245.548 372.939 244.378 C 373.455 243.21 374.076 242.624 374.799 242.624 C 375.679 242.941 376.299 243.288 376.661 243.668 C 377.023 244.048 376.842 244.553 376.118 245.185 C 374.929 246.323 373.934 247.856 373.133 249.785 C 372.331 251.713 371.621 254.036 371.001 256.755 C 370.741 257.576 370.47 258.746 370.187 260.264 C 369.901 261.781 369.657 263.489 369.45 265.385 C 369.346 265.89 369.024 266.128 368.481 266.096 C 367.937 266.064 367.562 265.606 367.356 264.722 C 367.097 263.836 366.606 262.84 365.882 261.733 C 365.159 260.628 364.202 259.569 363.014 258.557 C 361.825 257.545 360.403 256.708 358.749 256.044 C 357.095 255.38 355.233 255.048 353.166 255.048 C 350.84 255.048 348.72 255.791 346.807 257.276 C 344.895 258.762 343.24 260.722 341.844 263.157 C 340.449 265.59 339.337 268.373 338.51 271.501 C 337.684 274.631 337.192 277.872 337.037 281.222 C 337.451 281.348 338.316 281.475 339.635 281.602 C 340.953 281.728 342.388 281.823 343.938 281.886 C 345.489 281.949 346.988 281.997 348.435 282.029 C 349.883 282.06 350.968 282.044 351.692 281.981 C 353.347 281.981 354.974 281.886 356.577 281.697 C 358.179 281.506 359.654 281.239 360.998 280.89 C 362.342 280.542 363.505 280.147 364.487 279.705 C 365.469 279.262 366.167 278.788 366.58 278.282 C 366.787 277.903 367.085 277.745 367.473 277.808 C 367.861 277.872 368.131 278.029 368.287 278.282 C 368.183 278.851 368.003 279.594 367.743 280.511 C 367.485 281.428 367.201 282.487 366.891 283.688 C 366.58 284.89 366.322 286.217 366.116 287.671 C 365.909 289.125 365.805 290.643 365.805 292.223 C 365.701 292.855 365.404 293.045 364.913 292.792 C 364.422 292.54 364.126 292.191 364.021 291.749 C 363.815 290.738 363.311 289.948 362.51 289.378 C 361.708 288.809 360.674 288.383 359.408 288.098 C 358.141 287.814 356.707 287.639 355.105 287.576 C 353.502 287.513 351.771 287.482 349.909 287.482 C 346.394 287.482 343.564 287.513 341.418 287.576 C 339.273 287.639 337.761 287.703 336.882 287.766 C 336.882 289.662 336.998 291.717 337.231 293.93 C 337.464 296.143 337.865 298.356 338.433 300.569 C 339.002 302.781 339.751 304.915 340.681 306.97 C 341.612 309.025 342.775 310.858 344.171 312.47 C 345.567 314.082 347.234 315.363 349.172 316.311 C 351.111 317.26 353.347 317.734 355.88 317.734 C 358.31 317.734 360.455 317.371 362.316 316.643 C 364.178 315.916 365.754 315.031 367.045 313.987 C 368.338 312.945 369.384 311.853 370.187 310.716 C 370.988 309.578 371.544 308.566 371.853 307.681 C 372.009 307.492 372.112 307.397 372.164 307.397 C 372.371 307.397 372.616 307.492 372.901 307.681 C 373.185 307.871 373.327 308.124 373.327 308.44 C 373.172 309.135 373.017 309.894 372.861 310.716 C 372.603 312.296 372.473 314.098 372.473 316.121 C 372.473 317.766 372.525 319.377 372.628 320.958 C 372.733 322.539 372.912 323.866 373.172 324.941 C 372.655 325.194 372.203 325.305 371.815 325.273 C 371.427 325.242 371.182 324.941 371.077 324.372 Z" style="fill: rgb(227, 253, 185);"></path>
  </g>
  <g style="" transform="matrix(1, 0, 0, 0.997504, 4.241962, 9.962837)">
    <title>Stones</title>
    <rect x="34.786" y="242.442" width="50.247" height="35.204" style="transform-box: fill-box; transform-origin: 50% 50%; stroke-width: 2.95232px; stroke: rgb(70, 50, 69); fill: rgb(210, 209, 209);" transform="matrix(0.999536, -0.030449, 0.030717, 0.999528, -1.356524, 0.316105)" rx="3.283" ry="3.283"></rect>
    <rect x="35.883" y="277.738" width="54.114" height="56.009" style="stroke-width: 2.95232px; stroke: rgb(70, 50, 69); transform-box: fill-box; transform-origin: 50% 50%; fill: rgb(206, 206, 206);" rx="5.095" ry="5.095" transform="matrix(0.999859, -0.016782, 0.016782, 0.999859, -4.255839, 0.021428)"></rect>
    <rect x="28.378" y="333.647" width="51.555" height="72.435" style="transform-box: fill-box; transform-origin: 50% 50%; fill: rgb(216, 216, 216); stroke-width: 2.95232px; stroke: rgb(70, 50, 69);" transform="matrix(0.999518, -0.031041, 0.002389, 1.000408, 6.54754, -1.185065)" rx="7.643" ry="7.643"></rect>
    <rect x="30.062" y="183.65" width="54.615" height="61.332" style="stroke-width: 2.95232px; stroke: rgb(70, 50, 69); transform-box: fill-box; transform-origin: 50% 50%; fill: rgb(207, 207, 207);" rx="8.013" ry="8.013" transform="matrix(0.999655, -0.026256, 0.027979, 0.99961, -2.40429, -0.810975)"></rect>
    <rect x="31.44" y="182.715" width="57.118" height="39.667" style="fill: rgb(216, 216, 216); stroke-width: 2.95232px; stroke: rgb(70, 50, 69); transform-origin: 60px 202.549px;" transform="matrix(0.999518, -0.031041, 0.002389, 1.000408, 0.004929, 218.43122)" rx="7.643" ry="7.643"></rect>
    <path d="M 38.955 153.113 L 81.428 164.641 C 84.251 165.407 85.919 168.175 85.153 170.823 L 82.48 180.065 C 81.714 182.713 78.804 184.238 75.981 183.472 L 31.68 182.158 C 28.857 181.392 27.189 178.625 27.955 175.977 C 24.189 174.738 29.589 155.577 32.457 156.52 C 33.222 153.872 36.132 152.347 38.955 153.113 Z" style="fill: rgb(216, 216, 216); stroke-width: 2.95242px; stroke: rgb(70, 50, 69); transform-origin: 54.034px 68.487px;"></path>
    <path d="M 35.086 199.43 L 81.114 205.107 C 83.87 205.107 86.104 207.341 86.104 210.097 L 88.504 264.971 C 88.504 267.727 86.27 269.961 83.514 269.961 L 37.78 278.117 C 35.024 278.117 32.79 275.883 32.79 273.127 C 27.636 273.926 26.171 205.029 30.096 204.42 C 30.096 201.664 32.33 199.43 35.086 199.43 Z" style="stroke-width: 2.95232px; stroke: rgb(70, 50, 69); transform-origin: 57.196px 236.707px; fill: rgb(217, 217, 217);" transform="matrix(0.71284, 0.701327, -0.782762, 0.63272, 47.274708, -141.002745)"></path>
    <path d="M 34.851 121.703 L 80.851 127.126 C 83.607 127.126 85.841 129.36 85.841 132.116 L 88.065 155.425 C 88.065 158.181 85.831 160.415 83.075 160.415 L 37.065 167.955 C 34.309 167.955 32.075 162.965 32.075 162.965 C 28.35 163.141 24.738 127.534 29.861 126.693 C 29.861 123.937 32.095 121.703 34.851 121.703 Z" style="stroke-width: 2.95232px; stroke: rgb(70, 50, 69); transform-origin: 56.986px 142.026px; fill: rgb(205, 205, 205);" transform="matrix(0.894317, 0.447434, -0.54575, 0.845129, 9.920009, -4.425403)"></path>
    <path d="M 30.579 234.974 L 71.903 238.277 C 74.659 238.277 76.893 240.511 76.893 243.267 L 76.893 312.866 C 76.893 315.622 74.659 317.856 71.903 317.856 L 31.672 327.047 C 28.916 327.047 26.682 324.813 26.682 322.057 C 21.097 319.497 22.268 238.442 25.589 239.964 C 25.589 237.208 27.823 234.974 30.579 234.974 Z" style="fill: rgb(216, 216, 216); stroke-width: 2.95232px; stroke: rgb(70, 50, 69); transform-origin: 52.096px 278.063px;" transform="matrix(0.421762, 0.906707, -0.935807, 0.359202, 122.308299, -219.361918)"></path>
    <rect x="-34.787" y="-250.265" width="50.249" height="36.34" style="fill: rgb(216, 216, 216); stroke-width: 2.95232px; stroke: rgb(70, 50, 69); transform-box: fill-box; transform-origin: 50% 50%;" transform="matrix(-0.999506, -0.031431, -0.029757, 0.999559, 433.162803, 493.855419)" rx="3.283" ry="3.283"></rect>
    <rect x="-35.883" y="-286.706" width="54.114" height="57.818" style="stroke-width: 2.95232px; stroke: rgb(70, 50, 69); transform-box: fill-box; transform-origin: 50% 50%; fill: rgb(198, 198, 198);" rx="5.095" ry="5.095" transform="matrix(-0.99985, -0.017324, -0.016257, 0.999868, 432.195259, 566.428259)"></rect>
    <rect x="-28.379" y="-344.413" width="51.557" height="74.772" style="stroke-width: 2.95232px; stroke: rgb(70, 50, 69); transform-box: fill-box; transform-origin: 50% 50%; fill: rgb(199, 199, 199);" transform="matrix(-0.999486, -0.032043, -0.002314, 1.00044, 423.950804, 680.604714)" rx="7.643" ry="7.643"></rect>
    <rect x="-30.063" y="-189.577" width="54.616" height="63.312" style="fill: rgb(216, 216, 216); stroke-width: 2.95232px; stroke: rgb(70, 50, 69); transform-box: fill-box; transform-origin: 50% 50%;" rx="8.013" ry="8.013" transform="matrix(-0.999633, -0.027103, -0.027104, 0.999633, 429.843721, 371.313535)"></rect>
    <rect x="-31.441" y="-184.33" width="57.12" height="40.019" style="stroke-width: 2.95232px; stroke: rgb(70, 50, 69); transform-origin: -2.88px -164.321px; fill: rgb(196, 196, 196);" transform="matrix(-0.999486, -0.032043, -0.002314, 1.00044, 424.942407, 585.965844)" rx="7.643" ry="7.643"></rect>
    <path d="M 412.941 -23.669 L 455.414 -35.57 C 458.237 -36.36 459.905 -39.218 459.139 -41.951 L 456.466 -51.492 C 455.7 -54.225 452.79 -55.8 449.967 -55.009 L 405.666 -53.652 C 402.843 -52.862 401.175 -50.005 401.941 -47.272 C 398.175 -45.993 403.575 -26.213 406.443 -27.186 C 407.208 -24.453 410.118 -22.879 412.941 -23.669 Z" style="stroke-width: 2.95242px; stroke: rgb(70, 50, 69); transform-origin: 428.02px 63.69px; fill: rgb(201, 201, 201);" transform="matrix(-1, 0, 0, -1, -0.000001, 0.000005)"></path>
    <path d="M 423.852 107.082 L 385.673 133.06 C 383.208 134.333 382.43 137.314 383.934 139.718 L 394.666 161.081 C 396.17 163.485 399.387 164.402 401.851 163.129 L 447.114 148.456 C 449.579 147.183 448.853 141.798 448.853 141.798 C 452.281 140.231 436.078 107.498 431.038 109.13 C 429.534 106.726 426.317 105.809 423.852 107.082 Z" style="fill: rgb(216, 216, 216); stroke-width: 2.95232px; stroke: rgb(70, 50, 69); transform-origin: 56.986px 142.026px;"></path>
    <path d="M 274.247 22.82 L 262.967 63.634 C 262.004 66.29 263.37 69.119 266.02 69.956 L 332.93 91.067 C 335.579 91.903 338.509 90.429 339.471 87.774 L 362.38 51.802 C 363.343 49.146 361.978 46.317 359.328 45.481 C 358.821 39.323 280.487 15.865 280.79 19.526 C 278.14 18.689 275.21 20.165 274.247 22.82 Z" style="fill: rgb(216, 216, 216); stroke-width: 2.95232px; stroke: rgb(70, 50, 69); transform-origin: 313.066px 55.514px;"></path>
    <path d="M 364.165 51.432 L 335.798 88.463 C 333.833 90.458 333.989 93.535 336.147 95.335 L 377.389 132.914 C 379.546 134.714 382.888 134.555 384.852 132.56 L 423.837 104.777 C 425.802 102.782 425.646 99.705 423.489 97.905 C 427.788 94.695 374.902 48.634 371.628 51.078 C 369.47 49.278 366.129 49.436 364.165 51.432 Z" style="stroke-width: 2.95232px; stroke: rgb(70, 50, 69); transform-origin: 57.196px 236.707px; fill: rgb(206, 205, 205);"></path>
    <path d="M 213.34 14.296 C 213.34 11.014 267.421 9.934 267.421 12.786 C 271.64 12.655 275.067 15.239 275.075 18.557 L 264.229 62.844 C 264.237 66.162 260.823 68.958 256.604 69.089 L 225.908 69.517 C 221.688 69.648 218.262 67.065 218.254 63.746 L 205.715 20.541 C 205.707 17.223 209.12 14.427 213.34 14.296 Z" style="stroke-width: 2.95232px; stroke: rgb(70, 50, 69); transform-origin: 54.156px 369.864px; fill: rgb(222, 222, 222);"></path>
  </g>
  <rect x="84.199" y="414.242" width="327.601" height="39.14" style="fill: url(#gradient-3); stroke: rgb(0, 0, 0); stroke-width: 2px;">
    <title>doorstep</title>
  </rect>
  <g transform="matrix(1, 0, 0, 1, 15.8931, -14.41914)" style="">
    <title>GO LABEL</title>
    <path d="M 246.928 367.001 L 286.098 363.438 L 322.445 420.691 L 286.098 477.945 L 246.928 474.382 L 280.439 420.691 L 246.928 367.001 Z" style="stroke: rgb(0, 0, 0); fill: url(#gradient-0); stroke-width: 11px;"></path>
    <path d="M 310.873 368.494 L 350.043 364.932 L 386.39 422.185 L 350.043 479.438 L 310.873 475.875 L 344.384 422.185 L 310.873 368.494 Z" style="stroke: rgb(0, 0, 0); fill: url(#gradient-1); stroke-width: 11px;"></path>
    <path d="M 376.772 367.047 L 415.942 363.438 L 452.289 421.438 L 415.942 479.438 L 376.772 475.829 L 410.283 421.438 L 376.772 367.047 Z" style="stroke: rgb(0, 0, 0); fill: url(#gradient-2); stroke-width: 11px;"></path>
  </g>
</svg>