<svg viewBox="0 0 500 500" xmlns="http://www.w3.org/2000/svg">
  <path d="M 289.771 321.189 L 195.019 321.189 L 195.019 311.711 C 195.019 295.587 196.848 282.498 200.504 272.442 C 204.163 262.386 209.608 253.2 216.838 244.886 C 224.07 236.576 240.319 221.948 265.586 201.004 C 279.049 190.033 285.781 179.976 285.781 170.835 C 285.781 161.69 283.08 154.583 277.678 149.513 C 272.276 144.442 264.09 141.907 253.119 141.907 C 241.315 141.907 231.55 145.814 223.82 153.629 C 216.09 161.44 211.145 175.071 208.985 194.522 L 112.239 182.552 C 115.563 146.978 128.488 118.345 151.011 96.653 C 173.535 74.961 208.069 64.114 254.614 64.114 C 290.852 64.114 320.108 71.678 342.382 86.804 C 372.635 107.25 387.762 134.511 387.762 168.588 C 387.762 182.718 383.856 196.349 376.045 209.481 C 368.233 222.612 352.274 238.655 328.169 257.605 C 311.38 270.903 300.784 281.583 296.378 289.644 C 291.974 297.708 289.771 308.222 289.771 321.189 Z M 191.779 346.371 L 293.263 346.371 L 293.263 435.886 L 191.779 435.886 L 191.779 346.371 Z" style="fill: #fff7;"></path>
</svg>
