<svg viewBox="0 0 500 500" xmlns="http://www.w3.org/2000/svg">
  <defs>
    <linearGradient gradientUnits="userSpaceOnUse" x1="250" y1="0" x2="250" y2="500" id="gradient-0" gradientTransform="matrix(0.711213, -0.702977, 1, 1, -177.803352, 175.744155)">
      <stop offset="0" style="stop-color: rgb(255, 205, 189);"></stop>
      <stop offset="1" style="stop-color: rgb(250, 0, 0);"></stop>
    </linearGradient>
  </defs>
  <rect width="500" height="500" style="fill: url(#gradient-0);"></rect>
  <path d="M 84.04 317.931 C 84.04 317.931 416.225 266.539 404.839 280.618 L 401.645 432.815 C 388.189 478.961 64.61 384.562 84.04 317.931 Z M 421.824 176.846 C 421.824 212.492 390.693 221.711 351.942 221.711 C 313.19 221.711 281.494 212.492 281.494 176.846 C 281.494 141.2 312.907 112.303 351.659 112.303 C 390.41 112.303 421.824 141.2 421.824 176.846 Z M 264.008 145.901 C 264.008 203.683 216.662 250.524 158.256 250.524 C 99.851 250.524 52.504 203.683 52.504 145.901 C 52.504 88.119 99.851 41.278 158.256 41.278 C 216.662 41.278 264.008 88.119 264.008 145.901 Z" style="stroke-width: 22px; fill: rgb(255, 255, 255); stroke: rgb(0, 0, 0);"></path>
  <path style="stroke: rgb(0, 0, 0); fill: none; stroke-width: 10px; transform-box: fill-box; transform-origin: 50% 50%;" d="M 131.985 355.297 L 393.743 371.848" transform="matrix(0.98994, -0.141486, 0.141486, 0.98994, 0.000005, 0.000002)"></path>
  <path d="M 328.659 165.688 C 328.659 173.84 322.331 180.449 314.525 180.449 C 306.719 180.449 300.391 173.84 300.391 165.688 C 300.391 157.536 306.719 150.927 314.525 150.927 C 322.331 150.927 328.659 157.536 328.659 165.688 Z M 225.586 158.796 C 225.586 176.613 212.868 191.057 197.18 191.057 C 181.492 191.057 168.774 176.613 168.774 158.796 C 168.774 140.979 181.492 126.535 197.18 126.535 C 212.868 126.535 225.586 140.979 225.586 158.796 Z" style=""></path>
</svg>